<?xml version="1.0" encoding="utf-8"?>
<!-- Generator: Adobe Illustrator 16.0.0, SVG Export Plug-In . SVG Version: 6.00 Build 0)  -->
<!DOCTYPE svg PUBLIC "-//W3C//DTD SVG 1.1//EN" "http://www.w3.org/Graphics/SVG/1.1/DTD/svg11.dtd">
<svg version="1.1" id="Camada_1" xmlns="http://www.w3.org/2000/svg" xmlns:xlink="http://www.w3.org/1999/xlink" x="0px" y="0px"
	 width="24px" height="24px" viewBox="0 0 24 24" enable-background="new 0 0 24 24" xml:space="preserve">
<g>
	<g>
		<g>
			<g>
				<g>
					<g>
						<g>
							<path fill="#212930" d="M12.001,23.96c-2.319,0-4.528-0.662-6.405-1.877L1.51,23.85l1.436-4.196
								c-1.657-2.099-2.541-4.638-2.541-7.288C0.295,5.96,5.596,0.77,12.001,0.77v0.995C6.148,1.764,1.4,6.512,1.4,12.365
								c0,2.539,0.883,4.97,2.54,6.847l0.11,0.221l-0.884,2.65l2.43-1.215l0.22,0.11c1.767,1.215,3.866,1.878,6.074,1.878
								c5.852,0,10.602-4.749,10.602-10.602h0.994C23.597,18.771,18.295,23.96,12.001,23.96z"/>
						</g>
					</g>
				</g>
			</g>
		</g>
		<g>
			<g>
				<path fill="#212930" d="M23.488,12.365h-0.994c0-0.11,0-0.332,0-0.442h0.994C23.488,12.033,23.488,12.144,23.488,12.365z"/>
			</g>
			<g>
				<path fill="#212930" d="M22.384,11.105c0-0.332-0.111-0.663-0.111-0.883L23.266,10c0.112,0.332,0.112,0.663,0.223,0.994
					L22.384,11.105z M22.05,9.163c-0.11-0.332-0.221-0.552-0.331-0.883l0.884-0.332c0.11,0.332,0.221,0.663,0.331,0.994L22.05,9.163
					z M21.387,7.396c-0.11-0.221-0.331-0.552-0.441-0.773l0.773-0.552c0.221,0.332,0.331,0.552,0.552,0.884L21.387,7.396z
					 M20.393,5.85c-0.22-0.221-0.44-0.442-0.551-0.663l0.661-0.662c0.223,0.22,0.442,0.552,0.663,0.772L20.393,5.85z M19.179,4.525
					c-0.221-0.221-0.442-0.442-0.663-0.553L19.068,3.2c0.221,0.22,0.552,0.441,0.773,0.662L19.179,4.525z M17.632,3.42
					c-0.22-0.11-0.551-0.331-0.772-0.442l0.442-0.883c0.33,0.111,0.551,0.332,0.883,0.553L17.632,3.42z M15.976,2.537
					c-0.331-0.11-0.552-0.221-0.884-0.331l0.332-0.884c0.331,0.11,0.664,0.221,0.994,0.331L15.976,2.537z M14.21,1.984
					c-0.222-0.11-0.554-0.11-0.884-0.22l0.11-0.995c0.331,0,0.662,0.111,0.994,0.221L14.21,1.984z"/>
			</g>
			<g>
				<path fill="#212930" d="M12.442,1.764c-0.111,0-0.331,0-0.441,0V0.77c0.221,0,0.33,0,0.552,0L12.442,1.764z"/>
			</g>
		</g>
		<circle fill="#E4376E" cx="11.78" cy="12.254" r="8.834"/>
	</g>
	<circle fill="#212930" cx="7.915" cy="12.365" r="1.104"/>
	<circle fill="#212930" cx="11.78" cy="12.365" r="1.104"/>
	<circle fill="#212930" cx="15.645" cy="12.365" r="1.104"/>
</g>
</svg>
