<?xml version="1.0" encoding="utf-8"?>
<!-- Generator: Adobe Illustrator 16.0.0, SVG Export Plug-In . SVG Version: 6.00 Build 0)  -->
<!DOCTYPE svg PUBLIC "-//W3C//DTD SVG 1.1//EN" "http://www.w3.org/Graphics/SVG/1.1/DTD/svg11.dtd">
<svg version="1.1" id="Camada_1" xmlns="http://www.w3.org/2000/svg" xmlns:xlink="http://www.w3.org/1999/xlink" x="0px" y="0px"
	 width="24px" height="24px" viewBox="0 0 24 24" enable-background="new 0 0 24 24" xml:space="preserve">
<g>
	<g>
		<g>
			<path fill="#212930" d="M12.556,13.059h-0.96V4.058c0-0.721-0.601-1.32-1.32-1.32H1.395v10.44h-0.96v-11.4h9.841
				c1.32,0,2.28,1.08,2.28,2.28V13.059L12.556,13.059z"/>
		</g>
		<g>
			<path fill="#212930" d="M23.837,20.02h-2.16v-0.961h1.2V2.737h-8.882c-0.72,0-1.319,0.6-1.319,1.32v9.001h-0.96V4.058
				c0-1.32,1.08-2.28,2.28-2.28h9.842V20.02z"/>
		</g>
	</g>
	<g>
		<g>
			<rect x="2.834" y="4.177" fill="#212930" width="4.32" height="0.96"/>
		</g>
		<g>
			<rect x="2.834" y="6.938" fill="#212930" width="7.32" height="0.96"/>
		</g>
		<g>
			<rect x="2.834" y="8.979" fill="#212930" width="7.32" height="0.959"/>
		</g>
		<g>
			<rect x="2.834" y="11.018" fill="#212930" width="5.161" height="0.96"/>
		</g>
	</g>
	<g>
		<g>
			<g>
				<path fill="#FFFFFF" d="M20.117,22.42c0,0.119-0.12,0.361-0.36,0.361H1.274c-0.12,0-0.36-0.121-0.36-0.361v-7.682
					c0-0.119,0.12-0.359,0.36-0.359h18.603c0.12,0,0.359,0.119,0.359,0.359v7.682H20.117z"/>
				<path fill="#212930" d="M19.877,23.141H1.274c-0.48,0-0.84-0.359-0.84-0.721v-7.682c0-0.479,0.36-0.84,0.84-0.84h18.603
					c0.479,0,0.839,0.361,0.839,0.84v7.682C20.597,22.781,20.236,23.141,19.877,23.141z M1.395,22.18h18.241v-7.32H1.395V22.18z"/>
			</g>
			<g>
				<g>
					<g>
						<line fill="none" x1="2.474" y1="16.539" x2="3.915" y2="16.539"/>
						<rect x="2.474" y="16.059" fill="#E4376E" width="1.44" height="0.961"/>
					</g>
					<g>
						<line fill="none" x1="4.995" y1="16.539" x2="6.435" y2="16.539"/>
						<rect x="4.995" y="16.059" fill="#E4376E" width="1.44" height="0.961"/>
					</g>
					<g>
						<line fill="none" x1="7.396" y1="16.539" x2="8.835" y2="16.539"/>
						<rect x="7.396" y="16.059" fill="#E4376E" width="1.44" height="0.961"/>
					</g>
					<g>
						<line fill="none" x1="9.795" y1="16.539" x2="11.235" y2="16.539"/>
						<rect x="9.795" y="16.059" fill="#E4376E" width="1.44" height="0.961"/>
					</g>
					<g>
						<line fill="none" x1="12.315" y1="16.539" x2="13.756" y2="16.539"/>
						<rect x="12.315" y="16.059" fill="#E4376E" width="1.441" height="0.961"/>
					</g>
					<g>
						<line fill="none" x1="14.716" y1="16.539" x2="16.155" y2="16.539"/>
						<rect x="14.716" y="16.059" fill="#E4376E" width="1.439" height="0.961"/>
					</g>
					<g>
						<line fill="none" x1="17.116" y1="16.539" x2="18.556" y2="16.539"/>
						<rect x="17.116" y="16.059" fill="#E4376E" width="1.439" height="0.961"/>
					</g>
				</g>
				<g>
					<g>
						<line fill="none" x1="2.474" y1="18.58" x2="3.915" y2="18.58"/>
						<rect x="2.474" y="18.1" fill="#E4376E" width="1.44" height="0.959"/>
					</g>
					<g>
						<line fill="none" x1="4.995" y1="18.58" x2="6.435" y2="18.58"/>
						<rect x="4.995" y="18.1" fill="#E4376E" width="1.44" height="0.959"/>
					</g>
					<g>
						<line fill="none" x1="7.396" y1="18.58" x2="8.835" y2="18.58"/>
						<rect x="7.396" y="18.1" fill="#E4376E" width="1.44" height="0.959"/>
					</g>
					<g>
						<line fill="none" x1="9.795" y1="18.58" x2="11.235" y2="18.58"/>
						<rect x="9.795" y="18.1" fill="#E4376E" width="1.44" height="0.959"/>
					</g>
					<g>
						<line fill="none" x1="12.315" y1="18.58" x2="13.756" y2="18.58"/>
						<rect x="12.315" y="18.1" fill="#E4376E" width="1.441" height="0.959"/>
					</g>
					<g>
						<line fill="none" x1="14.716" y1="18.58" x2="16.155" y2="18.58"/>
						<rect x="14.716" y="18.1" fill="#E4376E" width="1.439" height="0.959"/>
					</g>
					<g>
						<line fill="none" x1="17.116" y1="18.58" x2="18.556" y2="18.58"/>
						<rect x="17.116" y="18.1" fill="#E4376E" width="1.439" height="0.959"/>
					</g>
				</g>
				<g>
					<g>
						<line fill="none" x1="2.474" y1="20.619" x2="3.915" y2="20.619"/>
						<rect x="2.474" y="20.139" fill="#E4376E" width="1.44" height="0.961"/>
					</g>
					<g>
						<line fill="none" x1="4.995" y1="20.619" x2="6.435" y2="20.619"/>
						<rect x="4.995" y="20.139" fill="#E4376E" width="1.44" height="0.961"/>
					</g>
					<g>
						<line fill="none" x1="7.396" y1="20.619" x2="16.155" y2="20.619"/>
						<rect x="7.396" y="20.139" fill="#E4376E" width="8.76" height="0.961"/>
					</g>
					<g>
						<line fill="none" x1="17.116" y1="20.619" x2="18.556" y2="20.619"/>
						<rect x="17.116" y="20.139" fill="#E4376E" width="1.439" height="0.961"/>
					</g>
				</g>
			</g>
		</g>
	</g>
	<g>
		<g>
			<g>
				<line fill="none" x1="17.717" y1="5.618" x2="17.717" y2="4.177"/>
				<rect x="17.236" y="4.177" fill="#212930" width="0.96" height="1.44"/>
			</g>
			<g>
				<line fill="none" x1="16.275" y1="6.578" x2="15.075" y2="5.858"/>
				
					<rect x="15.224" y="5.507" transform="matrix(-0.4993 0.8664 -0.8664 -0.4993 28.9402 -4.2708)" fill="#212930" width="0.96" height="1.44"/>
			</g>
			<g>
				<line fill="none" x1="16.396" y1="8.138" x2="15.196" y2="8.858"/>
				
					<rect x="15.056" y="8.017" transform="matrix(-0.8664 0.4994 -0.4994 -0.8664 33.6872 7.9817)" fill="#212930" width="1.439" height="0.96"/>
			</g>
			<g>
				<line fill="none" x1="17.836" y1="8.858" x2="17.836" y2="10.298"/>
				<rect x="17.355" y="8.858" fill="#212930" width="0.961" height="1.44"/>
			</g>
			<g>
				<line fill="none" x1="19.156" y1="8.018" x2="20.477" y2="8.738"/>
				
					<rect x="19.366" y="7.629" transform="matrix(-0.5001 0.866 -0.866 -0.5001 37.0017 -4.6626)" fill="#212930" width="0.961" height="1.441"/>
			</g>
			<g>
				<line fill="none" x1="19.156" y1="6.458" x2="20.356" y2="5.738"/>
				
					<rect x="19.058" y="5.61" transform="matrix(-0.8663 0.4996 -0.4996 -0.8663 39.9528 1.4836)" fill="#212930" width="1.44" height="0.96"/>
			</g>
		</g>
		<g>
			<g>
				<polygon fill="#FFFFFF" points="17.836,8.738 18.556,10.058 19.276,11.379 17.717,11.379 16.275,11.379 16.996,10.058 				"/>
				<path fill="#212930" d="M20.117,11.859h-4.681l2.399-3.961L20.117,11.859z M17.116,10.898h1.319l-0.6-1.2L17.116,10.898z"/>
			</g>
			<g>
				
					<rect x="16.884" y="11.698" transform="matrix(-0.0092 1 -1 -0.0092 30.1262 -5.4926)" fill="#212930" width="1.8" height="0.96"/>
			</g>
		</g>
	</g>
</g>
</svg>
