<?xml version="1.0" encoding="utf-8"?>
<!-- Generator: Adobe Illustrator 16.0.0, SVG Export Plug-In . SVG Version: 6.00 Build 0)  -->
<!DOCTYPE svg PUBLIC "-//W3C//DTD SVG 1.1//EN" "http://www.w3.org/Graphics/SVG/1.1/DTD/svg11.dtd">
<svg version="1.1" id="Camada_1" xmlns="http://www.w3.org/2000/svg" xmlns:xlink="http://www.w3.org/1999/xlink" x="0px" y="0px"
	 width="24px" height="24px" viewBox="0 0 24 24" enable-background="new 0 0 24 24" xml:space="preserve">
<g>
	<rect x="0.387" y="4.109" fill="#00A087" width="23.303" height="16.279"/>
	<g>
		<g>
			<path fill="#FFFFFF" d="M10.421,3.105H1.948v15.61h8.473c0.893,0,1.673,0.779,1.673,1.672V4.778
				C11.982,3.886,11.313,3.105,10.421,3.105z"/>
			<path fill="#212930" d="M12.428,20.388h-0.892c0-0.67-0.557-1.227-1.226-1.227H1.39V2.66h8.919c1.115,0,2.118,0.893,2.118,2.118
				V20.388L12.428,20.388z M2.394,18.269h7.916c0.447,0,0.893,0.113,1.226,0.334V4.778c0-0.669-0.557-1.226-1.226-1.226H2.394
				V18.269z"/>
		</g>
		<g>
			<path fill="#FFFFFF" d="M13.543,3.105h8.474v15.61h-8.474c-0.892,0-1.672,0.779-1.672,1.672V4.778
				C11.871,3.886,12.651,3.105,13.543,3.105z"/>
			<path fill="#212930" d="M12.428,20.388h-0.892V4.778c0-1.115,0.892-2.118,2.12-2.118h8.919v16.613h-8.919
				C12.874,19.272,12.428,19.718,12.428,20.388z M13.543,3.552c-0.669,0-1.115,0.557-1.115,1.226v13.938
				c0.335-0.225,0.781-0.334,1.228-0.334h7.916V3.552H13.543z"/>
		</g>
	</g>
	<g>
		<g>
			<rect x="3.62" y="4.89" fill="#212930" width="3.902" height="0.892"/>
		</g>
		<g>
			<rect x="3.62" y="7.342" fill="#212930" width="6.579" height="0.893"/>
		</g>
		<g>
			<rect x="3.62" y="9.238" fill="#212930" width="6.579" height="0.892"/>
		</g>
		<g>
			<rect x="3.62" y="11.133" fill="#212930" width="4.683" height="0.893"/>
		</g>
	</g>
	<g>
		<g>
			<path fill="#FFFFFF" d="M16.999,19.272c-0.335,0-0.78,0.111-1.003,0.111l1.003,2.898l1.004-2.898
				C17.78,19.384,17.445,19.272,16.999,19.272z"/>
			<path fill="#212930" d="M16.999,23.62l-1.672-4.459l0.446-0.111c0.78-0.225,1.561-0.225,2.341,0l0.446,0.111L16.999,23.62z
				 M16.554,19.829l0.445,1.227l0.446-1.227C17.223,19.718,16.888,19.718,16.554,19.829z"/>
		</g>
		<polyline fill="#E4376E" points="18.672,19.161 18.672,13.251 15.438,13.251 15.438,19.161 		"/>
		<g>
			<g>
				<path fill="#E4376E" d="M15.884,0.43v1.115h2.342V0.43c0-0.111-0.111-0.223-0.223-0.223h-1.784
					C15.996,0.318,15.884,0.318,15.884,0.43z"/>
			</g>
			<g>
				<g>
					<rect x="15.884" y="1.544" fill="#FFFFFF" width="2.342" height="1.561"/>
					<path fill="#212930" d="M18.672,3.663h-3.233V1.099h3.233V3.663z M16.331,2.771h1.449v-0.78h-1.449V2.771z"/>
				</g>
			</g>
		</g>
		<polyline fill="#E4376E" points="18.672,15.815 18.672,3.663 15.438,3.663 15.438,16.04 		"/>
	</g>
</g>
</svg>
