<?xml version="1.0" encoding="utf-8"?>
<!-- Generator: Adobe Illustrator 16.0.0, SVG Export Plug-In . SVG Version: 6.00 Build 0)  -->
<!DOCTYPE svg PUBLIC "-//W3C//DTD SVG 1.1//EN" "http://www.w3.org/Graphics/SVG/1.1/DTD/svg11.dtd">
<svg version="1.1" id="Camada_1" xmlns="http://www.w3.org/2000/svg" xmlns:xlink="http://www.w3.org/1999/xlink" x="0px" y="0px"
	 width="24px" height="24px" viewBox="0 0 24 24" enable-background="new 0 0 24 24" xml:space="preserve">
<g>
	<rect x="4.757" y="2.535" fill="#E4376E" width="11.819" height="13.481"/>
	<g>
		<path fill="#282D33" d="M2.031,20.18h-1V2.68h0.056c0.245-1.179,1.3-2.073,2.542-2.073h14.875v17.336H3.629
			c-0.901,0-1.634,0.734-1.634,1.635c0,0.02,0.001,0.035,0.003,0.055L2.031,20.18z M1.995,3.271v14.288
			c0.447-0.361,1.016-0.578,1.634-0.578h13.91V1.571H3.629c-0.882,0-1.614,0.719-1.632,1.601L1.995,3.271z"/>
	</g>
	<g>
		<g>
			<path fill="#FFFFFF" d="M18.022,17.461h-4.09H3.629c-1.169,0-2.116,0.949-2.116,2.117s0.947,2.117,2.116,2.117h10.304h4.09
				V17.461z"/>
			<path fill="#282D33" d="M18.504,22.176H3.629c-1.433,0-2.598-1.164-2.598-2.598c0-1.432,1.166-2.598,2.598-2.598h14.875V22.176z
				 M3.629,17.943c-0.901,0-1.634,0.734-1.634,1.635s0.733,1.635,1.634,1.635h13.91v-3.27H3.629z"/>
		</g>
	</g>
	<g>
		<path fill="#FFFFFF" d="M22.485,2.1V1.272c0-0.102-0.111-0.183-0.253-0.183h-1.798c-0.141,0-0.254,0.081-0.254,0.183V2.1"/>
		<path fill="#282D33" d="M22.969,2.1h-0.965V1.571h-1.342V2.1h-0.963V1.272c0-0.374,0.323-0.666,0.735-0.666h1.798
			c0.412,0,0.736,0.292,0.736,0.666V2.1z"/>
	</g>
	<polygon fill="#E4376E" points="7.751,23.393 6.216,22.42 4.682,23.393 4.682,19.762 6.216,19.762 7.751,19.762 	"/>
	<g>
		<line fill="#FFFFFF" x1="3.472" y1="19.699" x2="18.022" y2="19.699"/>
		<rect x="3.472" y="19.217" fill="#282D33" width="14.551" height="0.965"/>
	</g>
	<g>
		<line fill="#FFFFFF" x1="3.472" y1="17.33" x2="3.472" y2="1.293"/>
		<rect x="2.989" y="1.293" fill="#282D33" width="0.964" height="16.037"/>
	</g>
	<g>
		<rect x="20.181" y="3.291" fill="#B4BEBF" width="2.305" height="11.221"/>
		<path fill="#B4BEBF" d="M22.969,14.994h-3.27V2.809h3.27V14.994z M20.662,14.029h1.342V3.772h-1.342V14.029z"/>
	</g>
	<g>
		<polygon fill="#282D33" points="21.335,19.162 19.702,15.121 19.702,14.67 20.667,14.67 20.667,14.934 21.335,16.59 
			22.004,14.934 22.004,14.67 22.969,14.67 22.969,15.121 		"/>
	</g>
	<g>
		<rect x="7.489" y="8.272" fill="#282D33" width="6.508" height="0.964"/>
	</g>
	<g>
		<rect x="8.252" y="6.223" fill="#282D33" width="4.981" height="0.964"/>
	</g>
</g>
</svg>
