<?xml version="1.0" encoding="utf-8"?>
<!-- Generator: Adobe Illustrator 16.0.0, SVG Export Plug-In . SVG Version: 6.00 Build 0)  -->
<!DOCTYPE svg PUBLIC "-//W3C//DTD SVG 1.1//EN" "http://www.w3.org/Graphics/SVG/1.1/DTD/svg11.dtd">
<svg version="1.1" id="Camada_1" xmlns="http://www.w3.org/2000/svg" xmlns:xlink="http://www.w3.org/1999/xlink" x="0px" y="0px"
	 width="24px" height="24px" viewBox="0 0 24 24" enable-background="new 0 0 24 24" xml:space="preserve">
<g>
	<g>
		<path fill="#212930" d="M10.378,15.293h-0.84v-0.314c-0.419-0.104-0.735-0.419-1.049-0.631l0,0l-3.044-3.462V8.26V7.945l0,0v-1.26
			l0,0V6.161V5.846l0,0l0,0h0.945c1.049,0,1.994,0.839,1.994,1.994v2.52H7.543V7.84c0-0.63-0.525-1.049-1.05-1.049H6.284v1.364
			L6.389,8.47H6.284v1.994l2.729,3.15c0.314,0.21,0.629,0.421,0.945,0.525l0.314,0.104v1.049H10.378z"/>
	</g>
	<g>
		<path fill="#FFFFFF" d="M1.875,8.051H1.139c-0.105,0-0.209,0.104-0.209,0.209V9.52c0,0.105,0.104,0.21,0.209,0.21h0.735"/>
		<path fill="#212930" d="M1.875,10.15H1.139c-0.419,0-0.629-0.315-0.629-0.63V8.26c0-0.315,0.314-0.63,0.629-0.63h0.735v0.84H1.35
			v0.735h0.525V10.15z"/>
	</g>
	<g>
		<polygon fill="#212930" points="20.665,10.15 20.245,10.15 20.245,9.205 20.455,9.205 21.189,8.89 20.455,8.575 20.245,8.575 
			20.245,7.63 20.665,7.63 23.395,8.89 		"/>
	</g>
	<rect x="15.836" y="7.63" fill="#B4BEBF" width="3.779" height="2.415"/>
	<rect x="2.504" y="7.63" fill="#B4BEBF" width="4.934" height="2.415"/>
	<g>
		<path fill="#FFFFFF" d="M5.863,10.255L5.863,10.255v0.42l2.834,3.36c0.315,0.313,0.735,0.524,1.155,0.628v0.63"/>
		<path fill="#212930" d="M10.378,15.293h-0.84v-0.314c-0.419-0.104-0.735-0.419-1.049-0.631l0,0l-3.044-3.462V9.94l0.314-0.105
			l0.105,0.42l0,0v-0.42h0.105V9.73l0.315,0.105v0.629l2.729,3.15c0.314,0.21,0.629,0.421,0.945,0.525l0.314,0.104v1.049H10.378z"/>
	</g>
	<g>
		<path fill="#212930" d="M15.313,15.293h-0.842v-1.258l0.212-0.106c0.523-0.42,0.839-1.049,0.839-1.784V7.525v-1.05
			c0-0.314-0.209-0.525-0.524-0.525c-0.526,0-0.526,0.21-0.526,0.315l0,0h-1.049V5.951c0-0.314-0.211-0.525-0.524-0.525
			c-0.315,0-0.525,0.21-0.525,0.525h-0.84V5.531c0-0.315-0.209-0.525-0.524-0.525c-0.315,0-0.525,0.21-0.525,0.525v0.524h-0.84
			c0-0.209-0.209-0.524-0.629-0.524c-0.315,0-0.63,0.209-0.63,0.63v4.199H7.543V6.161c0-0.84,0.63-1.47,1.47-1.47
			c0.314,0,0.524,0.104,0.734,0.21c0.21-0.42,0.735-0.84,1.26-0.84c0.524,0,0.944,0.314,1.259,0.734
			c0.105-0.209,0.315-0.209,0.631-0.209c0.524,0,0.944,0.209,1.155,0.63c0.209-0.105,0.418-0.105,0.733-0.105
			c0.841,0,1.47,0.63,1.47,1.47V7.63v4.619c0,0.945-0.42,1.786-1.05,2.31v0.733H15.313z"/>
	</g>
	<g>
		<polyline fill="#E4376E" points="9.328,24.217 9.328,16.028 17.41,16.028 17.41,24.217 		"/>
		<polyline fill="#E4376E" points="9.328,24.217 9.328,16.028 17.41,16.028 17.41,24.217 		"/>
	</g>
	<g>
		<rect x="15.731" y="17.499" fill="#212930" width="0.84" height="0.84"/>
	</g>
</g>
</svg>
