<?xml version="1.0" encoding="utf-8"?>
<!-- Generator: Adobe Illustrator 16.0.0, SVG Export Plug-In . SVG Version: 6.00 Build 0)  -->
<!DOCTYPE svg PUBLIC "-//W3C//DTD SVG 1.1//EN" "http://www.w3.org/Graphics/SVG/1.1/DTD/svg11.dtd">
<svg version="1.1" id="Camada_1" xmlns="http://www.w3.org/2000/svg" xmlns:xlink="http://www.w3.org/1999/xlink" x="0px" y="0px"
	 width="24px" height="24px" viewBox="0 0 24 24" enable-background="new 0 0 24 24" xml:space="preserve">
<g>
	<g>
		<circle fill="#E4376E" cx="11.829" cy="12.329" r="11.075"/>
	</g>
	<g>
		<g>
			<path fill="#282D33" d="M13.905,20.635H9.752c-0.092,0-0.179-0.036-0.245-0.102l-4.5-4.499c-0.064-0.065-0.101-0.152-0.101-0.245
				v-5.537h0.692v5.394l4.296,4.297h3.867l4.296-4.297v-5.394h0.691v5.537c0,0.093-0.036,0.18-0.102,0.245l-4.499,4.499
				C14.085,20.599,13.997,20.635,13.905,20.635z"/>
		</g>
		<g>
			<g>
				<circle fill="#FFFFFF" cx="18.404" cy="9.214" r="1.038"/>
			</g>
			<g>
				<path fill="#282D33" d="M18.404,10.598c-0.764,0-1.385-0.622-1.385-1.384s0.621-1.384,1.385-1.384s1.385,0.622,1.385,1.384
					S19.168,10.598,18.404,10.598z M18.404,8.521c-0.381,0-0.692,0.311-0.692,0.692s0.312,0.692,0.692,0.692
					s0.692-0.311,0.692-0.692S18.785,8.521,18.404,8.521z"/>
			</g>
		</g>
		<g>
			<path fill="#282D33" d="M18.648,13.266l-0.488-0.489l3.013-3.014V6.791h0.692v3.115c0,0.092-0.037,0.179-0.102,0.245
				L18.648,13.266z"/>
		</g>
		<g>
			<g>
				<circle fill="#E4376E" cx="21.519" cy="5.753" r="1.039"/>
			</g>
			<g>
				<path fill="#282D33" d="M21.519,7.137c-0.763,0-1.384-0.622-1.384-1.384c0-0.762,0.621-1.384,1.384-1.384
					c0.764,0,1.385,0.622,1.385,1.384C22.903,6.516,22.282,7.137,21.519,7.137z M21.519,5.061c-0.38,0-0.691,0.31-0.691,0.692
					s0.312,0.692,0.691,0.692c0.381,0,0.692-0.311,0.692-0.692S21.899,5.061,21.519,5.061z"/>
			</g>
		</g>
		<g>
			<path fill="#282D33" d="M14.842,14.649l-0.489-0.488l0.937-0.938V5.061h0.692v8.306c0,0.092-0.036,0.18-0.102,0.244
				L14.842,14.649z"/>
		</g>
		<g>
			<g>
				<circle fill="#FFFFFF" cx="15.636" cy="4.022" r="1.038"/>
			</g>
		</g>
		<g>
			
				<rect x="15.635" y="13.486" transform="matrix(0.7071 0.7071 -0.7071 0.7071 15.601 -6.7773)" fill="#282D33" width="0.692" height="3.915"/>
		</g>
		<g>
			<g>
				<circle fill="#FFFFFF" cx="5.253" cy="9.214" r="1.038"/>
			</g>
		</g>
		<g>
			<path fill="#282D33" d="M5.008,13.266l-3.115-3.115c-0.064-0.065-0.101-0.153-0.101-0.245V5.061h0.692v4.701l3.014,3.014
				L5.008,13.266z"/>
		</g>
		<g>
			<g>
				<circle fill="#E4376E" cx="2.138" cy="4.022" r="1.038"/>
			</g>
			<g>
				<path fill="#282D33" d="M2.138,5.407c-0.764,0-1.384-0.622-1.384-1.384c0-0.762,0.621-1.384,1.384-1.384S3.522,3.26,3.522,4.022
					C3.522,4.785,2.902,5.407,2.138,5.407z M2.138,3.331c-0.381,0-0.692,0.31-0.692,0.692s0.311,0.692,0.692,0.692
					s0.692-0.311,0.692-0.692S2.52,3.331,2.138,3.331z"/>
			</g>
		</g>
		<g>
			<path fill="#282D33" d="M8.815,14.649l-1.038-1.038c-0.064-0.064-0.101-0.152-0.101-0.244V6.791h0.692v6.432l0.937,0.938
				L8.815,14.649z"/>
		</g>
		<g>
			<g>
				<circle fill="#FFFFFF" cx="8.022" cy="5.753" r="1.038"/>
			</g>
		</g>
		<g>
			
				<rect x="5.718" y="15.097" transform="matrix(0.7071 0.7071 -0.7071 0.7071 13.1682 -0.9042)" fill="#282D33" width="3.915" height="0.692"/>
		</g>
	</g>
	<g>
		<g>
			<path fill="#FFFFFF" d="M10.444,3.676V2.292c0-0.382,0.311-0.692,0.692-0.692h1.384c0.382,0,0.692,0.31,0.692,0.692v1.384H10.444
				z"/>
		</g>
		<g>
			<rect x="10.098" y="3.676" fill="#34CA9D" width="3.46" height="16.612"/>
		</g>
		<g>
			<polygon fill="#FFFFFF" stroke="#282D33" stroke-miterlimit="10" points="13.559,20.635 10.098,20.635 11.829,23.058 			"/>
		</g>
		<g>
			<rect x="11.482" y="3.676" fill="#282D33" width="0.692" height="16.612"/>
		</g>
		<g>
			<rect x="10.098" y="19.942" fill="#282D33" width="3.46" height="0.692"/>
		</g>
		<g>
			<path fill="#282D33" d="M13.559,3.676h-0.691V2.292c0-0.19-0.156-0.346-0.347-0.346h-1.384c-0.191,0-0.346,0.155-0.346,0.346
				v1.384h-0.692V2.292c0-0.572,0.466-1.038,1.038-1.038h1.384c0.572,0,1.038,0.466,1.038,1.038V3.676z"/>
		</g>
	</g>
</g>
</svg>
