<?xml version="1.0" encoding="utf-8"?>
<!-- Generator: Adobe Illustrator 16.0.0, SVG Export Plug-In . SVG Version: 6.00 Build 0)  -->
<!DOCTYPE svg PUBLIC "-//W3C//DTD SVG 1.1//EN" "http://www.w3.org/Graphics/SVG/1.1/DTD/svg11.dtd">
<svg version="1.1" id="Camada_1" xmlns="http://www.w3.org/2000/svg" xmlns:xlink="http://www.w3.org/1999/xlink" x="0px" y="0px"
	 width="24px" height="24px" viewBox="0 0 24 24" enable-background="new 0 0 24 24" xml:space="preserve">
<g>
	<g>
		<path fill="#212930" d="M10.454,15.146H9.601v-0.319c-0.427-0.107-0.747-0.321-1.067-0.641l0,0l-3.094-3.52V8V7.68l0,0V6.507l0,0
			V5.974V5.653l0,0l0,0H6.4c1.066,0,1.92,0.854,1.92,1.92v2.56H7.467v-2.56c0-0.64-0.427-1.066-1.066-1.066l0,0V8l0.107,0.32H6.4
			v2.027l2.773,3.2c0.32,0.213,0.64,0.428,0.96,0.534l0.32,0.106V15.146z"/>
	</g>
	<g>
		<path fill="#FFFFFF" d="M1.92,7.894H1.173C1.067,7.894,0.96,8,0.96,8.106v1.28C0.96,9.493,1.067,9.6,1.173,9.6H1.92V7.894z"/>
		<path fill="#212930" d="M1.92,9.919H1.173c-0.32,0-0.64-0.213-0.64-0.639V8.106c0-0.32,0.32-0.64,0.64-0.64H1.92v0.853H1.388
			v0.747H1.92V9.919z"/>
	</g>
	<g>
		<polygon fill="#212930" points="20.801,9.919 20.375,9.919 20.375,9.066 20.587,9.066 21.333,8.747 20.587,8.319 20.375,8.319 
			20.375,7.467 20.801,7.467 23.467,8.747 		"/>
	</g>
	<rect x="15.894" y="7.467" fill="#B4BEBF" width="3.734" height="2.453"/>
	<rect x="2.561" y="7.467" fill="#B4BEBF" width="4.906" height="2.453"/>
	<g>
		<path fill="#FFFFFF" d="M5.867,10.026L5.867,10.026v0.427l2.88,3.305c0.32,0.321,0.747,0.534,1.174,0.642v0.64L5.867,10.026z"/>
		<path fill="#212930" d="M10.454,15.146H9.601v-0.319c-0.427-0.107-0.747-0.321-1.067-0.641l0,0l-3.094-3.52V9.919h0.427h0.427
			v0.427l2.773,3.2c0.32,0.213,0.64,0.428,0.96,0.534l0.32,0.106v0.96H10.454z"/>
	</g>
	<g>
		<path fill="#212930" d="M15.36,15.146h-0.853v-1.28l0.212-0.107c0.534-0.426,0.854-1.065,0.854-1.812V7.253V6.294
			c0-0.32-0.213-0.534-0.533-0.534c-0.64,0-0.64,0.214-0.64,0.32l0,0h-0.854V5.76c0-0.32-0.214-0.533-0.532-0.533
			c-0.321,0-0.534,0.213-0.534,0.533h-0.854V5.333c0-0.32-0.213-0.533-0.533-0.533c-0.32,0-0.533,0.213-0.533,0.533v0.534H9.707
			c0-0.214-0.213-0.534-0.64-0.534c-0.32,0-0.533,0.214-0.533,0.534v4.267H7.681V5.867c0-0.854,0.64-1.493,1.493-1.493
			c0.213,0,0.533,0.106,0.747,0.213c0.213-0.427,0.746-0.747,1.28-0.747c0.533,0,0.959,0.32,1.28,0.747
			c0.213-0.107,0.427-0.213,0.745-0.213c0.535,0,0.961,0.213,1.175,0.639c0-0.106,0.214-0.213,0.533-0.213
			c0.747,0,1.387,0.64,1.387,1.386v0.96v4.694c0,0.959-0.427,1.705-1.066,2.346v0.96H15.36z"/>
	</g>
	<g>
		<rect x="9.387" y="15.894" fill="#E4376E" width="8.105" height="8.106"/>
		<rect x="9.387" y="15.894" fill="#E4376E" width="8.105" height="8.106"/>
	</g>
	<g>
		<rect x="15.894" y="17.28" fill="#212930" width="0.854" height="0.853"/>
	</g>
</g>
</svg>
