<?xml version="1.0" encoding="utf-8"?>
<!-- Generator: Adobe Illustrator 16.0.0, SVG Export Plug-In . SVG Version: 6.00 Build 0)  -->
<!DOCTYPE svg PUBLIC "-//W3C//DTD SVG 1.1//EN" "http://www.w3.org/Graphics/SVG/1.1/DTD/svg11.dtd">
<svg version="1.1" id="Camada_1" xmlns="http://www.w3.org/2000/svg" xmlns:xlink="http://www.w3.org/1999/xlink" x="0px" y="0px"
	 width="24px" height="24px" viewBox="0 0 24 24" enable-background="new 0 0 24 24" xml:space="preserve">
<g>
	<g>
		<path fill="#FFFFFF" d="M11.847,1.659c-5.796,0-10.495,4.698-10.495,10.494c0,2.468,0.855,4.738,2.283,6.531L3.018,20.98
			l2.3-0.614c1.792,1.426,4.061,2.281,6.529,2.281c5.795,0,10.495-4.699,10.495-10.495C22.342,6.357,17.643,1.659,11.847,1.659z"/>
		<path fill="#282D33" d="M11.847,23.314c-2.436,0-4.737-0.768-6.677-2.221l-3.094,0.828l0.83-3.093
			c-1.455-1.94-2.22-4.24-2.22-6.676c0-6.154,5.005-11.161,11.161-11.161c6.154,0,11.161,5.006,11.161,11.161
			C23.008,18.309,18.001,23.314,11.847,23.314z M5.47,19.635l0.264,0.209c1.755,1.398,3.869,2.137,6.114,2.137
			c5.418,0,9.828-4.409,9.828-9.828c0-5.419-4.409-9.829-9.828-9.829c-5.42,0-9.828,4.409-9.828,9.829
			c0,2.245,0.738,4.359,2.137,6.115l0.209,0.264l-0.403,1.508L5.47,19.635z"/>
	</g>
	<path fill="#E4376E" d="M11.847,20.648c-4.685,0-8.496-3.811-8.496-8.496c0-4.684,3.812-8.495,8.496-8.495
		c4.683,0,8.495,3.811,8.495,8.495C20.342,16.838,16.53,20.648,11.847,20.648z"/>
	<g>
		<g>
			<polygon fill="#212930" points="10.263,12.707 6.8,9.478 10.263,6.251 11.171,7.227 8.754,9.479 11.171,11.732 			"/>
		</g>
		<g>
			<rect x="8.091" y="8.813" fill="#212930" width="7.311" height="1.334"/>
		</g>
	</g>
	<g>
		<g>
			<polygon fill="#FFFFFF" points="12.915,17.704 12.009,16.729 14.425,14.478 12.009,12.224 12.915,11.249 16.379,14.478 			"/>
		</g>
		<g>
			<rect x="7.777" y="13.81" fill="#FFFFFF" width="7.313" height="1.333"/>
		</g>
	</g>
</g>
</svg>
