<?xml version="1.0" encoding="utf-8"?>
<!-- Generator: Adobe Illustrator 16.0.0, SVG Export Plug-In . SVG Version: 6.00 Build 0)  -->
<!DOCTYPE svg PUBLIC "-//W3C//DTD SVG 1.1//EN" "http://www.w3.org/Graphics/SVG/1.1/DTD/svg11.dtd">
<svg version="1.1" id="Camada_1" xmlns="http://www.w3.org/2000/svg" xmlns:xlink="http://www.w3.org/1999/xlink" x="0px" y="0px"
	 width="24px" height="24px" viewBox="0 0 24 24" enable-background="new 0 0 24 24" xml:space="preserve">
<g id="XMLID_11_">
	<g>
		<path fill="#E4376E" d="M22.787,16.814v5.128H1.212v-9.611H3.26h5.406l1.961-2.772h10.111h2.049V9.58v2.751V16.814z
			 M20.826,20.396v-2.757h-6.609v2.757H20.826z"/>
		<polygon fill="#B4BEBF" points="22.787,6.153 22.787,9.559 20.738,9.559 20.738,9.525 20.738,7.852 5.804,7.852 3.262,7.852 
			3.262,10.394 3.262,10.396 3.26,10.396 3.26,12.331 1.212,12.331 1.212,12.325 1.212,4.29 10.431,4.29 12.392,6.153 		"/>
		<polygon fill="#FFFFFF" points="20.738,9.525 20.738,9.559 10.627,9.559 8.666,12.331 3.26,12.331 3.26,10.396 3.262,10.396 
			5.804,10.396 5.804,7.852 20.738,7.852 		"/>
		<polygon fill="#E4376E" points="5.804,7.852 5.804,10.396 3.262,10.396 3.262,10.394 		"/>
		<polygon fill="#D3EEE4" points="5.804,7.852 3.262,10.394 3.262,7.852 		"/>
	</g>
	<g>
		<path fill="#212930" d="M3.556,10.394H2.968V7.852c0-0.163,0.131-0.294,0.294-0.294h2.542v0.588H3.556V10.394z"/>
		<path fill="#212930" d="M1.506,12.325H0.918V4.29c0-0.162,0.132-0.294,0.294-0.294h9.218c0.076,0,0.148,0.029,0.203,0.081
			l1.876,1.783h10.277c0.163,0,0.295,0.132,0.295,0.294v3.405h-0.589V6.447H12.392c-0.075,0-0.148-0.029-0.203-0.081l-1.876-1.782
			H1.506V12.325z"/>
		<path fill="#212930" d="M21.032,9.525h-0.589V8.146H5.804V7.558h14.935c0.162,0,0.294,0.131,0.294,0.294V9.525z"/>
		<path fill="#212930" d="M3.554,12.331H2.965v-1.936c0-0.082,0.034-0.155,0.087-0.209c0,0,0,0,0.001-0.001l2.542-2.542
			c0.084-0.084,0.21-0.11,0.32-0.064c0.11,0.045,0.182,0.153,0.182,0.272v2.543c0,0.163-0.132,0.294-0.294,0.294h-2.25V12.331z
			 M3.97,10.101h1.54V8.562L3.97,10.101z"/>
		<path fill="#212930" d="M22.787,22.236H1.212c-0.163,0-0.294-0.131-0.294-0.294v-9.611c0-0.162,0.132-0.294,0.294-0.294h7.301
			l1.874-2.649c0.056-0.078,0.145-0.124,0.24-0.124h12.16c0.163,0,0.295,0.131,0.295,0.294v12.384
			C23.082,22.105,22.95,22.236,22.787,22.236z M1.506,21.648h20.987V9.853H10.779l-1.874,2.649c-0.055,0.077-0.145,0.124-0.24,0.124
			h-7.16V21.648z"/>
		<rect x="3.183" y="16.718" fill="#212930" width="3.335" height="0.588"/>
		<rect x="3.183" y="18.057" fill="#212930" width="5.483" height="0.588"/>
		<rect x="3.183" y="19.396" fill="#212930" width="5.483" height="0.589"/>
	</g>
</g>
<rect x="13.486" y="17.478" fill="#212930" width="7.338" height="3.384"/>
<rect x="13.852" y="17.792" fill="#FFFFFF" width="6.609" height="2.755"/>
</svg>
