<?xml version="1.0" encoding="utf-8"?>
<!-- Generator: Adobe Illustrator 16.0.0, SVG Export Plug-In . SVG Version: 6.00 Build 0)  -->
<!DOCTYPE svg PUBLIC "-//W3C//DTD SVG 1.1//EN" "http://www.w3.org/Graphics/SVG/1.1/DTD/svg11.dtd">
<svg version="1.1" id="Camada_1" xmlns="http://www.w3.org/2000/svg" xmlns:xlink="http://www.w3.org/1999/xlink" x="0px" y="0px"
	 width="24px" height="24px" viewBox="0 0 24 24" enable-background="new 0 0 24 24" xml:space="preserve">
<g>
	<path fill="#FFFFFF" d="M7.81,13.332c-0.106,4.242,3.393,7.742,7.635,7.848c1.804,0,3.499-0.529,4.878-1.59l1.697,0.53
		l-0.425-1.696c1.061-1.272,1.696-2.969,1.696-4.772c0.106-4.241-3.394-7.741-7.635-7.847C11.416,5.699,7.916,9.092,7.81,13.332z"/>
	<path fill="#212930" d="M23.716,13.651c0,1.804-0.637,3.5-1.696,4.878l0.529,2.228l-2.227-0.637c-1.484,1.06-3.181,1.59-4.878,1.59
		c-4.454-0.104-8.059-3.816-8.059-8.27c0.106-4.455,3.817-8.06,8.271-8.06C20.217,5.381,23.821,9.092,23.716,13.651z M21.064,18.317
		l0.106-0.213c1.061-1.271,1.59-2.862,1.696-4.559c0.106-4.03-3.181-7.316-7.211-7.423c-4.029-0.106-7.316,3.182-7.423,7.209
		c-0.105,4.031,3.182,7.318,7.211,7.425c1.697,0,3.287-0.531,4.561-1.485l0.212-0.105l1.166,0.317L21.064,18.317z"/>
</g>
<circle fill="#C9C3C6" cx="15.551" cy="13.491" r="6.256"/>
<g>
	<path fill="#FFFFFF" d="M8.34,4.32c-4.242,0-7.741,3.5-7.741,7.741c0,1.802,0.636,3.498,1.696,4.771l-0.424,1.696l1.697-0.425
		c1.272,1.062,2.969,1.697,4.771,1.697c4.242,0,7.741-3.499,7.741-7.74S12.582,4.32,8.34,4.32z"/>
	<g>
		<path fill="#212930" d="M8.34,20.476c-1.764,0-3.465-0.577-4.929-1.672l-2.54,0.727l0.726-2.54
			c-1.025-1.38-1.566-3.081-1.566-4.929c0-4.64,3.775-8.415,8.415-8.415c4.64,0,8.415,3.775,8.415,8.415
			C16.75,16.704,12.928,20.476,8.34,20.476z M3.956,17.609c1.188,0.989,2.71,1.52,4.384,1.52c3.896,0,7.066-3.171,7.066-7.067
			s-3.17-7.067-7.066-7.067s-7.067,3.17-7.067,7.067c0,1.675,0.53,3.195,1.533,4.398l0.193,0.193l-0.253,0.93l1.013-0.169
			L3.956,17.609z"/>
		<path fill="#FFFFFF" d="M8.446,3.896c4.453,0,8.165,3.605,8.165,8.165c-0.106,4.453-3.817,8.164-8.271,8.164
			c-1.802,0-3.5-0.636-4.878-1.696l-2.227,0.637l0.636-2.227c-1.061-1.38-1.59-3.076-1.59-4.878
			C0.281,7.607,3.887,3.896,8.446,3.896 M2.402,17.894l1.272-0.212l0.106,0.105c1.273,1.061,2.863,1.592,4.56,1.592
			c4.029,0,7.316-3.289,7.316-7.317c0-4.03-3.287-7.317-7.316-7.317s-7.317,3.287-7.317,7.317c0,1.697,0.53,3.286,1.591,4.559
			l0.105,0.106L2.402,17.894 M8.446,3.396c-4.778,0-8.665,3.887-8.665,8.665c0,1.857,0.532,3.572,1.542,4.978l-0.569,1.989
			l-0.247,0.866l0.866-0.248l1.988-0.568c1.484,1.079,3.201,1.647,4.979,1.647c4.723,0,8.657-3.881,8.771-8.652
			C17.111,7.284,13.225,3.396,8.446,3.396L8.446,3.396z M3.089,17.272l0.113-0.414l0.076-0.278l-0.203-0.205l-0.105-0.106
			c-0.936-1.126-1.446-2.592-1.446-4.207c0-3.759,3.058-6.817,6.817-6.817s6.816,3.058,6.816,6.817s-3.058,6.817-6.816,6.817
			c-1.615,0-3.081-0.511-4.24-1.476l-0.074-0.077l-0.182-0.18l-0.252,0.042L3.089,17.272L3.089,17.272z"/>
	</g>
</g>
<circle fill="#E4376E" cx="8.34" cy="12.061" r="6.256"/>
<circle fill="#212930" cx="5.158" cy="12.061" r="0.955"/>
<circle fill="#212930" cx="8.34" cy="12.061" r="0.955"/>
<circle fill="#212930" cx="11.521" cy="12.061" r="0.955"/>
</svg>
