<?xml version="1.0" encoding="utf-8"?>
<!-- Generator: Adobe Illustrator 16.0.0, SVG Export Plug-In . SVG Version: 6.00 Build 0)  -->
<!DOCTYPE svg PUBLIC "-//W3C//DTD SVG 1.1//EN" "http://www.w3.org/Graphics/SVG/1.1/DTD/svg11.dtd">
<svg version="1.1" id="Camada_1" xmlns="http://www.w3.org/2000/svg" xmlns:xlink="http://www.w3.org/1999/xlink" x="0px" y="0px"
	 width="24px" height="24px" viewBox="0 0 24 24" enable-background="new 0 0 24 24" xml:space="preserve">
<g>
	<g>
		<rect x="1.152" y="5.896" fill="#FFFFFF" width="21.404" height="14.75"/>
		<path fill="#212930" d="M22.891,20.98H0.709V5.454H23V20.98H22.891z M1.485,20.204h20.518V6.229H1.485V20.204z"/>
	</g>
	<g>
		<line fill="none" x1="3.037" y1="17.542" x2="11.799" y2="17.542"/>
		<rect x="3.037" y="17.099" fill="#212930" width="8.762" height="0.887"/>
	</g>
	<g>
		<line fill="none" x1="3.037" y1="13.771" x2="14.683" y2="13.771"/>
		<rect x="3.037" y="13.327" fill="#212930" width="11.646" height="0.888"/>
	</g>
	<g>
		<line fill="none" x1="14.683" y1="15.656" x2="3.037" y2="15.656"/>
		<rect x="3.037" y="15.214" fill="#212930" width="11.646" height="0.886"/>
	</g>
	<g>
		<line fill="none" x1="3.037" y1="11.886" x2="14.683" y2="11.886"/>
		<rect x="3.037" y="11.442" fill="#212930" width="11.646" height="0.887"/>
	</g>
	<g>
		<rect x="1.152" y="3.346" fill="#FFFFFF" width="21.404" height="2.44"/>
		<path fill="#212930" d="M22.891,6.229H0.709V2.903H23v3.327H22.891z M1.485,5.454h20.518V3.79H1.485V5.454z"/>
	</g>
	<g>
		<line fill="none" x1="2.04" y1="4.566" x2="2.927" y2="4.566"/>
		<rect x="2.04" y="4.123" fill="#212930" width="0.776" height="0.887"/>
	</g>
	<g>
		<line fill="none" x1="3.481" y1="4.566" x2="4.258" y2="4.566"/>
		<rect x="3.481" y="4.123" fill="#212930" width="0.776" height="0.887"/>
	</g>
	<g>
		<line fill="none" x1="4.923" y1="4.566" x2="5.699" y2="4.566"/>
		<rect x="4.923" y="4.123" fill="#212930" width="0.776" height="0.887"/>
	</g>
	<g>
		<rect x="3.037" y="8.004" fill="#E4376E" width="7.209" height="1.664"/>
	</g>
</g>
</svg>
