<?xml version="1.0" encoding="utf-8"?>
<!-- Generator: Adobe Illustrator 16.0.0, SVG Export Plug-In . SVG Version: 6.00 Build 0)  -->
<!DOCTYPE svg PUBLIC "-//W3C//DTD SVG 1.1//EN" "http://www.w3.org/Graphics/SVG/1.1/DTD/svg11.dtd">
<svg version="1.1" id="Camada_1" xmlns="http://www.w3.org/2000/svg" xmlns:xlink="http://www.w3.org/1999/xlink" x="0px" y="0px"
	 width="24px" height="24px" viewBox="0 0 24 24" enable-background="new 0 0 24 24" xml:space="preserve">
<g>
	<g>
		<g>
			<g>
				
					<rect x="10.365" y="20.918" transform="matrix(0.7071 -0.7071 0.7071 0.7071 -12.1039 14.2962)" fill="#AFAFAF" width="1.681" height="1.681"/>
			</g>
		</g>
		<g>
			<g>
				<rect x="1.694" y="2.738" fill="#AFAFAF" width="19.021" height="6.34"/>
			</g>
		</g>
		<g>
			<g>
				<rect x="1.694" y="15.418" fill="#AFAFAF" width="19.021" height="6.341"/>
			</g>
		</g>
		<g>
			<g>
				<rect x="3.154" y="17.399" fill="#E5E5E5" width="15.977" height="0.792"/>
			</g>
		</g>
		<g>
			<g>
				<rect x="3.154" y="18.984" fill="#4285F4" width="10.681" height="0.793"/>
			</g>
		</g>
		<g>
			<g>
				<rect x="14.375" y="18.984" fill="#4285F4" width="3.17" height="0.793"/>
			</g>
		</g>
		<g>
			<g>
				<rect x="3.154" y="4.719" fill="#E5E5E5" width="12.167" height="0.792"/>
			</g>
		</g>
		<g>
			<g>
				<rect x="3.154" y="6.304" fill="#4285F4" width="10.525" height="0.792"/>
			</g>
		</g>
		<g>
			<g>
				<rect x="15.937" y="4.719" fill="#E5E5E5" width="3.612" height="0.792"/>
			</g>
		</g>
		<g>
			<g>
				<rect x="14.132" y="6.304" fill="#4285F4" width="5.417" height="0.792"/>
			</g>
		</g>
		<g>
			<g>
				<rect x="0.406" y="8.549" fill="#E4376E" width="23.185" height="7.727"/>
			</g>
		</g>
		<g>
			<g>
				<rect x="3.154" y="11.059" fill="#212930" width="16.426" height="0.792"/>
			</g>
		</g>
		<g>
			<g>
				<rect x="3.154" y="12.645" fill="#E5E5E5" width="11.292" height="0.792"/>
			</g>
		</g>
		<g>
			<g>
				<rect x="15.244" y="12.645" fill="#E5E5E5" width="4.336" height="0.792"/>
			</g>
		</g>
	</g>
	<polygon fill="#892E4E" points="1.694,17.681 0.406,16.276 1.694,16.276 	"/>
	<polygon fill="#892E4E" points="20.715,17.796 20.715,16.276 23.591,16.276 	"/>
</g>
</svg>
