<?xml version="1.0" encoding="utf-8"?>
<!-- Generator: Adobe Illustrator 16.0.0, SVG Export Plug-In . SVG Version: 6.00 Build 0)  -->
<!DOCTYPE svg PUBLIC "-//W3C//DTD SVG 1.1//EN" "http://www.w3.org/Graphics/SVG/1.1/DTD/svg11.dtd">
<svg version="1.1" id="Camada_1" xmlns="http://www.w3.org/2000/svg" xmlns:xlink="http://www.w3.org/1999/xlink" x="0px" y="0px"
	 width="24px" height="24px" viewBox="0 0 24 24" enable-background="new 0 0 24 24" xml:space="preserve">
<g>
	<g>
		<g>
			<g>
				<path fill="#FFFFFF" d="M18.363,22.569c0,0.12-0.119,0.24-0.24,0.24H2.029c-0.12,0-0.24-0.12-0.24-0.24v-6.606
					c0-0.12,0.121-0.239,0.24-0.239h16.094c0.121,0,0.24,0.119,0.24,0.239V22.569z"/>
				<path fill="#212930" d="M18.123,23.29H2.029c-0.36,0-0.721-0.36-0.721-0.721v-6.606c0-0.36,0.36-0.721,0.721-0.721h16.094
					c0.359,0,0.721,0.36,0.721,0.721v6.606C18.844,22.93,18.482,23.29,18.123,23.29z M2.269,22.449h15.735v-6.246H2.269V22.449z"/>
			</g>
			<g>
				<g>
					<g>
						<line fill="none" x1="3.11" y1="17.524" x2="4.431" y2="17.524"/>
						<rect x="3.11" y="17.164" fill="#E4376E" width="1.201" height="0.841"/>
					</g>
					<g>
						<line fill="none" x1="5.272" y1="17.524" x2="6.473" y2="17.524"/>
						<rect x="5.272" y="17.164" fill="#E4376E" width="1.201" height="0.841"/>
					</g>
					<g>
						<line fill="none" x1="7.313" y1="17.524" x2="8.635" y2="17.524"/>
						<rect x="7.313" y="17.164" fill="#E4376E" width="1.202" height="0.841"/>
					</g>
					<g>
						<line fill="none" x1="9.476" y1="17.524" x2="10.677" y2="17.524"/>
						<rect x="9.476" y="17.164" fill="#E4376E" width="1.201" height="0.841"/>
					</g>
					<g>
						<line fill="none" x1="11.517" y1="17.524" x2="12.838" y2="17.524"/>
						<rect x="11.517" y="17.164" fill="#E4376E" width="1.202" height="0.841"/>
					</g>
					<g>
						<line fill="none" x1="13.68" y1="17.524" x2="14.881" y2="17.524"/>
						<rect x="13.68" y="17.164" fill="#E4376E" width="1.201" height="0.841"/>
					</g>
					<g>
						<line fill="none" x1="15.842" y1="17.524" x2="17.043" y2="17.524"/>
						<rect x="15.842" y="17.164" fill="#E4376E" width="1.201" height="0.841"/>
					</g>
				</g>
				<g>
					<g>
						<line fill="none" x1="3.11" y1="19.326" x2="4.431" y2="19.326"/>
						<rect x="3.11" y="18.846" fill="#E4376E" width="1.201" height="0.841"/>
					</g>
					<g>
						<line fill="none" x1="5.272" y1="19.326" x2="6.473" y2="19.326"/>
						<rect x="5.272" y="18.846" fill="#E4376E" width="1.201" height="0.841"/>
					</g>
					<g>
						<line fill="none" x1="7.313" y1="19.326" x2="8.635" y2="19.326"/>
						<rect x="7.313" y="18.846" fill="#E4376E" width="1.202" height="0.841"/>
					</g>
					<g>
						<line fill="none" x1="9.476" y1="19.326" x2="10.677" y2="19.326"/>
						<rect x="9.476" y="18.846" fill="#E4376E" width="1.201" height="0.841"/>
					</g>
					<g>
						<line fill="none" x1="11.517" y1="19.326" x2="12.838" y2="19.326"/>
						<rect x="11.517" y="18.846" fill="#E4376E" width="1.202" height="0.841"/>
					</g>
					<g>
						<line fill="none" x1="13.68" y1="19.326" x2="14.881" y2="19.326"/>
						<rect x="13.68" y="18.846" fill="#E4376E" width="1.201" height="0.841"/>
					</g>
					<g>
						<line fill="none" x1="15.842" y1="19.326" x2="17.043" y2="19.326"/>
						<rect x="15.842" y="18.846" fill="#E4376E" width="1.201" height="0.841"/>
					</g>
				</g>
				<g>
					<g>
						<line fill="none" x1="3.11" y1="21.007" x2="4.431" y2="21.007"/>
						<rect x="3.11" y="20.648" fill="#E4376E" width="1.201" height="0.84"/>
					</g>
					<g>
						<line fill="none" x1="5.272" y1="21.007" x2="6.473" y2="21.007"/>
						<rect x="5.272" y="20.648" fill="#E4376E" width="1.201" height="0.84"/>
					</g>
					<g>
						<line fill="none" x1="7.313" y1="21.007" x2="15" y2="21.007"/>
						<rect x="7.313" y="20.648" fill="#E4376E" width="7.567" height="0.84"/>
					</g>
					<g>
						<line fill="none" x1="15.842" y1="21.007" x2="17.043" y2="21.007"/>
						<rect x="15.842" y="20.648" fill="#E4376E" width="1.201" height="0.84"/>
					</g>
				</g>
			</g>
		</g>
	</g>
	<g>
		<g>
			<rect x="8.875" y="7.796" fill="#212930" width="0.48" height="0.841"/>
		</g>
		<g>
			<path fill="#212930" d="M8.635,13.562h-0.84V12.72h0.84V13.562z M6.953,13.562h-0.84V12.72h0.84V13.562z M5.272,13.562h-0.24
				c-0.24,0-0.48,0-0.601-0.121l0.24-0.84c0.121,0,0.24,0,0.48,0h0.24v0.961H5.272z M3.47,13.08c-0.24-0.12-0.481-0.36-0.721-0.721
				l0.721-0.48c0.12,0.24,0.361,0.361,0.48,0.48L3.47,13.08z M2.269,11.519c-0.12-0.24-0.12-0.6-0.12-0.84v-0.12h0.84l0,0
				c0,0.241,0,0.48,0.121,0.601L2.269,11.519z M3.11,9.958l-0.841-0.36c0.12-0.36,0.24-0.601,0.48-0.84L3.47,9.357
				C3.351,9.477,3.23,9.718,3.11,9.958z M4.071,8.877L3.59,8.156c0.361-0.24,0.601-0.36,0.961-0.36l0.12,0.841
				C4.431,8.637,4.191,8.757,4.071,8.877z M8.035,8.637H7.193V7.796h0.841V8.637z M6.233,8.637H5.392V7.796h0.841V8.637z"/>
		</g>
		<g>
			<rect x="9.596" y="12.601" fill="#212930" width="0.48" height="0.84"/>
		</g>
	</g>
	<g>
		<g>
			<rect x="9.957" y="12.601" fill="#212930" width="0.48" height="0.84"/>
		</g>
		<g>
			<path fill="#212930" d="M20.166,17.885h-0.6v-0.841h0.6c0.119,0,0.119,0,0.238,0l0.121,0.841
				C20.404,17.885,20.285,17.885,20.166,17.885z M21.486,17.524l-0.48-0.721c0.24-0.119,0.361-0.24,0.48-0.48l0.721,0.48
				C22.086,17.044,21.848,17.284,21.486,17.524z M22.688,15.843l-0.84-0.24c0-0.12,0-0.24,0-0.36c0-0.119,0-0.24,0-0.24l0.84-0.119
				c0,0.119,0,0.24,0,0.479C22.807,15.482,22.807,15.603,22.688,15.843z M21.605,14.281c-0.119-0.24-0.238-0.359-0.48-0.479
				l0.48-0.722c0.242,0.24,0.48,0.481,0.721,0.722L21.605,14.281z M20.525,13.562c-0.121,0-0.24,0-0.359,0h-0.361V12.72h0.361
				c0.238,0,0.359,0,0.6,0L20.525,13.562z M18.965,13.562h-0.842V12.72h0.842V13.562z M17.162,13.562h-0.84V12.72h0.84V13.562z
				 M15.48,13.562h-0.84V12.72h0.84V13.562z M13.801,13.562h-0.842V12.72h0.842V13.562z M12.118,13.562h-0.961V12.72h0.841v0.842
				H12.118z"/>
		</g>
		<g>
			<rect x="18.363" y="16.924" fill="#212930" width="0.48" height="0.841"/>
		</g>
	</g>
	<g>
		<g>
			<g>
				<path fill="#FFFFFF" d="M11.878,3.953c-0.961,0-1.802,0-2.763,0c-1.201,0-2.042,0.721-2.042,1.441c0,0.841,0,1.562,0,2.402
					c0,0.841,0.36,1.321,2.042,2.162c0.961,0.48,1.921,0.841,2.763,0.961V3.953z"/>
				<path fill="#212930" d="M11.998,11.398L11.998,11.398c-0.961-0.24-1.921-0.48-3.002-0.96c-1.682-0.72-2.282-1.441-2.282-2.521
					V5.514c0-1.081,1.081-1.921,2.522-1.921h2.762c0.12,0,0.24,0,0.361,0.12c0,0,0,0.12,0,0.24l0.12,6.966c0,0.12,0,0.24-0.12,0.36
					C12.238,11.279,12.118,11.398,11.998,11.398z M11.517,4.313H9.235c-0.96,0-1.682,0.601-1.682,1.081v2.402
					c0,0.48,0.12,0.961,1.802,1.681c0.841,0.361,1.562,0.601,2.162,0.841V4.313z"/>
			</g>
			<g>
				<path fill="#FFFFFF" d="M11.878,3.953c0.96,0,1.802,0,2.763,0c1.201,0,2.162,0.721,2.162,1.441c0,0.841,0,1.562,0,2.402
					c0,0.841-0.361,1.321-2.043,2.162c-0.959,0.48-1.922,0.841-2.762,1.081L11.878,3.953z"/>
				<path fill="#212930" d="M11.998,11.398c-0.12,0-0.24,0-0.24-0.12c-0.12-0.12-0.12-0.24-0.12-0.36l-0.121-6.966
					c0-0.24,0.241-0.48,0.48-0.48h2.762c1.441,0,2.523,0.84,2.523,1.921v2.402c0,1.081-0.602,1.801-2.283,2.522
					C13.92,10.799,12.959,11.159,11.998,11.398L11.998,11.398z M12.358,4.313v6.006c0.721-0.241,1.442-0.48,2.163-0.841
					c1.68-0.84,1.801-1.321,1.801-1.801V5.273c0-0.48-0.721-1.081-1.682-1.081L12.358,4.313z"/>
			</g>
		</g>
		<g>
			<path fill="#FFFFFF" d="M11.998,8.156L2.87,4.793l9.008-3.603l9.128,3.363L11.998,8.156z"/>
			<path fill="#212930" d="M11.998,8.637L1.668,4.793l10.209-4.083l10.329,3.844L11.998,8.637z M4.071,4.793l7.927,3.003
				l7.807-3.123L11.878,1.67L4.071,4.793z"/>
		</g>
		<g>
			<polygon fill="#E4376E" points="17.043,9.597 17.043,6.354 11.517,4.193 11.758,3.472 17.883,5.754 17.883,9.597 			"/>
		</g>
		<g>
			<ellipse fill="#FFFFFF" cx="11.878" cy="3.833" rx="0.96" ry="0.48"/>
			<path fill="#212930" d="M11.878,4.673c-0.841,0-1.441-0.361-1.441-0.961c0-0.601,0.6-0.96,1.441-0.96l0,0
				c0.841,0,1.44,0.36,1.44,0.96C13.318,4.313,12.719,4.673,11.878,4.673L11.878,4.673z M11.517,3.833
				c0.121,0,0.241,0.12,0.361,0.12v0.48v-0.48c0.24,0,0.36,0,0.48-0.12c-0.121,0-0.241-0.12-0.361-0.12
				C11.758,3.712,11.638,3.712,11.517,3.833z"/>
		</g>
		<path fill="#E4376E" d="M18.604,11.519V9.838c0-0.48-0.48-0.961-1.08-0.961c-0.602,0-1.082,0.36-1.082,0.961v1.681H18.604z"/>
	</g>
</g>
</svg>
