<?xml version="1.0" encoding="utf-8"?>
<!-- Generator: Adobe Illustrator 16.0.0, SVG Export Plug-In . SVG Version: 6.00 Build 0)  -->
<!DOCTYPE svg PUBLIC "-//W3C//DTD SVG 1.1//EN" "http://www.w3.org/Graphics/SVG/1.1/DTD/svg11.dtd">
<svg version="1.1" id="Camada_1" xmlns="http://www.w3.org/2000/svg" xmlns:xlink="http://www.w3.org/1999/xlink" x="0px" y="0px"
	 width="24px" height="24px" viewBox="0 0 24 24" enable-background="new 0 0 24 24" xml:space="preserve">
<g>
	<g>
		<path fill="#212930" d="M14.375,20.445v-0.986c2.74,0,4.935-2.193,4.935-4.936c0-2.743-2.194-4.937-4.935-4.937V8.6
			c3.289,0,5.922,2.632,5.922,5.924C20.297,17.705,17.664,20.445,14.375,20.445z"/>
	</g>
	<g>
		<polyline fill="#FFFFFF" points="14.703,20.885 14.703,18.582 16.568,18.582 16.568,20.885 		"/>
		<polygon fill="#212930" points="17.006,20.885 16.02,20.885 16.02,19.021 15.251,19.021 15.251,20.885 14.264,20.885 
			14.264,18.143 17.006,18.143 		"/>
	</g>
	<g>
		<path fill="#212930" d="M14.045,15.84h-3.729V0.153h3.729V15.84z M11.302,14.854h1.865V1.141h-1.865V14.854z"/>
	</g>
	<rect x="9.767" y="3.883" fill="#00A087" width="4.717" height="9.982"/>
	<g>
		<rect x="9.767" y="3.334" fill="#212930" width="4.717" height="0.987"/>
	</g>
	<g>
		<rect x="9.767" y="1.908" fill="#212930" width="4.717" height="0.987"/>
	</g>
	<g>
		<rect x="7.792" y="18.143" fill="#212930" width="8.776" height="0.986"/>
	</g>
	<g>
		<path fill="#212930" d="M19.749,23.848H4.721v-1.975c0-0.658,0.548-1.205,1.207-1.205h12.724c0.658,0,1.207,0.547,1.207,1.205
			v1.975H19.749z M5.599,22.859h13.163v-1.098c0-0.107-0.11-0.219-0.22-0.219H5.927c-0.11,0-0.22,0.111-0.22,0.219v1.098H5.599z"/>
	</g>
	<g>
		<circle fill="#FFFFFF" cx="14.375" cy="9.148" r="2.194"/>
		<path fill="#212930" d="M14.375,11.781c-1.537,0-2.633-1.207-2.633-2.633c0-1.536,1.207-2.632,2.633-2.632
			c1.534,0,2.631,1.207,2.631,2.632C17.115,10.574,15.909,11.781,14.375,11.781z M14.375,7.394c-0.988,0-1.756,0.767-1.756,1.754
			c0,0.987,0.768,1.755,1.756,1.755c0.986,0,1.754-0.768,1.754-1.755C16.129,8.161,15.361,7.394,14.375,7.394z"/>
	</g>
	<circle fill="#E4376E" cx="14.375" cy="9.148" r="0.877"/>
</g>
</svg>
