<?xml version="1.0" encoding="utf-8"?>
<!-- Generator: Adobe Illustrator 16.0.0, SVG Export Plug-In . SVG Version: 6.00 Build 0)  -->
<!DOCTYPE svg PUBLIC "-//W3C//DTD SVG 1.1//EN" "http://www.w3.org/Graphics/SVG/1.1/DTD/svg11.dtd">
<svg version="1.1" id="Camada_1" xmlns="http://www.w3.org/2000/svg" xmlns:xlink="http://www.w3.org/1999/xlink" x="0px" y="0px"
	 width="24px" height="24px" viewBox="0 0 24 24" enable-background="new 0 0 24 24" xml:space="preserve">
<g>
	<g>
		<path fill="#FFFFFF" d="M1.089,18.353v1.823c0,0.341,0.341,0.684,0.683,0.684h19.931c0.341,0,0.57-0.343,0.57-0.684v-1.823H1.089z
			"/>
		<path fill="#212930" d="M21.703,21.313H1.772c-0.57,0-1.139-0.568-1.139-1.138v-2.277h22.096v2.277
			C22.615,20.632,22.273,21.313,21.703,21.313z M1.543,18.809v1.367c0,0.113,0.114,0.229,0.229,0.229h19.931
			c0,0,0.115-0.115,0.115-0.229v-1.367H1.543z"/>
	</g>
	<g>
		<path fill="#FFFFFF" d="M9.289,20.859c0,0.454,0,1.48,0,1.937c-0.114,0.456-0.114,0.456-0.342,0.569
			c-0.114,0.113-0.341,0.228-0.569,0.228l0,0"/>
		<path fill="#212930" d="M8.492,24.049L8.15,23.252c0.228-0.115,0.456-0.229,0.456-0.229l0,0c0,0,0,0,0.114,0c0,0,0-0.113,0-0.227
			c0-0.228,0-0.684,0-1.14c0-0.343,0-0.568,0-0.797l0.912,0.113c0,0.115,0,0.456,0,0.684c0,0.456,0,0.912,0,1.253
			c-0.114,0.569-0.229,0.684-0.57,0.912l0,0C8.947,23.821,8.605,23.934,8.492,24.049z"/>
	</g>
	<g>
		<path fill="#FFFFFF" d="M14.983,23.593c-0.228-0.114-0.455-0.228-0.569-0.228c-0.228-0.113-0.228-0.113-0.342-0.569
			c-0.115-0.456,0-1.482,0-1.937"/>
		<path fill="#212930" d="M14.756,24.049c-0.228-0.115-0.455-0.228-0.569-0.228l0,0c-0.342-0.229-0.456-0.343-0.569-0.912
			c-0.113-0.341-0.113-0.797,0-1.253c0-0.228,0-0.455,0-0.684l0.911-0.113c0,0.229,0,0.454,0,0.797c0,0.342,0,0.797,0,1.14
			c0,0.113,0,0.227,0,0.227s0,0,0.114,0c0.113,0.114,0.341,0.114,0.569,0.229L14.756,24.049z"/>
	</g>
	<g>
		<line fill="none" x1="7.694" y1="23.593" x2="15.553" y2="23.593"/>
		<rect x="7.694" y="23.137" fill="#212930" width="7.858" height="0.912"/>
	</g>
	<g>
		<path fill="#FFFFFF" d="M3.708,5.37h-2.05c-0.342,0-0.569,0.228-0.569,0.569v12.414h21.07V5.938c0-0.341-0.229-0.569-0.569-0.569
			h-2.05"/>
		<path fill="#212930" d="M22.615,18.809H0.633V5.938c0-0.569,0.456-1.024,1.025-1.024h2.05v0.911h-2.05
			c-0.114,0-0.114,0.114-0.114,0.114v11.96h20.275V5.938c0-0.114-0.115-0.114-0.115-0.114h-2.05V4.914h2.05
			c0.57,0,1.025,0.456,1.025,1.024v12.87H22.615z"/>
	</g>
	<g>
		<rect x="2.683" y="7.078" fill="#E4376E" width="2.62" height="9.567"/>
		<rect x="17.945" y="7.078" fill="#E4376E" width="2.618" height="9.567"/>
	</g>
	<g>
		<g>
			<rect x="17.718" y="5.028" fill="#212930" width="0.91" height="11.617"/>
		</g>
		<g>
			<polygon fill="#212930" points="5.53,16.645 4.619,16.645 4.619,0.7 14.528,0.7 14.528,1.61 5.53,1.61 			"/>
		</g>
		<g>
			<polygon fill="#B4BEBF" points="15.212,4.116 18.628,4.116 15.212,0.7 			"/>
		</g>
		<g>
			<rect x="7.238" y="4.914" fill="#212930" width="4.897" height="0.911"/>
		</g>
		<g>
			<rect x="7.238" y="6.85" fill="#212930" width="8.428" height="0.911"/>
		</g>
		<g>
			<rect x="7.238" y="8.786" fill="#212930" width="8.428" height="0.912"/>
		</g>
		<g>
			<rect x="7.238" y="10.836" fill="#212930" width="8.428" height="0.912"/>
		</g>
		<g>
			<rect x="7.238" y="12.771" fill="#212930" width="8.428" height="0.912"/>
		</g>
		<g>
			<rect x="7.238" y="14.71" fill="#212930" width="8.428" height="0.909"/>
		</g>
	</g>
</g>
</svg>
