<?xml version="1.0" encoding="utf-8"?>
<!-- Generator: Adobe Illustrator 16.0.0, SVG Export Plug-In . SVG Version: 6.00 Build 0)  -->
<!DOCTYPE svg PUBLIC "-//W3C//DTD SVG 1.1//EN" "http://www.w3.org/Graphics/SVG/1.1/DTD/svg11.dtd">
<svg version="1.1" id="Camada_1" xmlns="http://www.w3.org/2000/svg" xmlns:xlink="http://www.w3.org/1999/xlink" x="0px" y="0px"
	 width="24px" height="24px" viewBox="0 0 24 24" enable-background="new 0 0 24 24" xml:space="preserve">
<g>
	<circle fill="#E4376E" cx="11.964" cy="12.979" r="3.183"/>
	<g>
		<g>
			<path fill="#212930" d="M18.768,23.075l-2.635-2.195l0.659-0.769l1.976,1.646l1.646-1.646l-1.756-2.084l0.22-0.33
				c0.549-0.878,0.988-1.756,1.207-2.743l0.109-0.329l2.854-0.22v-2.304l-2.743-0.219l-0.22-0.439
				c-0.219-0.987-0.549-1.866-1.098-2.743L18.877,8.37l1.866-2.195l-1.757-1.646l-2.085,1.756l-0.328-0.11
				c-0.878-0.549-1.757-0.987-2.743-1.208L13.5,4.858l-0.22-2.853h-2.305l-0.219,2.743l-0.329,0.109
				C9.44,5.078,8.562,5.407,7.685,5.956l-0.33,0.219L5.16,4.31L3.514,5.956L5.27,8.042L5.051,8.37
				c-0.549,0.877-0.988,1.755-1.207,2.744l-0.11,0.329l-2.743,0.219v2.304l2.743,0.221l0.11,0.329
				c0.219,0.987,0.548,1.865,1.097,2.742l0.22,0.33l-1.866,2.194l1.646,1.646l1.866-1.535l0.658,0.768L4.94,22.854l-2.853-2.853
				l1.976-2.305c-0.439-0.768-0.769-1.535-0.988-2.413l-2.963-0.221v-4.061l3.073-0.219c0.22-0.878,0.549-1.646,1.097-2.414
				L2.197,5.846l2.854-2.853l2.304,1.975C8.123,4.529,8.891,4.2,9.77,3.98l0.219-2.963h4.06l0.22,3.073
				c0.877,0.22,1.646,0.549,2.414,1.098l2.304-1.865l2.963,2.853L19.975,8.48c0.438,0.768,0.769,1.536,0.987,2.414l2.963,0.22v4.06
				l-3.072,0.219c-0.22,0.878-0.549,1.647-1.098,2.415l1.866,2.304L18.768,23.075z"/>
		</g>
	</g>
	<g>
		<g>
			<path fill="#212930" d="M5.929,13.088H4.94c0-0.219,0-0.328,0-0.548l0.988,0.11C5.929,12.76,5.929,12.869,5.929,13.088z"/>
		</g>
		<g>
			<path fill="#212930" d="M6.038,11.771l-0.987-0.219c0.109-0.33,0.219-0.659,0.329-0.989l0.878,0.33
				C6.258,11.223,6.148,11.442,6.038,11.771z M17.779,11.771c-0.11-0.329-0.11-0.548-0.219-0.769l0.878-0.328
				c0.109,0.328,0.219,0.658,0.329,0.987L17.779,11.771z M6.696,10.125L5.819,9.687c0.219-0.219,0.329-0.549,0.548-0.768
				l0.768,0.549C7.026,9.687,6.806,9.906,6.696,10.125z M17.231,10.125c-0.109-0.219-0.33-0.439-0.439-0.768l0.769-0.549
				c0.219,0.22,0.329,0.549,0.549,0.878L17.231,10.125z M7.685,8.809L7.026,8.15c0.219-0.22,0.438-0.439,0.768-0.659L8.343,8.26
				C8.123,8.37,7.904,8.59,7.685,8.809z M16.133,8.809C15.914,8.59,15.695,8.37,15.476,8.26l0.548-0.769
				c0.22,0.22,0.55,0.439,0.769,0.659L16.133,8.809z M9.111,7.821L8.671,6.944c0.33-0.11,0.549-0.33,0.878-0.439l0.33,0.878
				C9.549,7.492,9.33,7.711,9.111,7.821z M14.816,7.821c-0.219-0.11-0.548-0.219-0.768-0.33l0.329-0.877
				c0.33,0.11,0.658,0.22,0.878,0.438L14.816,7.821z M10.647,7.163l-0.219-0.987c0.329,0,0.658,0,0.987-0.11l0.11,0.987
				C11.196,7.053,10.976,7.163,10.647,7.163z M13.171,7.163c-0.329-0.11-0.549-0.11-0.877-0.11l0.109-0.987
				c0.329,0,0.659,0.11,0.987,0.11L13.171,7.163z"/>
		</g>
		<g>
			<path fill="#212930" d="M18.877,13.088H17.89c0-0.108,0-0.328,0-0.438l0.987-0.11C18.877,12.76,18.877,12.869,18.877,13.088z"/>
		</g>
	</g>
	<g>
		<g>
			<path fill="#212930" d="M11.964,8.59c2.414,0,4.39,1.974,4.39,4.39c0,0-0.11,2.194-1.976,4.608l0,0l0,0
				c-0.22,0.329-0.438,0.769-0.548,1.207h-3.732c-0.109-0.438-0.329-0.878-0.549-1.207l0,0l0,0
				c-1.865-2.414-1.975-4.608-1.975-4.608C7.575,10.564,9.549,8.59,11.964,8.59 M11.964,7.603c-2.963,0-5.377,2.414-5.377,5.377
				c0,0.22,0.109,2.633,2.084,5.267c0.33,0.439,0.439,1.098,0.439,1.646h5.487c0-0.549,0.11-1.207,0.438-1.646
				c1.976-2.634,2.086-5.047,2.086-5.267C17.231,10.016,14.927,7.603,11.964,7.603L11.964,7.603z"/>
			<g>
				<g>
					
						<rect x="10.325" y="13.966" transform="matrix(-0.9945 0.1048 -0.1048 -0.9945 23.3529 32.6309)" fill="#212930" width="0.987" height="5.926"/>
				</g>
				<g>
					
						<rect x="10.131" y="16.401" transform="matrix(-0.1069 0.9943 -0.9943 -0.1069 31.2917 5.6817)" fill="#212930" width="5.926" height="0.987"/>
				</g>
			</g>
			<g>
				<g>
					<rect x="8.453" y="19.344" fill="#212930" width="6.913" height="0.987"/>
				</g>
				<g>
					<rect x="8.453" y="20.989" fill="#212930" width="6.913" height="0.987"/>
				</g>
				<g>
					<rect x="9.659" y="22.526" fill="#212930" width="4.499" height="0.987"/>
				</g>
			</g>
		</g>
	</g>
</g>
</svg>
