<?xml version="1.0" encoding="utf-8"?>
<!-- Generator: Adobe Illustrator 16.0.0, SVG Export Plug-In . SVG Version: 6.00 Build 0)  -->
<!DOCTYPE svg PUBLIC "-//W3C//DTD SVG 1.1//EN" "http://www.w3.org/Graphics/SVG/1.1/DTD/svg11.dtd">
<svg version="1.1" id="Camada_1" xmlns="http://www.w3.org/2000/svg" xmlns:xlink="http://www.w3.org/1999/xlink" x="0px" y="0px"
	 width="24px" height="24px" viewBox="0 0 24 24" enable-background="new 0 0 24 24" xml:space="preserve">
<g>
	<g>
		<path fill="#212930" d="M11.999,7.935h-0.904V5.563c0-0.79,0.678-1.468,1.468-1.468v0.903c-0.339,0-0.564,0.226-0.564,0.564V7.935
			z"/>
	</g>
	<g>
		<g>
			<rect x="1.833" y="19.568" fill="#FFFFFF" width="21.008" height="4.178"/>
			<path fill="#212930" d="M23.406,24.199H1.382v-5.083h22.024V24.199z M2.399,23.182h20.103V20.02H2.399V23.182z"/>
		</g>
		<rect x="3.302" y="20.924" fill="#00A8D6" width="18.184" height="1.355"/>
		<g>
			<rect x="18.55" y="20.472" fill="#212930" width="0.903" height="2.259"/>
		</g>
		<g>
			<rect x="16.969" y="20.472" fill="#212930" width="0.903" height="2.259"/>
		</g>
	</g>
	<g>
		<g>
			<path fill="#FFFFFF" d="M19.566,17.423c0-0.904,0.564-1.694,1.469-2.033l0,0h-5.648H5.223c-1.13,0-2.034,0.903-2.034,2.033
				c0,1.129,0.904,2.032,2.034,2.032h10.164h5.648v-0.112C20.131,19.116,19.566,18.325,19.566,17.423z"/>
			<path fill="#212930" d="M21.373,20.02H5.109c-1.468,0-2.598-1.129-2.598-2.597c0-1.469,1.13-2.598,2.598-2.598h16.377v0.903
				l-0.34,0.112c-0.677,0.227-1.129,0.791-1.129,1.582c0,0.677,0.452,1.354,1.129,1.581l0.34,0.112v0.903H21.373z M5.109,15.841
				c-0.904,0-1.582,0.678-1.582,1.582c0,0.902,0.678,1.581,1.582,1.581h14.569c-0.339-0.452-0.564-1.017-0.564-1.581
				c0-0.565,0.226-1.13,0.564-1.582H5.109z"/>
		</g>
		<g>
			<rect x="5.109" y="16.519" fill="#212930" width="14.683" height="0.904"/>
		</g>
	</g>
	<polygon fill="#E4376E" points="8.046,21.037 6.578,20.133 5.109,21.037 5.109,17.535 6.578,17.535 8.046,17.535 	"/>
	<path fill="#E4376E" d="M13.807,6.579h-0.113c-0.791,0-1.469,0.339-2.146,0.905c-0.564-0.566-1.355-0.905-2.146-0.905H9.289
		c-1.355,0.113-2.711,1.13-2.598,2.373c0.113,1.129,0.339,2.371,0.678,3.501c0.564,1.354,1.92,2.373,2.823,2.373
		c0.339,0,0.678,0,1.017,0c0.113-0.113,0.226-0.227,0.338-0.34c0.113,0.113,0.226,0.227,0.339,0.34c0.339,0,0.678,0,1.017,0
		c1.018,0,2.373-1.019,2.824-2.373c0.338-1.13,0.678-2.372,0.678-3.501C16.518,7.709,15.162,6.805,13.807,6.579z"/>
	<g>
		<path fill="none" stroke="#FFFFFF" stroke-width="4" d="M9.514,8.048"/>
	</g>
	<g>
		<path fill="#FFFFFF" d="M7.707,9.743C7.594,9.629,7.481,9.291,7.594,8.726c0.113-0.565,0.791-1.017,1.807-1.13L9.514,8.5
			C8.836,8.613,8.611,8.838,8.611,8.952c0,0.226,0,0.339,0,0.339v0.113L8.159,9.629L7.707,9.743z"/>
	</g>
	<g>
		<g>
			<path fill="#212930" d="M20.582,14.372l-0.903-0.338c0-0.113,0.113-0.228,0.113-0.451l0.903,0.338
				C20.695,14.034,20.695,14.147,20.582,14.372z"/>
		</g>
		<g>
			<path fill="#212930" d="M21.035,12.905l-0.904-0.228c0.113-0.337,0.113-0.564,0.113-0.903l0.902,0.112
				C21.146,12.227,21.146,12.564,21.035,12.905z M2.511,12.791c-0.112-0.338-0.112-0.677-0.112-1.016l0.903-0.112
				c0,0.338,0.113,0.564,0.113,0.902L2.511,12.791z M20.356,10.872L20.356,10.872c0-0.339,0-0.678,0-0.903l0.903-0.113
				c0,0.339,0,0.678,0,1.017H20.356z M3.302,10.758H2.286c0-0.338,0-0.678,0-1.016l0.903,0.112
				C3.302,10.194,3.302,10.533,3.302,10.758z M20.131,8.952c-0.113-0.339-0.113-0.564-0.226-0.903l0.903-0.339
				c0.113,0.339,0.227,0.678,0.227,1.017L20.131,8.952z M3.416,8.952L2.511,8.726c0.113-0.339,0.113-0.678,0.227-1.017l0.903,0.339
				C3.641,8.387,3.528,8.613,3.416,8.952z M19.566,7.257c-0.113-0.226-0.227-0.565-0.452-0.791l0.791-0.452
				c0.226,0.339,0.339,0.564,0.451,0.903L19.566,7.257z M4.093,7.257L3.189,6.805C3.302,6.467,3.528,6.24,3.641,5.901l0.904,0.452
				C4.319,6.692,4.206,6.918,4.093,7.257z M18.663,5.676c-0.227-0.226-0.339-0.452-0.565-0.678l0.678-0.678
				c0.227,0.226,0.452,0.564,0.678,0.791L18.663,5.676z M4.997,5.676L4.206,5.111C4.431,4.885,4.658,4.546,4.884,4.32l0.678,0.678
				C5.448,5.111,5.223,5.337,4.997,5.676z M17.307,4.32c-0.225-0.226-0.451-0.339-0.789-0.564l0.677-0.791
				c0.226,0.227,0.565,0.452,0.79,0.678L17.307,4.32z M6.239,4.32L5.674,3.53C5.9,3.304,6.239,3.191,6.465,2.965L7.03,3.756
				C6.804,3.869,6.578,4.095,6.239,4.32z M15.84,3.304c-0.34-0.226-0.564-0.339-0.904-0.451l0.34-0.903
				c0.338,0.112,0.676,0.226,0.902,0.451L15.84,3.304z M7.82,3.304l-0.451-0.79C7.707,2.4,7.933,2.175,8.272,2.062l0.339,0.903
				C8.385,2.965,8.046,3.078,7.82,3.304z M14.145,2.626C13.807,2.514,13.58,2.514,13.242,2.4l0.113-0.903
				c0.338,0,0.676,0.113,1.016,0.226L14.145,2.626z M9.514,2.626L9.289,1.61c0.338-0.113,0.677-0.113,1.016-0.227L10.417,2.4
				C10.079,2.4,9.853,2.514,9.514,2.626z M12.225,2.288c-0.339,0-0.565,0-0.903,0V1.384c0.338,0,0.678,0,1.017,0L12.225,2.288z"/>
		</g>
		<g>
			<path fill="#212930" d="M2.963,14.372c-0.113-0.111-0.113-0.338-0.226-0.451l0.903-0.338c0,0.113,0.112,0.338,0.112,0.451
				L2.963,14.372z"/>
		</g>
	</g>
</g>
</svg>
