<?xml version="1.0" encoding="utf-8"?>
<!-- Generator: Adobe Illustrator 16.0.0, SVG Export Plug-In . SVG Version: 6.00 Build 0)  -->
<!DOCTYPE svg PUBLIC "-//W3C//DTD SVG 1.1//EN" "http://www.w3.org/Graphics/SVG/1.1/DTD/svg11.dtd">
<svg version="1.1" id="Camada_1" xmlns="http://www.w3.org/2000/svg" xmlns:xlink="http://www.w3.org/1999/xlink" x="0px" y="0px"
	 width="24px" height="24px" viewBox="0 0 24 24" enable-background="new 0 0 24 24" xml:space="preserve">
<g>
	<g>
		<circle fill="#AAB4B5" cx="3.221" cy="18.381" r="7.708"/>
		<g>
			<circle fill="#FFFFFF" cx="3.221" cy="17.387" r="2.735"/>
			<path fill="#212930" d="M3.221,21.116c-1.988,0-3.729-1.74-3.729-3.729c0-1.987,1.74-3.728,3.729-3.728
				c1.989,0,3.729,1.74,3.729,3.728C6.949,19.625,5.21,21.116,3.221,21.116z M3.221,15.896c-0.995,0-1.74,0.747-1.74,1.74
				c0,0.994,0.746,1.74,1.74,1.74c0.994,0,1.741-0.746,1.741-1.74C4.962,16.643,4.214,15.896,3.221,15.896z"/>
		</g>
		<g>
			<path fill="#FFFFFF" d="M5.21,20.37H1.232c-1.492,0-2.735,1.243-2.735,2.735v0.248c1.492,0.993,2.983,1.739,4.723,1.739
				c1.741,0,3.48-0.746,4.723-1.739v-0.248C7.944,21.613,6.701,20.37,5.21,20.37z"/>
			<path fill="#212930" d="M3.221,26.089c-1.988,0-3.977-0.746-5.22-1.989l-0.25-0.248v-0.746c0-1.989,1.741-3.729,3.729-3.729
				h3.978c1.989,0,3.729,1.74,3.729,3.729v0.746L8.939,24.1C7.199,25.343,5.21,26.089,3.221,26.089z M-0.259,22.856
				C0.735,23.603,1.978,24.1,3.469,24.1c1.243,0,2.735-0.497,3.729-1.243c0-0.746-0.746-1.491-1.74-1.491H1.232
				C0.486,21.365-0.259,22.11-0.259,22.856z"/>
		</g>
	</g>
	<g>
		<path fill="#FFFFFF" d="M14.503,1.15C9.894,1.338,6.355,5.178,6.544,9.788c0.08,1.959,0.848,3.773,2.056,5.109l-0.385,1.865
			l1.825-0.537c1.431,1.096,3.303,1.711,5.263,1.633c4.609-0.191,8.146-4.029,7.957-8.639C22.953,4.499,19.112,0.961,14.503,1.15z"
			/>
		<path fill="#212930" d="M15.201,18.21c-1.96,0.08-3.711-0.428-5.372-1.514l-2.397,0.676l0.477-2.443
			c-1.214-1.453-1.866-3.272-1.946-5.233c-0.198-4.839,3.562-8.919,8.4-9.117c4.841-0.198,8.92,3.56,9.118,8.398
			C23.8,13.931,20.041,18.009,15.201,18.21z M10.017,15.649l0.235,0.105c1.432,1.096,3.184,1.602,4.911,1.531
			c4.381-0.182,7.691-3.895,7.516-8.159c-0.178-4.379-3.894-7.69-8.157-7.516c-4.381,0.179-7.691,3.894-7.517,8.158
			c0.076,1.845,0.719,3.435,1.927,4.769l0.125,0.227l-0.295,1.281L10.017,15.649z"/>
	</g>
	<circle fill="#E4376E" cx="14.842" cy="9.449" r="6.69"/>
	<g>
		<path d="M12.142,7.523c0-0.35,0.112-0.704,0.337-1.063s0.551-0.656,0.982-0.892c0.43-0.236,0.933-0.354,1.506-0.354
			c0.535,0,1.006,0.098,1.414,0.295s0.725,0.465,0.947,0.804c0.223,0.338,0.334,0.706,0.334,1.104c0,0.313-0.063,0.587-0.191,0.823
			c-0.126,0.235-0.277,0.439-0.452,0.61c-0.175,0.171-0.488,0.459-0.941,0.864c-0.125,0.113-0.225,0.214-0.301,0.301
			c-0.075,0.086-0.131,0.167-0.168,0.237c-0.037,0.072-0.066,0.145-0.086,0.216c-0.02,0.072-0.05,0.197-0.091,0.379
			c-0.07,0.382-0.289,0.574-0.656,0.574c-0.192,0-0.354-0.062-0.484-0.188c-0.131-0.125-0.196-0.311-0.196-0.559
			c0-0.309,0.049-0.576,0.145-0.803c0.097-0.226,0.223-0.425,0.381-0.595c0.157-0.171,0.371-0.375,0.641-0.611
			c0.235-0.206,0.405-0.361,0.51-0.466c0.105-0.105,0.194-0.222,0.266-0.351s0.107-0.269,0.107-0.42c0-0.294-0.11-0.542-0.329-0.746
			c-0.218-0.202-0.501-0.303-0.848-0.303c-0.404,0-0.701,0.102-0.894,0.306c-0.191,0.204-0.353,0.505-0.486,0.903
			c-0.124,0.416-0.362,0.624-0.712,0.624c-0.206,0-0.381-0.073-0.521-0.218C12.211,7.85,12.142,7.692,12.142,7.523z M14.836,13.574
			c-0.225,0-0.421-0.073-0.59-0.219c-0.166-0.146-0.25-0.348-0.25-0.609c0-0.23,0.081-0.426,0.243-0.584
			c0.162-0.159,0.36-0.237,0.597-0.237c0.231,0,0.426,0.078,0.585,0.237c0.158,0.158,0.237,0.354,0.237,0.584
			c0,0.258-0.083,0.461-0.249,0.607C15.244,13.501,15.053,13.574,14.836,13.574z"/>
	</g>
</g>
</svg>
