<?xml version="1.0" encoding="utf-8"?>
<!-- Generator: Adobe Illustrator 16.0.0, SVG Export Plug-In . SVG Version: 6.00 Build 0)  -->
<!DOCTYPE svg PUBLIC "-//W3C//DTD SVG 1.1//EN" "http://www.w3.org/Graphics/SVG/1.1/DTD/svg11.dtd">
<svg version="1.1" id="Camada_1" xmlns="http://www.w3.org/2000/svg" xmlns:xlink="http://www.w3.org/1999/xlink" x="0px" y="0px"
	 width="24px" height="24px" viewBox="0 0 24 24" enable-background="new 0 0 24 24" xml:space="preserve">
<g>
	<g>
		<g>
			<g>
				<polygon fill="#212930" points="0.296,23.581 1.584,19.457 2.101,18.941 2.745,19.586 2.358,19.844 1.713,22.163 4.033,21.519 
					4.291,21.262 4.936,21.906 4.548,22.292 				"/>
			</g>
			<g>
				
					<rect x="0.447" y="11.167" transform="matrix(-0.7071 0.7071 -0.7071 -0.7071 28.1682 13.8876)" fill="#FFFFFF" width="21.522" height="3.221"/>
				<path fill="#212930" d="M17.564,4.637l1.677,1.676L4.678,20.875L3.002,19.2L17.564,4.637 M17.564,3.348L1.713,19.2l2.964,2.963
					L20.529,6.313L17.564,3.348L17.564,3.348z"/>
			</g>
			<g>
				
					<rect x="0.69" y="12.137" transform="matrix(-0.7071 0.7071 -0.7071 -0.7071 28.2292 13.4841)" fill="#212930" width="21.263" height="0.903"/>
			</g>
			<g>
				<path fill="#FFFFFF" d="M21.56,4.508l0.902-0.902c0.13-0.129,0.13-0.258,0-0.515l-1.805-1.805c-0.128-0.129-0.386-0.129-0.515,0
					l-0.901,0.901"/>
				<path fill="#212930" d="M21.946,4.895L21.303,4.25l0.772-0.773L20.529,1.93l-0.773,0.773L19.111,2.06l0.901-0.903
					c0.13-0.128,0.259-0.258,0.517-0.258l0,0c0.258,0,0.387,0.129,0.645,0.258l1.804,1.804c0.259,0.258,0.387,0.773,0,1.16
					L21.946,4.895z"/>
			</g>
			
				<rect x="17.976" y="2.698" transform="matrix(-0.7069 0.7073 -0.7073 -0.7069 36.1403 -5.4543)" fill="#E4376E" width="2.449" height="4.125"/>
		</g>
	</g>
	<g>
		<polygon fill="#E4376E" points="11.547,0.598 1.549,0.598 1.549,9.126 3.167,9.126 5.373,11.478 5.373,9.126 11.547,9.126 		"/>
	</g>
	<g>
		<polygon fill="#AAB4B5" points="12.625,23.452 22.946,23.452 22.946,14.517 21.405,14.517 18.942,12.205 18.942,14.517 
			12.625,14.517 		"/>
	</g>
	<g>
		<g>
			<path fill="#212930" d="M6.843,7.509c-1.617,0-2.794-1.322-2.794-2.94c0-1.618,1.177-2.794,2.794-2.794s2.794,1.324,2.794,2.794
				C9.637,6.038,8.46,7.509,6.843,7.509z M6.843,2.803c-1.03,0-1.764,0.736-1.764,1.765s0.734,1.764,1.764,1.764
				c1.029,0,1.764-0.734,1.764-1.764S7.872,2.803,6.843,2.803z"/>
		</g>
		<g>
			
				<rect x="7.927" y="5.319" transform="matrix(-0.7066 0.7076 -0.7076 -0.7066 18.8985 4.8618)" fill="#212930" width="1.03" height="2.058"/>
		</g>
	</g>
	<g>
		<path fill="#212930" d="M15.553,21.757l-0.926-0.616l2.927-4.929c0.154-0.154,0.31-0.309,0.463-0.309s0.308,0.154,0.463,0.309
			l2.926,4.929l-1.077,0.616l-2.465-4.159L15.553,21.757z"/>
	</g>
	<g>
		<rect x="15.86" y="19.6" fill="#212930" width="4.005" height="1.08"/>
	</g>
</g>
</svg>
