<?xml version="1.0" encoding="utf-8"?>
<!-- Generator: Adobe Illustrator 16.0.0, SVG Export Plug-In . SVG Version: 6.00 Build 0)  -->
<!DOCTYPE svg PUBLIC "-//W3C//DTD SVG 1.1//EN" "http://www.w3.org/Graphics/SVG/1.1/DTD/svg11.dtd">
<svg version="1.1" id="Camada_1" xmlns="http://www.w3.org/2000/svg" xmlns:xlink="http://www.w3.org/1999/xlink" x="0px" y="0px"
	 width="24px" height="24px" viewBox="0 0 24 24" enable-background="new 0 0 24 24" xml:space="preserve">
<g>
	<g>
		<g>
			<path fill="#212930" d="M15.69,17.915H8.31L7.876,17.48c-0.108-0.868-0.217-1.519-0.542-1.953
				c-2.931-3.69-3.039-7.271-3.039-7.38c0-4.232,3.473-7.706,7.706-7.706s7.706,3.474,7.706,7.706c0,0-0.108,3.581-3.039,7.38
				c-0.325,0.435-0.435,1.085-0.542,1.953L15.69,17.915z M8.744,17.047h6.512c0.109-0.868,0.326-1.52,0.651-1.953
				c2.714-3.474,2.821-6.729,2.821-6.838c0-3.69-3.038-6.729-6.729-6.729c-3.69,0-6.729,3.039-6.729,6.729
				c0,0,0.109,3.256,2.822,6.838C8.418,15.527,8.636,16.179,8.744,17.047z"/>
		</g>
		<g>
			<g>
				<rect x="7.333" y="17.155" fill="#212930" width="9.442" height="0.977"/>
			</g>
			<g>
				<rect x="7.333" y="18.892" fill="#212930" width="9.442" height="0.977"/>
			</g>
			<g>
				<rect x="7.333" y="20.736" fill="#212930" width="9.442" height="0.978"/>
			</g>
			<g>
				<rect x="8.636" y="22.582" fill="#212930" width="6.837" height="0.977"/>
			</g>
			<g>
				<rect x="7.876" y="17.698" fill="#212930" width="0.977" height="3.473"/>
			</g>
		</g>
	</g>
	<circle fill="#E4376E" cx="12" cy="8.147" r="5.209"/>
	<g>
		<g>
			<polyline fill="#FFFFFF" points="10.264,9.341 10.264,8.798 12,5.65 13.736,8.798 13.736,9.341 			"/>
			<polygon fill="#212930" points="14.171,9.341 13.193,9.341 13.193,8.906 12,6.628 10.806,8.906 10.806,9.341 9.83,9.341 
				9.83,8.689 12,4.674 14.171,8.689 			"/>
		</g>
		<g>
			<rect x="10.264" y="9.341" fill="#00A087" width="3.473" height="8.248"/>
			<path fill="#212930" d="M13.303,9.884v7.271h-2.605V9.884H13.303 M14.279,8.906H9.83v9.226h4.45V8.906L14.279,8.906z"/>
		</g>
		<g>
			<rect x="11.566" y="9.884" fill="#212930" width="0.977" height="7.705"/>
		</g>
	</g>
</g>
</svg>
