<?xml version="1.0" encoding="utf-8"?>
<!-- Generator: Adobe Illustrator 16.0.0, SVG Export Plug-In . SVG Version: 6.00 Build 0)  -->
<!DOCTYPE svg PUBLIC "-//W3C//DTD SVG 1.1//EN" "http://www.w3.org/Graphics/SVG/1.1/DTD/svg11.dtd">
<svg version="1.1" id="Camada_1" xmlns="http://www.w3.org/2000/svg" xmlns:xlink="http://www.w3.org/1999/xlink" x="0px" y="0px"
	 width="24px" height="24px" viewBox="0 0 24 24" enable-background="new 0 0 24 24" xml:space="preserve">
<g>
	<g>
		<rect x="1.058" y="5.82" fill="#FFFFFF" width="21.886" height="15.082"/>
		<path fill="#212930" d="M23.283,21.241H0.604V5.367h22.792v15.875H23.283z M1.398,20.447h20.977V6.161H1.398V20.447z"/>
	</g>
	<g>
		<line fill="none" x1="2.985" y1="17.726" x2="11.943" y2="17.726"/>
		<rect x="2.985" y="17.272" fill="#212930" width="8.958" height="0.907"/>
	</g>
	<g>
		<line fill="none" x1="2.985" y1="13.87" x2="14.893" y2="13.87"/>
		<rect x="2.985" y="13.417" fill="#212930" width="11.907" height="0.907"/>
	</g>
	<g>
		<line fill="none" x1="14.893" y1="15.798" x2="2.985" y2="15.798"/>
		<rect x="2.985" y="15.345" fill="#212930" width="11.907" height="0.907"/>
	</g>
	<g>
		<line fill="none" x1="2.985" y1="11.942" x2="14.893" y2="11.942"/>
		<rect x="2.985" y="11.489" fill="#212930" width="11.907" height="0.907"/>
	</g>
	<g>
		<rect x="1.058" y="3.212" fill="#FFFFFF" width="21.886" height="2.494"/>
		<path fill="#212930" d="M23.283,6.161H0.604V2.758h22.792v3.402H23.283z M1.398,5.367h20.977V3.666H1.398V5.367z"/>
	</g>
	<g>
		<line fill="none" x1="1.965" y1="4.459" x2="2.872" y2="4.459"/>
		<rect x="1.965" y="4.005" fill="#212930" width="0.793" height="0.907"/>
	</g>
	<g>
		<line fill="none" x1="3.439" y1="4.459" x2="4.232" y2="4.459"/>
		<rect x="3.439" y="4.005" fill="#212930" width="0.793" height="0.907"/>
	</g>
	<g>
		<line fill="none" x1="4.913" y1="4.459" x2="5.707" y2="4.459"/>
		<rect x="4.913" y="4.005" fill="#212930" width="0.793" height="0.907"/>
	</g>
	<g>
		<rect x="2.985" y="7.974" fill="#E4376E" width="7.371" height="1.701"/>
	</g>
</g>
</svg>
