<?xml version="1.0" encoding="utf-8"?>
<!-- Generator: Adobe Illustrator 16.0.0, SVG Export Plug-In . SVG Version: 6.00 Build 0)  -->
<!DOCTYPE svg PUBLIC "-//W3C//DTD SVG 1.1//EN" "http://www.w3.org/Graphics/SVG/1.1/DTD/svg11.dtd">
<svg version="1.1" id="Camada_1" xmlns="http://www.w3.org/2000/svg" xmlns:xlink="http://www.w3.org/1999/xlink" x="0px" y="0px"
	 width="24px" height="24px" viewBox="0 0 24 24" enable-background="new 0 0 24 24" xml:space="preserve">
<g>
	<g>
		<g>
			<path fill="#FFFFFF" d="M12.718,21.16H4.815c-0.479,0-0.838-0.359-0.838-0.838V1.764c0-0.479,0.359-0.838,0.838-0.838h13.169
				c0.479,0,0.839,0.359,0.839,0.838v11.014"/>
			<path fill="#212930" d="M12.718,21.52H4.815c-0.718,0-1.197-0.6-1.197-1.197V1.764c0-0.719,0.599-1.197,1.197-1.197h13.169
				c0.719,0,1.198,0.598,1.198,1.197v11.014h-0.958V1.764c0-0.12-0.119-0.359-0.359-0.359H4.815c-0.12,0-0.359,0.12-0.359,0.359
				v18.559c0,0.119,0.119,0.359,0.359,0.359h7.902V21.52z"/>
		</g>
		<rect x="5.175" y="3.2" fill="#E4376E" width="12.451" height="16.163"/>
		<g>
			<line fill="none" x1="11.999" y1="2.242" x2="10.802" y2="2.242"/>
			<rect x="10.802" y="1.764" fill="#212930" width="1.197" height="0.958"/>
		</g>
	</g>
	<g>
		<path fill="#FFFFFF" d="M21.098,24.033v-1.197c0.599-0.479,0.958-1.197,0.958-2.035V16.49v-0.957c0-0.48-0.359-0.957-0.958-0.957
			s-0.958,0.238-0.958,0.717v-0.119c0-0.479-0.359-0.957-0.957-0.957c-0.479,0-0.958,0.359-0.958,0.957v-0.479
			c0-0.479-0.359-0.959-0.958-0.959c-0.479,0-0.958,0.359-0.958,0.959v0.479c0-1.197,0-5.269,0-5.269
			c0-0.479-0.479-0.958-0.957-0.958s-0.958,0.479-0.958,0.958v9.339v-0.479V16.85c0-0.838-0.599-1.438-1.437-1.438h-0.479l0,0v1.797
			l0,0v2.395l2.634,3.232c0,0,0.719,0.479,1.078,0.598v0.719"/>
		<path fill="#212930" d="M21.577,24.033h-0.958v-1.438l0.239-0.119c0.479-0.359,0.838-0.957,0.838-1.557v-4.311v-0.957
			c0-0.24-0.239-0.479-0.479-0.479c-0.479,0-0.479,0.119-0.479,0.238l0,0H19.78v-0.238c0-0.24-0.238-0.479-0.479-0.479
			c-0.239,0-0.479,0.238-0.479,0.479h-0.839v-0.479c0-0.24-0.238-0.479-0.479-0.479c-0.239,0-0.479,0.238-0.479,0.479v0.479l0,0
			h-0.958c0-1.197,0-5.269,0-5.269c0-0.24-0.239-0.479-0.479-0.479s-0.479,0.239-0.479,0.479v9.339h-0.957v-0.479V16.85
			c0-0.479-0.359-0.957-0.958-0.957v1.197v0.359l0,0v1.795l2.514,2.992c0.24,0.121,0.719,0.359,0.958,0.48l0.359,0.119v1.197h-0.958
			v-0.479c-0.359-0.121-0.838-0.479-0.958-0.479h-0.119l-2.874-3.354v-2.514V16.85l0,0v-0.957l0,0v-0.6v-0.359l0,0l0,0h1.078
			c0.359,0,0.718,0.119,0.958,0.24V9.785c0-0.837,0.599-1.437,1.437-1.437s1.437,0.599,1.437,1.437l0,0c0,0,0,1.916,0,3.473
			c0.12,0,0.239-0.121,0.479-0.121c0.479,0,0.958,0.24,1.197,0.6c0.239-0.119,0.479-0.119,0.719-0.119c0.479,0,0.838,0.24,1.077,0.6
			c0.239-0.121,0.479-0.121,0.719-0.121c0.718,0,1.437,0.6,1.437,1.438v0.957v4.311c0,0.838-0.359,1.676-0.958,2.154v1.078H21.577z"
			/>
	</g>
	<g>
		<g>
			<path fill="#FFFFFF" d="M3.379,11.701L3.379,11.701h3.112c0,0,0,0,0,0.12v0.479c0,0.837-0.718,1.558-1.556,1.558H4.576
				l-0.479,1.436c0.958,0.719,1.676,2.156,1.676,3.711c0,1.197-0.359,2.275-1.078,3.113H1.942v-7.303L3.379,11.701z"/>
			<path fill="#212930" d="M4.935,22.596H1.463v-7.781l1.557-3.593h3.831v0.479v0.12v0.479c0,1.078-0.958,2.037-2.035,2.037l0,0
				l-0.24,0.838c0.958,0.838,1.557,2.275,1.557,3.83c0,1.318-0.359,2.516-1.078,3.354L4.935,22.596z M2.421,21.639h2.035
				c0.479-0.719,0.838-1.676,0.838-2.635c0-1.436-0.599-2.633-1.437-3.352l-0.24-0.24l0.719-2.154h0.718
				c0.599,0,1.078-0.48,1.078-1.079V12.06H3.738l-1.197,2.754v6.824H2.421z"/>
		</g>
	</g>
	<polyline fill="#AAB4B5" points="8.048,24.033 8.048,21.639 0.745,21.639 0.745,24.033 	"/>
	<g>
		<path fill="#212930" d="M10.802,8.468H6.132v-4.31h4.669V8.468z M6.971,7.51h2.873V5.116H6.971V7.51L6.971,7.51z"/>
	</g>
	<g>
		<rect x="6.013" y="9.306" fill="#212930" width="7.183" height="0.958"/>
	</g>
	<g>
		<rect x="7.689" y="11.221" fill="#212930" width="5.507" height="0.958"/>
	</g>
	<g>
		<rect x="7.689" y="13.137" fill="#212930" width="5.507" height="0.959"/>
	</g>
	<g>
		<rect x="6.013" y="15.053" fill="#212930" width="5.388" height="0.959"/>
	</g>
</g>
</svg>
