<?xml version="1.0" encoding="utf-8"?>
<!-- Generator: Adobe Illustrator 16.0.0, SVG Export Plug-In . SVG Version: 6.00 Build 0)  -->
<!DOCTYPE svg PUBLIC "-//W3C//DTD SVG 1.1//EN" "http://www.w3.org/Graphics/SVG/1.1/DTD/svg11.dtd">
<svg version="1.1" id="Camada_1" xmlns="http://www.w3.org/2000/svg" xmlns:xlink="http://www.w3.org/1999/xlink" x="0px" y="0px"
	 width="24px" height="24px" viewBox="0 0 24 24" enable-background="new 0 0 24 24" xml:space="preserve">
<g>
	<g>
		<g>
			<g>
				<path fill="#FFFFFF" d="M18.828,23.158c0,0.16-0.13,0.291-0.291,0.291H1.051c-0.16,0-0.291-0.131-0.291-0.291v-7.195
					c0-0.16,0.131-0.291,0.291-0.291h17.486c0.161,0,0.291,0.131,0.291,0.291V23.158z"/>
				<path fill="#282D33" d="M18.537,23.918H1.051c-0.419,0-0.761-0.34-0.761-0.76v-7.195c0-0.42,0.342-0.762,0.761-0.762h17.486
					c0.419,0,0.761,0.342,0.761,0.762v7.195C19.298,23.578,18.956,23.918,18.537,23.918z M1.231,22.98h17.127v-6.84H1.231V22.98z"/>
			</g>
			<g>
				<g>
					<g>
						<line fill="#FFFFFF" x1="2.231" y1="17.654" x2="3.602" y2="17.654"/>
						<rect x="2.231" y="17.184" fill="#E4376E" width="1.371" height="0.941"/>
					</g>
					<g>
						<line fill="#FFFFFF" x1="4.524" y1="17.654" x2="5.895" y2="17.654"/>
						<rect x="4.524" y="17.184" fill="#34CA9D" width="1.37" height="0.941"/>
					</g>
					<g>
						<line fill="#FFFFFF" x1="6.817" y1="17.654" x2="8.187" y2="17.654"/>
						<rect x="6.817" y="17.184" fill="#E4376E" width="1.37" height="0.941"/>
					</g>
					<g>
						<line fill="#FFFFFF" x1="9.109" y1="17.654" x2="10.479" y2="17.654"/>
						<rect x="9.109" y="17.184" fill="#E4376E" width="1.37" height="0.941"/>
					</g>
					<g>
						<line fill="#FFFFFF" x1="11.402" y1="17.654" x2="12.772" y2="17.654"/>
						<rect x="11.402" y="17.184" fill="#E4376E" width="1.37" height="0.941"/>
					</g>
					<g>
						<line fill="#FFFFFF" x1="13.694" y1="17.654" x2="15.065" y2="17.654"/>
						<rect x="13.694" y="17.184" fill="#E4376E" width="1.371" height="0.941"/>
					</g>
					<g>
						<line fill="#FFFFFF" x1="15.987" y1="17.654" x2="17.356" y2="17.654"/>
						<rect x="15.987" y="17.184" fill="#E4376E" width="1.369" height="0.941"/>
					</g>
				</g>
				<g>
					<g>
						<line fill="#FFFFFF" x1="2.231" y1="19.561" x2="3.602" y2="19.561"/>
						<rect x="2.231" y="19.092" fill="#34CA9D" width="1.371" height="0.939"/>
					</g>
					<g>
						<line fill="#FFFFFF" x1="4.524" y1="19.561" x2="5.895" y2="19.561"/>
						<rect x="4.524" y="19.092" fill="#34CA9D" width="1.37" height="0.939"/>
					</g>
					<g>
						<line fill="#FFFFFF" x1="6.817" y1="19.561" x2="8.187" y2="19.561"/>
						<rect x="6.817" y="19.092" fill="#34CA9D" width="1.37" height="0.939"/>
					</g>
					<g>
						<line fill="#FFFFFF" x1="9.109" y1="19.561" x2="10.479" y2="19.561"/>
						<rect x="9.109" y="19.092" fill="#E4376E" width="1.37" height="0.939"/>
					</g>
					<g>
						<line fill="#FFFFFF" x1="11.402" y1="19.561" x2="12.772" y2="19.561"/>
						<rect x="11.402" y="19.092" fill="#E4376E" width="1.37" height="0.939"/>
					</g>
					<g>
						<line fill="#FFFFFF" x1="13.694" y1="19.561" x2="15.065" y2="19.561"/>
						<rect x="13.694" y="19.092" fill="#E4376E" width="1.371" height="0.939"/>
					</g>
					<g>
						<line fill="#FFFFFF" x1="15.987" y1="19.561" x2="17.356" y2="19.561"/>
						<rect x="15.987" y="19.092" fill="#E4376E" width="1.369" height="0.939"/>
					</g>
				</g>
				<g>
					<g>
						<line fill="#FFFFFF" x1="2.231" y1="21.467" x2="3.602" y2="21.467"/>
						<rect x="2.231" y="20.996" fill="#E4376E" width="1.371" height="0.941"/>
					</g>
					<g>
						<line fill="#FFFFFF" x1="4.524" y1="21.467" x2="5.895" y2="21.467"/>
						<rect x="4.524" y="20.996" fill="#E4376E" width="1.37" height="0.941"/>
					</g>
					<g>
						<line fill="#FFFFFF" x1="6.817" y1="21.467" x2="15.085" y2="21.467"/>
						<rect x="6.817" y="20.996" fill="#E4376E" width="8.268" height="0.941"/>
					</g>
					<g>
						<line fill="#FFFFFF" x1="15.987" y1="21.467" x2="17.356" y2="21.467"/>
						<rect x="15.987" y="20.996" fill="#E4376E" width="1.369" height="0.941"/>
					</g>
				</g>
			</g>
		</g>
	</g>
	<g>
		<g>
			<rect x="8.63" y="7.248" fill="#282D33" width="0.47" height="0.94"/>
		</g>
		<g>
			<path fill="#282D33" d="M12.981,13.523h-0.953v-0.94h0.953V13.523z M11.074,13.523H10.12v-0.94h0.954V13.523z M9.166,13.523
				H8.212v-0.94h0.954V13.523z M7.258,13.523H6.304v-0.94h0.954V13.523z M5.35,13.523H4.504c-0.042,0-0.084,0-0.126-0.002
				l0.036-0.94c0.03,0.001,0.06,0.002,0.09,0.002H5.35V13.523z M3.288,13.279c-0.345-0.146-0.661-0.352-0.935-0.609l0.644-0.685
				c0.193,0.182,0.413,0.325,0.655,0.427L3.288,13.279z M1.69,11.773c-0.167-0.337-0.27-0.699-0.308-1.074l0.936-0.093
				c0.026,0.261,0.098,0.514,0.215,0.75L1.69,11.773z M2.378,9.827L1.469,9.588C1.564,9.225,1.723,8.884,1.94,8.577L2.708,9.12
				C2.556,9.334,2.445,9.573,2.378,9.827z M3.266,8.57L2.735,7.794c0.312-0.212,0.654-0.366,1.019-0.455l0.224,0.913
				C3.723,8.314,3.483,8.421,3.266,8.57z M7.676,8.188H6.722v-0.94h0.954V8.188z M5.768,8.188H4.814v-0.94h0.954V8.188z"/>
		</g>
		<g>
			<rect x="13.941" y="12.583" fill="#282D33" width="0.47" height="0.94"/>
		</g>
	</g>
	<g>
		<g>
			<rect x="9.842" y="12.348" fill="#282D33" width="0.47" height="0.941"/>
		</g>
		<g>
			<path fill="#282D33" d="M21.008,17.988h-0.591v-0.939h0.591c0.092,0,0.184-0.008,0.274-0.02l0.137,0.93
				C21.282,17.979,21.145,17.988,21.008,17.988z M22.467,17.582l-0.487-0.803c0.215-0.131,0.398-0.299,0.547-0.502l0.759,0.555
				C23.063,17.137,22.788,17.389,22.467,17.582z M23.752,15.82l-0.915-0.217c0.033-0.143,0.052-0.289,0.052-0.436
				c0-0.102-0.009-0.205-0.025-0.307l0.928-0.152c0.024,0.152,0.037,0.307,0.037,0.459C23.828,15.389,23.802,15.607,23.752,15.82z
				 M22.601,14.168c-0.134-0.213-0.307-0.393-0.512-0.539l0.542-0.768c0.307,0.218,0.565,0.488,0.766,0.807L22.601,14.168z
				 M21.41,13.331c-0.131-0.028-0.267-0.042-0.402-0.042h-0.427v-0.941h0.427c0.202,0,0.406,0.022,0.603,0.065L21.41,13.331z
				 M19.648,13.289h-0.934v-0.941h0.934V13.289z M17.781,13.289h-0.934v-0.941h0.934V13.289z M15.913,13.289H14.98v-0.941h0.933
				V13.289z M14.047,13.289h-0.934v-0.941h0.934V13.289z M12.18,13.289h-0.934v-0.941h0.934V13.289z"/>
		</g>
		<g>
			<rect x="19.01" y="17.049" fill="#282D33" width="0.47" height="0.939"/>
		</g>
	</g>
	<g>
		<g>
			<g>
				<g>
					<g>
						<path fill="#FFFFFF" d="M13.184,1.512C9.745,1.4,6.858,4.107,6.746,7.544c-0.111,3.437,2.595,6.325,6.033,6.436
							c3.438,0.111,6.324-2.594,6.437-6.032C19.328,4.511,16.621,1.623,13.184,1.512z"/>
						<path fill="#282D33" d="M12.982,14.453L12.982,14.453c-0.072,0-0.146-0.002-0.219-0.004C9.066,14.33,6.157,11.226,6.276,7.53
							c0.12-3.714,3.189-6.609,6.922-6.488c1.788,0.057,3.449,0.811,4.676,2.119c1.227,1.309,1.869,3.014,1.812,4.802
							C19.568,11.603,16.623,14.453,12.982,14.453z M12.979,1.979c-3.13,0-5.661,2.451-5.762,5.581
							c-0.104,3.178,2.398,5.847,5.577,5.951c3.205,0.103,5.849-2.385,5.952-5.577c0.05-1.538-0.504-3.003-1.558-4.129
							c-1.057-1.125-2.482-1.773-4.021-1.822C13.104,1.98,13.041,1.979,12.979,1.979z"/>
					</g>
				</g>
				<g>
					<path fill="#E4376E" d="M18.622,6.283l-0.517,0.889l-0.898,1.688l-0.508-1.084l-0.817,0.514l-0.51-0.982l-0.476,0.568
						l-0.229-0.065L13.935,7.5l0.121,0.776l0.561,0.242l-1.063,2.4l-0.445,0.267l-0.37-0.915l-0.217-1.522l-0.744-0.055
						l-0.303-0.571l0.456-1.144l0.625-0.126l0.379,0.267l0.925-0.196l-0.991-0.585L12.03,6.167l-0.036-0.254l0.827-0.444
						l-0.328-0.542l0.847-0.722l0.869,0.336l1.475-0.41c0,0,0.608-0.299,1.287-0.628C17.76,4.247,18.341,5.207,18.622,6.283z"/>
					<path fill="#E4376E" d="M9.464,3.097L9.113,3.66L8.503,4.695c-0.016,0.028-0.017,0.063,0,0.09l0.384,0.66
						C8.903,5.472,8.94,5.489,8.962,5.489c0.032,0,0.061-0.015,0.078-0.041l0.358-0.549l0.662,0.858l-1.37,1.148L7.933,6.952
						C7.899,6.955,7.868,6.977,7.855,7.009L7.679,7.466C7.668,7.495,7.672,7.527,7.69,7.552L8.174,8.21l-0.802-0.4L7.15,7.521
						C7.221,5.708,8.118,4.117,9.464,3.097z"/>
					<path fill="#E4376E" d="M9.072,10.223L8.587,9.201l0.577-1.195l1.537,1.482l-1.42,2.7l-0.253-0.63l0.053-1.294
						C9.081,10.25,9.078,10.236,9.072,10.223z"/>
					<path fill="#E4376E" d="M10.586,4.763L9.971,3.366c0.966-0.454,1.608-0.542,1.854-0.558l-0.322,1.26L10.586,4.763z"/>
				</g>
			</g>
		</g>
	</g>
</g>
</svg>
