<?xml version="1.0" encoding="utf-8"?>
<!-- Generator: Adobe Illustrator 16.0.0, SVG Export Plug-In . SVG Version: 6.00 Build 0)  -->
<!DOCTYPE svg PUBLIC "-//W3C//DTD SVG 1.1//EN" "http://www.w3.org/Graphics/SVG/1.1/DTD/svg11.dtd">
<svg version="1.1" id="Camada_1" xmlns="http://www.w3.org/2000/svg" xmlns:xlink="http://www.w3.org/1999/xlink" x="0px" y="0px"
	 width="24px" height="24px" viewBox="0 0 24 24" enable-background="new 0 0 24 24" xml:space="preserve">
<g>
	<g>
		<line fill="none" x1="20.41" y1="16.455" x2="20.41" y2="21.701"/>
		<rect x="20.068" y="16.455" fill="#282D33" width="0.799" height="5.131"/>
	</g>
	<g>
		<path fill="#FFFFFF" d="M3.079,21.701V9.957c0-0.342,0.228-0.685,0.57-0.685h8.665"/>
		<path fill="#282D33" d="M3.421,21.701H2.623V9.957c0-0.57,0.456-1.026,1.026-1.026h8.665v0.798H3.649
			c-0.114,0-0.228,0.114-0.228,0.229V21.701z"/>
	</g>
	<rect x="4.333" y="10.64" fill="#E4376E" width="14.823" height="9.579"/>
	<g>
		<g>
			<path fill="#FFFFFF" d="M21.209,7.676h-7.068c-0.344,0-0.57,0.342-0.57,0.798v6.043c0,0.455,0.227,0.797,0.57,0.797h1.025v1.482
				l1.596-1.482h4.447c0.342,0,0.57-0.342,0.57-0.797V8.474C21.893,8.018,21.551,7.676,21.209,7.676z"/>
			<path fill="#282D33" d="M14.824,17.596v-1.939h-0.684c-0.57,0-1.027-0.568-1.027-1.139V8.474c0-0.685,0.457-1.141,1.027-1.141
				h7.068c0.57,0,1.025,0.57,1.025,1.141v6.043c0,0.684-0.455,1.139-1.025,1.139H16.99L14.824,17.596z M14.141,8.132
				c-0.115,0-0.229,0.114-0.229,0.342v6.043c0,0.227,0.113,0.342,0.229,0.342h1.48v0.912l1.027-0.912h4.561
				c0.113,0,0.229-0.115,0.229-0.342V8.474c0-0.228-0.115-0.342-0.229-0.342H14.141z"/>
		</g>
		<polygon fill="#E62117" points="19.613,11.21 18.131,12.123 16.648,13.035 16.648,11.21 16.648,9.386 18.131,10.298 		"/>
	</g>
	<g>
		<g>
			<path fill="#34CA9D" d="M5.017,21.357v-1.025c0-0.57,0.456-1.025,1.14-1.025h5.017c0.57,0,1.14,0.455,1.14,1.025v1.025"/>
			<path fill="#282D33" d="M12.543,21.357h-0.799v-1.025c0-0.342-0.341-0.684-0.684-0.684H6.043c-0.456,0-0.684,0.342-0.684,0.684
				v1.025H4.561v-1.025c0-0.799,0.684-1.482,1.482-1.482h5.017c0.798,0,1.482,0.684,1.482,1.482V21.357L12.543,21.357z"/>
		</g>
		<g>
			<polygon fill="#FFFFFF" points="9.464,19.307 8.552,19.875 7.64,19.307 7.64,17.025 8.552,17.025 9.464,17.025 			"/>
			<path fill="#282D33" d="M8.552,20.332l-1.368-0.799v-2.85H9.92v2.85L8.552,20.332z M7.982,18.965l0.57,0.342l0.57-0.342V17.48
				h-1.14V18.965z"/>
		</g>
		<g>
			<path fill="#FFFFFF" d="M10.833,13.832v2.281c0,1.254-1.026,2.166-2.167,2.166l0,0c-1.254,0-2.167-0.799-2.167-2.166v-2.281"/>
			<path fill="#282D33" d="M8.552,18.621c-1.482,0-2.622-1.025-2.622-2.508v-2.281h0.798v2.281c0,1.025,0.798,1.711,1.824,1.711
				c1.026,0,1.825-0.686,1.825-1.711v-2.281h0.797v2.281C11.174,17.596,10.148,18.621,8.552,18.621z"/>
		</g>
		<g>
			<path fill="#FFFFFF" d="M7.526,11.667c-0.456,0-0.798,0.229-1.026,0.57H6.157c-0.57,0-0.912,0.457-0.912,1.027v1.824l1.027,1.596
				v-2.053c0-0.342,0.341-0.684,0.684-0.684h0.342h2.736h0.57c0.684,0,1.14-0.57,1.14-1.254v-1.027H7.526z"/>
			<path fill="#282D33" d="M6.728,17.938l-1.825-2.736v-2.053c0-0.798,0.57-1.368,1.254-1.368h0.228
				c0.342-0.342,0.685-0.57,1.141-0.57h4.675v1.483c0,0.912-0.684,1.709-1.596,1.709H6.956c-0.114,0-0.228,0.115-0.228,0.229V17.938
				L6.728,17.938z M5.587,14.973l0.228,0.342v-0.684c0-0.57,0.457-1.141,1.026-1.141h3.649c0.456,0,0.798-0.342,0.798-0.797v-0.571
				H7.526c-0.228,0-0.456,0.114-0.685,0.343l-0.114,0.228h-0.57c-0.228,0-0.456,0.227-0.456,0.57v1.709H5.587z"/>
		</g>
		<g>
			<rect x="8.096" y="19.99" fill="#282D33" width="0.798" height="1.367"/>
		</g>
	</g>
	<g>
		<path fill="#FFFFFF" d="M0.457,21.586v1.141c0,0,0.798,0.57,1.368,0.57h7.183h5.475h7.182c0.57,0,1.369-0.57,1.369-0.57v-1.141
			H0.457z"/>
		<path fill="#282D33" d="M21.664,23.752H1.825c-0.684,0-1.482-0.684-1.596-0.684l-0.114-0.113v-1.824h23.374v1.824l-0.113,0.113
			C23.146,23.184,22.35,23.752,21.664,23.752z M0.913,22.498c0.228,0.229,0.684,0.457,0.912,0.457h19.839
			c0.229,0,0.686-0.229,0.912-0.457v-0.455H0.913V22.498z"/>
	</g>
</g>
</svg>
