<?xml version="1.0" encoding="utf-8"?>
<!-- Generator: Adobe Illustrator 16.0.0, SVG Export Plug-In . SVG Version: 6.00 Build 0)  -->
<!DOCTYPE svg PUBLIC "-//W3C//DTD SVG 1.1//EN" "http://www.w3.org/Graphics/SVG/1.1/DTD/svg11.dtd">
<svg version="1.1" id="Camada_1" xmlns="http://www.w3.org/2000/svg" xmlns:xlink="http://www.w3.org/1999/xlink" x="0px" y="0px"
	 width="24px" height="24px" viewBox="0 0 24 24" enable-background="new 0 0 24 24" xml:space="preserve">
<g>
	<g>
		<g>
			<g>
				<path fill="#FFFFFF" stroke="#212930" stroke-width="4" d="M14.639,14.356"/>
			</g>
		</g>
	</g>
	<g>
		<path fill="#FFFFFF" d="M14.974,3.359c-1.57-1.571-3.59-2.357-5.835-2.357c-2.244,0-4.265,0.898-5.835,2.469
			C1.732,5.042,0.834,7.063,0.834,9.307c0,4.602,3.704,8.305,8.305,8.305c2.245,0,4.265-0.897,5.835-2.469
			c1.572-1.571,2.47-3.592,2.47-5.836S16.546,4.93,14.974,3.359z"/>
		<path fill="#212930" d="M9.139,17.947c-4.826,0-8.753-3.927-8.753-8.753c0-2.356,0.898-4.489,2.582-6.172
			C4.65,1.451,6.782,0.441,9.139,0.441c2.357,0,4.488,0.898,6.173,2.581c1.683,1.683,2.581,3.816,2.581,6.172
			s-0.898,4.488-2.581,6.172C13.739,17.05,11.496,17.947,9.139,17.947L9.139,17.947V17.5v-0.45c2.132,0,4.041-0.786,5.5-2.356
			c1.458-1.458,2.243-3.479,2.243-5.499c0-2.132-0.785-4.04-2.243-5.499c-1.459-1.458-3.48-2.244-5.5-2.244
			c-2.132,0-4.04,0.786-5.499,2.244C2.181,5.154,1.283,7.174,1.283,9.194c0,4.265,3.479,7.855,7.855,7.855V17.947z"/>
	</g>
	<path fill="#E4376E" d="M13.739,13.908c-1.232,1.234-2.917,1.907-4.601,1.907c-3.591,0-6.509-2.918-6.509-6.509
		c0-1.795,0.673-3.367,1.908-4.602c1.235-1.346,2.806-2.02,4.601-2.02c1.796,0,3.368,0.674,4.601,1.908
		c1.234,1.235,1.908,2.918,1.908,4.601C15.761,10.99,14.974,12.562,13.739,13.908z"/>
	
		<rect x="17.258" y="15.448" transform="matrix(-0.7072 0.707 -0.707 -0.7072 46.1962 18.7241)" fill="#B4BEBF" width="3.927" height="6.959"/>
	<g>
		<line fill="none" x1="21.26" y1="19.968" x2="19.016" y2="17.835"/>
		
			<rect x="19.707" y="17.39" transform="matrix(-0.7082 0.706 -0.706 -0.7082 47.7786 18.064)" fill="#FFFFFF" width="0.899" height="3.031"/>
	</g>
	<g>
		
			<rect x="15.765" y="16.235" transform="matrix(-0.7066 0.7076 -0.7076 -0.7066 41.4934 16.7259)" fill="#FFFFFF" width="3.029" height="1.459"/>
		<path fill="#212930" d="M16.658,19.295L14.974,17.5l2.808-2.807l1.683,1.684L16.658,19.295z M16.32,17.5l0.45,0.447l1.458-1.458
			l-0.447-0.449L16.32,17.5z"/>
	</g>
	<g>
		<path fill="#FFFFFF" d="M23.168,20.754c0,1.235-1.012,2.133-2.132,2.133c-0.226-0.226-0.338-0.337-0.562-0.562
			c0.673-0.675,1.458-1.459,2.132-2.132C22.83,20.417,23.056,20.642,23.168,20.754z"/>
		<path fill="#212930" d="M20.811,23.447l-1.01-1.011l2.806-2.806l1.009,1.011v0.225c0,1.459-1.234,2.693-2.693,2.693h-0.111V23.447
			z M21.147,22.437L21.147,22.437c0.785,0,1.459-0.673,1.57-1.458l0,0L21.147,22.437z"/>
	</g>
	<g>
		<g>
			
				<rect x="15.269" y="15.93" transform="matrix(-0.706 0.7082 -0.7082 -0.706 38.5326 17.1012)" fill="#212930" width="0.896" height="1.237"/>
		</g>
		<g>
			
				<rect x="16.023" y="14.212" transform="matrix(-0.7087 0.7055 -0.7055 -0.7087 38.7659 14.1004)" fill="#212930" width="0.898" height="1.682"/>
		</g>
	</g>
	<g>
		<g>
			<g>
				<path fill="#FFFFFF" d="M9.139,16.938c-4.265,0-7.631-3.479-7.631-7.631c0-4.265,3.479-7.631,7.631-7.631
					c4.265,0,7.632,3.479,7.632,7.631C16.882,13.459,13.403,16.938,9.139,16.938z M9.139,2.572c-3.703,0-6.733,3.031-6.733,6.734
					c0,3.704,3.03,6.733,6.733,6.733c3.704,0,6.734-3.029,6.734-6.733C15.873,5.604,12.843,2.572,9.139,2.572z"/>
			</g>
			<g>
				<path fill="#FFFFFF" d="M9.139,16.938c-2.581,0-4.601-3.366-4.601-7.631s2.02-7.631,4.601-7.631s4.601,3.367,4.601,7.631
					S11.72,16.938,9.139,16.938z M9.139,2.572c-2.02,0-3.703,3.031-3.703,6.734c0,3.591,1.684,6.733,3.703,6.733
					c2.02,0,3.704-3.029,3.704-6.733C12.843,5.604,11.159,2.572,9.139,2.572z"/>
			</g>
			<g>
				<path fill="#FFFFFF" d="M9.139,16.938H8.69V1.563h0.449c4.265,0,7.632,3.479,7.632,7.632
					C16.882,13.459,13.403,16.938,9.139,16.938z M9.588,2.572V16.04c3.479-0.225,6.285-3.143,6.285-6.733
					C15.873,5.715,13.066,2.798,9.588,2.572z"/>
			</g>
			<g>
				<path fill="#FFFFFF" d="M16.209,12.225H2.068l-0.112-0.337C1.62,10.99,1.508,10.092,1.508,9.194S1.62,7.399,1.957,6.501
					l0.112-0.225h14.141l0.111,0.337c0.338,0.898,0.45,1.796,0.45,2.693c0,0.898-0.112,1.796-0.45,2.693L16.209,12.225z
					 M2.742,11.327h12.793c0.226-0.674,0.338-1.347,0.338-2.021s-0.112-1.347-0.338-2.02H2.742c-0.224,0.561-0.336,1.235-0.336,2.02
					C2.405,9.98,2.518,10.653,2.742,11.327z"/>
			</g>
		</g>
	</g>
</g>
</svg>
