<?xml version="1.0" encoding="utf-8"?>
<!-- Generator: Adobe Illustrator 16.0.0, SVG Export Plug-In . SVG Version: 6.00 Build 0)  -->
<!DOCTYPE svg PUBLIC "-//W3C//DTD SVG 1.1//EN" "http://www.w3.org/Graphics/SVG/1.1/DTD/svg11.dtd">
<svg version="1.1" id="Camada_1" xmlns="http://www.w3.org/2000/svg" xmlns:xlink="http://www.w3.org/1999/xlink" x="0px" y="0px"
	 width="24px" height="24px" viewBox="0 0 24 24" enable-background="new 0 0 24 24" xml:space="preserve">
<g>
	<rect x="6.872" y="8.244" fill="#282D33" width="2.169" height="0.447"/>
	<rect x="5.736" y="8.244" fill="#282D33" width="0.723" height="0.447"/>
</g>
<g>
	<path fill="#212930" d="M1.486,18.863v-3.636c-0.62-0.621-1.001-1.476-1.001-2.42c0-1.892,1.533-3.426,3.426-3.426
		c1.892,0,3.426,1.535,3.426,3.426c0,0.052-0.001,0.104-0.003,0.155l0.478,0.828l0.629,1.09H7.645v1.354
		c0,0.51-0.414,0.924-0.924,0.924H5.257v1.704"/>
</g>
<g>
	<path fill="#E4376E" d="M21.878,24.31V19.57c1.164-1.167,1.884-2.775,1.884-4.552c0-3.559-2.887-6.444-6.445-6.444
		s-6.444,2.886-6.444,6.444c0,0.099,0.002,0.194,0.007,0.292l-0.9,1.559l-1.184,2.05h1.498v2.544c0,0.96,0.777,1.74,1.737,1.74
		h2.752v1.106"/>
</g>
<g>
	<g>
		<g>
			<path fill="#FFFFFF" d="M3.879,13.16c-0.417,0-0.757-0.34-0.757-0.758c0-0.418,0.34-0.757,0.757-0.757
				c0.418,0,0.759,0.339,0.759,0.757C4.638,12.82,4.297,13.16,3.879,13.16z M3.879,12.093c-0.17,0-0.31,0.138-0.31,0.309
				c0,0.171,0.14,0.311,0.31,0.311c0.171,0,0.311-0.14,0.311-0.311C4.19,12.231,4.05,12.093,3.879,12.093z"/>
			<g>
				<rect x="3.656" y="11.248" fill="#FFFFFF" width="0.447" height="0.505"/>
				<rect x="3.656" y="13.051" fill="#FFFFFF" width="0.447" height="0.506"/>
			</g>
			<g>
				
					<rect x="2.846" y="11.727" transform="matrix(0.8666 0.4991 -0.4991 0.8666 6.3775 0.0481)" fill="#FFFFFF" width="0.505" height="0.448"/>
				
					<rect x="4.408" y="12.63" transform="matrix(0.8651 0.5015 -0.5015 0.8651 7.075 -0.604)" fill="#FFFFFF" width="0.506" height="0.447"/>
			</g>
			<g>
				
					<rect x="2.875" y="12.601" transform="matrix(0.4995 0.8663 -0.8663 0.4995 12.6858 3.7482)" fill="#FFFFFF" width="0.449" height="0.505"/>
				
					<rect x="4.437" y="11.698" transform="matrix(0.501 0.8655 -0.8655 0.501 12.6689 1.9303)" fill="#FFFFFF" width="0.447" height="0.506"/>
			</g>
		</g>
	</g>
</g>
<g>
	<path fill="#FFFFFF" d="M17.985,18.519h-1.459l-0.084-1.009c-0.248-0.073-0.483-0.176-0.704-0.31l-0.744,0.628l-1.031-1.031
		l0.654-0.771c-0.123-0.227-0.215-0.468-0.278-0.718l-0.972-0.081V13.77l1.008-0.084c0.073-0.248,0.178-0.484,0.311-0.704
		l-0.631-0.744l1.032-1.032l0.772,0.653c0.227-0.122,0.467-0.214,0.716-0.278l0.082-0.971h1.459l0.083,1.008
		c0.247,0.074,0.482,0.177,0.703,0.31l0.745-0.629l1.031,1.031l-0.653,0.772c0.123,0.226,0.216,0.467,0.277,0.717l0.972,0.081v1.458
		l-1.008,0.084c-0.073,0.247-0.177,0.483-0.31,0.704l0.63,0.744l-1.032,1.03l-0.771-0.652c-0.226,0.122-0.467,0.215-0.718,0.278
		L17.985,18.519z M16.938,18.07h0.635l0.074-0.895l0.168-0.033c0.312-0.06,0.606-0.173,0.875-0.338l0.138-0.083l0.701,0.593
		l0.45-0.451l-0.581-0.684l0.095-0.142c0.179-0.262,0.307-0.549,0.381-0.858l0.039-0.156l0.914-0.075v-0.637l-0.896-0.074
		L19.9,14.071c-0.059-0.313-0.174-0.607-0.338-0.876l-0.085-0.139l0.593-0.701l-0.448-0.449l-0.686,0.58l-0.14-0.096
		c-0.263-0.178-0.552-0.306-0.86-0.38l-0.156-0.037l-0.076-0.916h-0.636l-0.074,0.895l-0.166,0.031
		c-0.313,0.06-0.607,0.174-0.877,0.339l-0.138,0.084l-0.701-0.593l-0.448,0.449l0.58,0.685l-0.098,0.141
		c-0.177,0.261-0.305,0.55-0.379,0.858l-0.037,0.157l-0.916,0.076v0.636l0.895,0.074l0.033,0.168
		c0.059,0.311,0.173,0.606,0.338,0.876l0.084,0.138l-0.593,0.699l0.447,0.45l0.688-0.58l0.14,0.096
		c0.262,0.177,0.551,0.307,0.859,0.379l0.157,0.039L16.938,18.07z"/>
	<path fill="#FFFFFF" d="M17.321,15.949c-0.765,0-1.386-0.622-1.386-1.386s0.621-1.384,1.386-1.384c0.764,0,1.384,0.62,1.384,1.384
		S18.085,15.949,17.321,15.949z M17.321,13.627c-0.518,0-0.938,0.419-0.938,0.937s0.421,0.938,0.938,0.938
		c0.516,0,0.937-0.42,0.937-0.938S17.837,13.627,17.321,13.627z"/>
</g>
<g>
	<path fill="#B2B1B1" d="M17.298,19.687c-0.156-0.002-0.313-0.012-0.466-0.027l0.046-0.445c0.14,0.016,0.283,0.022,0.426,0.024
		L17.298,19.687z M17.767,19.671l-0.035-0.445c0.142-0.012,0.284-0.029,0.424-0.055l0.074,0.442
		C18.078,19.64,17.921,19.659,17.767,19.671z M16.368,19.589c-0.152-0.03-0.305-0.069-0.454-0.113l0.128-0.431
		c0.137,0.043,0.275,0.076,0.415,0.104L16.368,19.589z M18.688,19.511l-0.116-0.433c0.136-0.037,0.271-0.081,0.405-0.132l0.157,0.42
		C18.988,19.423,18.837,19.47,18.688,19.511z M15.472,19.32c-0.145-0.058-0.287-0.124-0.425-0.195l0.205-0.398
		c0.126,0.066,0.257,0.126,0.387,0.18L15.472,19.32z M19.563,19.183l-0.195-0.402c0.127-0.062,0.254-0.13,0.375-0.204l0.231,0.384
		C19.842,19.039,19.702,19.114,19.563,19.183z M20.363,18.698l-0.267-0.36c0.113-0.085,0.226-0.175,0.331-0.27l0.298,0.333
		C20.61,18.506,20.487,18.604,20.363,18.698z M21.061,18.076l-0.328-0.305c0.097-0.106,0.188-0.215,0.275-0.329l0.354,0.275
		C21.266,17.84,21.166,17.96,21.061,18.076z M21.63,17.334l-0.378-0.24c0.076-0.12,0.146-0.244,0.211-0.368l0.399,0.201
		C21.791,17.066,21.713,17.202,21.63,17.334z M22.055,16.499l-0.416-0.163c0.052-0.132,0.1-0.268,0.139-0.405l0.43,0.127
		C22.163,16.208,22.111,16.355,22.055,16.499z M22.317,15.603l-0.441-0.086c0.028-0.138,0.048-0.279,0.063-0.422l0.446,0.044
		C22.368,15.295,22.347,15.449,22.317,15.603z M22.409,14.672l-0.448-0.004v-0.029c0-0.132-0.005-0.264-0.017-0.396l0.446-0.038
		c0.012,0.144,0.019,0.29,0.019,0.435V14.672z M21.889,13.819c-0.024-0.139-0.058-0.279-0.096-0.415l0.433-0.121
		c0.04,0.15,0.076,0.305,0.104,0.457L21.889,13.819z M21.659,12.999c-0.049-0.132-0.106-0.265-0.171-0.392l0.402-0.197
		c0.068,0.141,0.133,0.283,0.188,0.429L21.659,12.999z M21.282,12.235c-0.072-0.12-0.152-0.239-0.238-0.353l0.356-0.27
		c0.094,0.125,0.184,0.255,0.265,0.387L21.282,12.235z M20.772,11.553c-0.097-0.105-0.197-0.207-0.302-0.303l0.304-0.33
		c0.113,0.105,0.225,0.217,0.329,0.332L20.772,11.553z M20.144,10.976c-0.112-0.085-0.23-0.167-0.351-0.243l0.236-0.379
		c0.133,0.083,0.262,0.172,0.385,0.266L20.144,10.976z M19.421,10.525c-0.127-0.063-0.258-0.122-0.39-0.173l0.162-0.417
		c0.146,0.057,0.289,0.121,0.428,0.19L19.421,10.525z M18.627,10.216c-0.137-0.039-0.276-0.073-0.416-0.098l0.082-0.44
		c0.153,0.029,0.308,0.065,0.455,0.108L18.627,10.216z M17.789,10.06c-0.141-0.012-0.284-0.02-0.428-0.02V9.593
		c0.157,0,0.314,0.007,0.47,0.021L17.789,10.06z"/>
	<path fill="#B2B1B1" d="M3.024,14.143c-0.162-0.052-0.316-0.128-0.458-0.225l0.251-0.369c0.106,0.072,0.222,0.129,0.344,0.168
		L3.024,14.143z M2.19,13.576c-0.109-0.131-0.198-0.277-0.266-0.435l0.41-0.178c0.051,0.118,0.118,0.228,0.2,0.327L2.19,13.576z
		 M1.791,12.65c-0.009-0.074-0.014-0.148-0.014-0.222c0-0.096,0.008-0.192,0.022-0.287l0.443,0.07
		c-0.012,0.072-0.018,0.144-0.018,0.216c0,0.056,0.004,0.113,0.01,0.167L1.791,12.65z M2.355,11.848l-0.404-0.193
		c0.074-0.154,0.168-0.297,0.282-0.424l0.334,0.298C2.482,11.625,2.411,11.731,2.355,11.848z M2.86,11.281l-0.238-0.379
		c0.145-0.09,0.301-0.16,0.465-0.207l0.123,0.431C3.086,11.161,2.969,11.212,2.86,11.281z"/>
	<path fill="#B2B1B1" d="M3.766,11.072l-0.033-0.447l0.446-0.033l0.033,0.445L3.766,11.072z M4.658,11.005l-0.033-0.447l0.446-0.033
		l0.033,0.446L4.658,11.005z M5.551,10.939l-0.033-0.446l0.447-0.034l0.033,0.447L5.551,10.939z M6.444,10.873l-0.034-0.446
		l0.446-0.033l0.034,0.446L6.444,10.873z M7.336,10.806l-0.033-0.447l0.446-0.033l0.033,0.446L7.336,10.806z M8.229,10.739
		l-0.034-0.446l0.447-0.033l0.034,0.446L8.229,10.739z M9.122,10.673l-0.033-0.447l0.446-0.034l0.034,0.447L9.122,10.673z
		 M10.015,10.606l-0.033-0.447l0.446-0.034l0.034,0.447L10.015,10.606z M10.907,10.539l-0.032-0.446l0.446-0.034l0.033,0.447
		L10.907,10.539z M11.801,10.473l-0.034-0.446l0.446-0.034l0.034,0.447L11.801,10.473z M12.693,10.406L12.66,9.959l0.445-0.033
		l0.034,0.447L12.693,10.406z M13.585,10.339l-0.032-0.446l0.445-0.033l0.033,0.446L13.585,10.339z M14.479,10.272l-0.033-0.446
		l0.446-0.034l0.032,0.446L14.479,10.272z M15.37,10.206l-0.033-0.447l0.448-0.033l0.032,0.446L15.37,10.206z M16.264,10.139
		L16.23,9.692l0.446-0.033l0.033,0.447L16.264,10.139z M17.157,10.073l-0.033-0.447l0.446-0.033l0.032,0.447L17.157,10.073z"/>
	<path fill="#B2B1B1" d="M15.387,19.275l-0.413-0.173l0.172-0.414l0.414,0.173L15.387,19.275z M14.561,18.933l-0.414-0.175
		l0.172-0.412l0.413,0.173L14.561,18.933z M13.734,18.588l-0.414-0.173l0.171-0.412l0.414,0.171L13.734,18.588z M12.906,18.244
		l-0.412-0.172l0.172-0.414l0.414,0.172L12.906,18.244z M12.081,17.899l-0.413-0.173l0.171-0.412l0.413,0.173L12.081,17.899z
		 M11.254,17.557l-0.413-0.174l0.172-0.413l0.413,0.173L11.254,17.557z M10.427,17.212l-0.413-0.172l0.172-0.413l0.414,0.172
		L10.427,17.212z M9.601,16.867l-0.414-0.17l0.172-0.414l0.414,0.173L9.601,16.867z M8.774,16.524l-0.414-0.173l0.173-0.413
		l0.413,0.173L8.774,16.524z M7.948,16.18l-0.413-0.171l0.171-0.413l0.413,0.173L7.948,16.18z M7.122,15.836l-0.413-0.171
		l0.171-0.412l0.413,0.17L7.122,15.836z M6.294,15.492l-0.413-0.171l0.172-0.415l0.414,0.174L6.294,15.492z M5.468,15.148
		l-0.413-0.171l0.172-0.414l0.414,0.172L5.468,15.148z M4.642,14.806l-0.414-0.172l0.172-0.414l0.413,0.172L4.642,14.806z
		 M3.815,14.461L3.402,14.29l0.171-0.414l0.414,0.172L3.815,14.461z"/>
</g>
<g>
	<polygon fill="#282D33" points="11.522,9.704 11.216,9.376 12.192,8.467 11.216,7.558 11.521,7.23 12.847,8.467 	"/>
	<rect x="9.534" y="8.244" fill="#282D33" width="2.862" height="0.447"/>
</g>
<g>
	<polygon fill="#282D33" points="9.414,14.132 8.087,12.896 9.414,11.659 9.719,11.986 8.744,12.896 9.719,13.805 	"/>
	<rect x="8.538" y="12.671" fill="#282D33" width="5.203" height="0.448"/>
</g>
</svg>
