<?xml version="1.0" encoding="utf-8"?>
<!-- Generator: Adobe Illustrator 16.0.0, SVG Export Plug-In . SVG Version: 6.00 Build 0)  -->
<!DOCTYPE svg PUBLIC "-//W3C//DTD SVG 1.1//EN" "http://www.w3.org/Graphics/SVG/1.1/DTD/svg11.dtd">
<svg version="1.1" id="Camada_1" xmlns="http://www.w3.org/2000/svg" xmlns:xlink="http://www.w3.org/1999/xlink" x="0px" y="0px"
	 width="512px" height="251.405px" viewBox="0 40.595 512 251.405" enable-background="new 0 40.595 512 251.405"
	 xml:space="preserve">
<line fill="none" stroke="#FF3470" stroke-width="1.4" stroke-miterlimit="22.9256" x1="11.627" y1="280.087" x2="505" y2="280.087"/>
<path opacity="0.1" fill="#E4376E" d="M98.656,93.438V58.255c-9.013-4.866-19.299-7.645-30.292-7.645
	c-36.425,0-65.155,30.49-65.155,66.609c0,35.941,28.886,66.597,65.155,66.597c36.27,0,65.157-30.655,65.157-66.597
	c0-8.328-1.529-16.356-4.326-23.782H98.656z M68.364,151.08c-18.773,0-33.855-15.082-33.855-33.86
	c0-18.941,14.921-33.867,33.855-33.867c18.938,0,33.866,14.926,33.866,33.867C102.23,135.999,87.142,151.08,68.364,151.08z"/>
<path opacity="0.1" fill="#231F20" d="M68.688,235.651c-0.013-0.014-50.77-50.104-50.858-49.2v93.176h24.139v-39.47l26.718,25.72
	v0.002l0.001-0.002v0.002v-0.002l26.718-25.72v39.47h24.143v-93.176C119.457,185.548,68.698,235.638,68.688,235.651z"/>
<g>
	<g>
		<path fill="#332D2A" d="M363.488,151.779c-8.633,2.492-15.779,8.196-20.123,16.063c-4.342,7.866-5.361,16.953-2.871,25.587
			c1.111,3.842,2.861,7.409,5.211,10.602v0.001c8.313,11.303,22.955,16.282,36.438,12.39c17.824-5.143,28.139-23.826,22.996-41.648
			c-1.107-3.842-2.863-7.409-5.211-10.602C391.617,152.868,376.973,147.888,363.488,151.779z M352.346,161.972
			c2.988-2.771,6.523-4.914,10.447-6.29l2.68,9.285c-4.396,1.356-8.697,3.034-12.869,5.023c-0.182-2.566-0.268-5.146-0.232-7.738
			C352.371,162.156,352.359,162.063,352.346,161.972z M380.16,203.237c4-1.235,7.924-2.727,11.74-4.483
			c0.172,2.495,0.252,5.007,0.219,7.528c-0.004,0.287,0.08,0.546,0.199,0.786c-2.732,2.329-5.922,4.201-9.479,5.454L380.16,203.237z
			 M402.557,188.968c-0.182,0.047-0.357,0.115-0.521,0.22c-2.326,1.508-4.709,2.888-7.137,4.171
			c-0.545-4.422-1.396-8.788-2.551-13.073l9.859-2.844C403.09,181.327,403.174,185.23,402.557,188.968z M401.357,193.735
			c-1.252,3.688-3.205,7.11-5.75,10.064c-0.029-2.24-0.139-4.47-0.324-6.689C397.344,196.062,399.367,194.938,401.357,193.735z
			 M379.189,199.873l-4.207-14.576l14.002-4.039c1.207,4.509,2.074,9.109,2.584,13.774
			C387.555,196.948,383.418,198.564,379.189,199.873z M374.012,181.935l-4.205-14.572c4.275-1.148,8.635-1.982,13.053-2.5
			c2.055,4.219,3.775,8.572,5.156,13.032L374.012,181.935z M375.826,200.844c-4.674,1.252-9.445,2.14-14.287,2.64
			c-2.014-4.159-3.705-8.45-5.064-12.844l15.146-4.371L375.826,200.844z M355.504,187.275c-1.191-4.44-2.049-8.973-2.561-13.565
			c4.363-2.156,8.877-3.947,13.5-5.378l4.207,14.572L355.504,187.275z M377.07,154.303c0.031,0.258,0.113,0.511,0.264,0.743
			c1.371,2.117,2.641,4.284,3.824,6.488c-4.166,0.547-8.279,1.377-12.322,2.463l-2.676-9.272
			C369.795,153.902,373.486,153.785,377.07,154.303z M381.627,155.321c3.693,1.131,7.166,2.958,10.203,5.42
			c-2.322,0.043-4.635,0.173-6.936,0.383C383.875,159.157,382.787,157.223,381.627,155.321z M397.107,166.245
			c1.76,2.393,3.121,5.028,4.109,7.839l-9.838,2.839c-1.311-4.238-2.914-8.387-4.809-12.42c2.736-0.21,5.492-0.313,8.26-0.276
			c0.195,0.002,0.381-0.034,0.557-0.091C395.988,164.811,396.566,165.508,397.107,166.245z M367.268,213.698
			c-0.035-0.073-0.064-0.144-0.109-0.213c-1.412-2.176-2.713-4.404-3.926-6.673c4.592-0.542,9.121-1.41,13.564-2.604l2.676,9.271
			C375.398,214.4,371.252,214.45,367.268,213.698z M362.305,212.306c-3.061-1.138-5.938-2.767-8.504-4.846
			c1.896-0.034,3.787-0.134,5.672-0.282C360.365,208.911,361.303,210.624,362.305,212.306z M348.525,201.958
			c-1.758-2.391-3.117-5.029-4.107-7.838l8.691-2.51c1.285,4.157,2.85,8.229,4.699,12.189c-2.324,0.146-4.662,0.207-7.008,0.177
			c-0.195-0.004-0.379,0.034-0.555,0.09C349.646,203.392,349.066,202.694,348.525,201.958z M343.094,179.23
			c0.172-0.046,0.344-0.114,0.504-0.217c1.967-1.274,3.977-2.468,6.021-3.583c0.545,4.335,1.389,8.614,2.52,12.816l-8.682,2.506
			C342.582,186.923,342.471,183.025,343.094,179.23z M346.432,169.534c0.732-1.328,1.553-2.587,2.457-3.77
			c0.047,1.98,0.168,3.953,0.336,5.919c-1.672,0.879-3.324,1.803-4.951,2.785C344.846,172.782,345.551,171.128,346.432,169.534z"/>
		<path fill="#332D2A" d="M321.018,222.229c1.283,1.457,2.607,2.818,3.938,4.039c0.717,0.658,0.758,1.763,0.1,2.475
			c-0.654,0.711-1.762,0.757-2.473,0.102c-1.416-1.305-2.828-2.752-4.191-4.302c-0.035-0.04-0.066-0.08-0.098-0.123
			c-0.531-0.723-0.432-1.744,0.254-2.348C319.271,221.434,320.377,221.505,321.018,222.229z"/>
		<path fill="#332D2A" d="M331.154,231.02c1.607,0.994,3.264,1.835,4.92,2.503c0.896,0.358,1.33,1.382,0.971,2.277
			c-0.361,0.896-1.381,1.331-2.279,0.969c-1.842-0.738-3.674-1.672-5.453-2.77c-0.197-0.122-0.361-0.275-0.49-0.451
			c-0.41-0.56-0.465-1.335-0.078-1.958C329.252,230.766,330.33,230.512,331.154,231.02z"/>
		<path fill="#332D2A" d="M356.51,233.787c1.705-0.59,3.43-1.336,5.125-2.216c0.857-0.444,1.91-0.103,2.359,0.75
			c0.445,0.858,0.109,1.916-0.75,2.359c-1.844,0.955-3.721,1.768-5.586,2.414c-0.742,0.258-1.541-0.016-1.982-0.616
			c-0.104-0.139-0.186-0.294-0.246-0.465C355.115,235.102,355.598,234.103,356.51,233.787z"/>
		<path fill="#332D2A" d="M367.924,229.782c-0.566-0.769-0.41-1.852,0.348-2.43c2.641-2.009,4.176-3.621,4.191-3.639
			c0.664-0.7,1.773-0.732,2.475-0.066c0.701,0.66,0.732,1.769,0.07,2.472c-0.068,0.072-1.73,1.822-4.613,4.019
			c-0.77,0.586-1.867,0.436-2.455-0.332C367.936,229.798,367.928,229.789,367.924,229.782z"/>
		<path fill="#332D2A" d="M348.969,235.44c0.963-0.085,1.814,0.626,1.9,1.588c0.086,0.964-0.625,1.814-1.588,1.9
			c-2.066,0.188-4.141,0.168-6.164-0.052c-0.508-0.055-0.941-0.321-1.223-0.703c-0.25-0.339-0.379-0.771-0.33-1.226
			c0.105-0.962,0.969-1.655,1.928-1.551C345.289,235.592,347.131,235.608,348.969,235.44z"/>
		<path fill="#332D2A" d="M394.82,139.536c1.359,3.446,1.813,5.785,1.834,5.88c0.18,0.949-0.441,1.863-1.389,2.047
			c-0.689,0.132-1.355-0.157-1.744-0.684c-0.148-0.203-0.258-0.44-0.307-0.702c-0.006-0.023-0.422-2.143-1.648-5.261
			c-0.355-0.899,0.086-1.916,0.986-2.27C393.451,138.192,394.471,138.64,394.82,139.536z"/>
		<path fill="#332D2A" d="M339.223,109.625c0.609-0.057,1.211-0.107,1.809-0.151c0.965-0.07,1.803,0.655,1.871,1.62
			c0.07,0.965-0.654,1.802-1.617,1.872c-0.574,0.042-1.154,0.091-1.74,0.146c-0.635,0.059-1.221-0.229-1.572-0.708
			c-0.182-0.248-0.303-0.546-0.332-0.875C337.551,110.568,338.26,109.715,339.223,109.625z"/>
		<path fill="#332D2A" d="M355.346,109.763c0.957,0.118,1.641,0.993,1.52,1.954c-0.119,0.958-0.992,1.64-1.951,1.521
			c-1.826-0.227-3.729-0.374-5.654-0.439c-0.561-0.018-1.047-0.295-1.354-0.713c-0.225-0.305-0.354-0.687-0.338-1.095
			c0.031-0.966,0.84-1.724,1.809-1.691C351.406,109.368,353.414,109.524,355.346,109.763z"/>
		<path fill="#332D2A" d="M387.58,126.998c1.289,1.612,2.42,3.239,3.471,4.959c0.506,0.825,0.244,1.903-0.58,2.404
			c-0.783,0.479-1.789,0.269-2.32-0.454c-0.033-0.041-0.061-0.084-0.088-0.127c-0.973-1.596-2.023-3.102-3.217-4.595
			c-0.619-0.763-0.482-1.856,0.275-2.46C385.875,126.12,386.975,126.244,387.58,126.998z"/>
		<path fill="#332D2A" d="M376.828,117.265c1.695,1.096,3.332,2.318,4.861,3.629c0.732,0.624,0.818,1.733,0.188,2.467
			c-0.629,0.735-1.734,0.818-2.469,0.188c-1.408-1.208-2.914-2.334-4.48-3.345c-0.186-0.119-0.338-0.266-0.461-0.432
			c-0.416-0.569-0.465-1.36-0.059-1.989C374.932,116.973,376.018,116.739,376.828,117.265z"/>
		<path fill="#332D2A" d="M363.602,111.392c1.961,0.544,3.883,1.201,5.713,1.952c0.893,0.368,1.318,1.392,0.953,2.284
			c-0.371,0.897-1.391,1.323-2.285,0.954c-1.699-0.697-3.488-1.31-5.318-1.816c-0.393-0.109-0.717-0.344-0.941-0.648
			c-0.307-0.418-0.426-0.969-0.277-1.505C361.703,111.679,362.668,111.133,363.602,111.392z"/>
		<path fill="#332D2A" d="M425.203,165.391c-1.1-1.121-2.512-1.896-4.199-2.311c-0.414-0.101-0.756-0.345-0.994-0.663
			c-0.295-0.404-0.418-0.931-0.289-1.453c0.229-0.94,1.176-1.515,2.117-1.285c2.33,0.571,4.301,1.667,5.863,3.258
			c0.67,0.686,0.664,1.799-0.025,2.476C426.986,166.091,425.879,166.08,425.203,165.391z"/>
		<path fill="#332D2A" d="M408.424,164.726c-0.766,0.339-1.645,0.085-2.121-0.563c-0.072-0.1-0.137-0.209-0.188-0.328
			c-0.393-0.882,0.002-1.914,0.885-2.307c0.104-0.048,2.602-1.148,5.969-1.813c0.947-0.188,1.867,0.43,2.057,1.378
			c0.186,0.949-0.43,1.868-1.381,2.056C410.684,163.733,408.443,164.716,408.424,164.726z"/>
		<path fill="#332D2A" d="M428.703,178.3c-0.246-0.332-0.373-0.754-0.332-1.197c0.121-1.308,0.09-2.718-0.084-4.195
			c-0.049-0.397-0.105-0.779-0.17-1.15c-0.168-0.953,0.471-1.859,1.422-2.026c0.951-0.168,1.861,0.472,2.027,1.422
			c0.074,0.434,0.141,0.877,0.195,1.338c0.205,1.721,0.24,3.38,0.094,4.935c-0.088,0.964-0.943,1.672-1.906,1.584
			C429.434,178.959,428.988,178.69,428.703,178.3z"/>
		<path fill="#332D2A" d="M417.252,191.458c0.219,0.939-0.369,1.879-1.313,2.097c-2.049,0.475-3.525,0.592-3.801,0.609
			c-0.607,0.039-1.18-0.239-1.527-0.712c-0.096-0.13-0.174-0.276-0.234-0.436c-0.268-0.73-0.02-1.55,0.605-2.01
			c0.27-0.197,0.594-0.314,0.926-0.335c0.139-0.01,1.418-0.105,3.246-0.526C416.098,189.929,417.037,190.517,417.252,191.458z"/>
		<path fill="#332D2A" d="M421.668,189.814c-0.021-0.029-0.041-0.057-0.063-0.088c-0.523-0.813-0.289-1.897,0.523-2.42
			c0.277-0.179,0.553-0.368,0.824-0.569c1.174-0.863,2.174-1.852,2.969-2.938c0.572-0.779,1.67-0.948,2.449-0.376
			c0.779,0.571,0.947,1.666,0.375,2.445c-1.006,1.375-2.258,2.614-3.719,3.688c-0.33,0.243-0.664,0.472-1,0.69
			C423.244,190.75,422.213,190.555,421.668,189.814z"/>
		<path fill="#332D2A" d="M407.686,129.997c-0.186-0.25-0.307-0.554-0.336-0.885c-0.154-1.82-0.422-3.698-0.791-5.583
			c-0.184-0.948,0.434-1.87,1.381-2.054c0.951-0.188,1.869,0.434,2.055,1.38c0.395,2.01,0.682,4.014,0.846,5.958
			c0.082,0.963-0.633,1.811-1.596,1.893C408.613,130.761,408.033,130.473,407.686,129.997z"/>
		<path fill="#332D2A" d="M406.707,143.899c-0.299-0.405-0.422-0.934-0.289-1.46c0.436-1.758,0.744-3.607,0.922-5.488
			c0.09-0.963,0.943-1.671,1.906-1.579c0.965,0.091,1.67,0.944,1.582,1.907c-0.197,2.056-0.535,4.075-1.016,6.003
			c-0.232,0.937-1.18,1.509-2.117,1.276C407.281,144.458,406.939,144.217,406.707,143.899z"/>
		<path fill="#332D2A" d="M400.744,156.561c-0.068-0.068-0.129-0.14-0.184-0.214c-0.5-0.679-0.447-1.639,0.158-2.261
			c0.018-0.014,1.447-1.501,2.977-4.41c0.455-0.855,1.512-1.183,2.367-0.735c0.855,0.453,1.186,1.508,0.736,2.366
			c-1.797,3.411-3.514,5.165-3.586,5.238C402.533,157.23,401.43,157.236,400.744,156.561z"/>
		<path fill="#332D2A" d="M406.818,111.849c0.371,0.986,0.713,1.955,1.031,2.908c0.303,0.918-0.195,1.908-1.111,2.212
			c-0.738,0.245-1.523-0.03-1.959-0.623c-0.107-0.146-0.193-0.309-0.254-0.487c-0.301-0.908-0.627-1.833-0.982-2.774
			c-0.34-0.905,0.115-1.914,1.021-2.256C405.467,110.488,406.479,110.949,406.818,111.849z"/>
		<circle fill="#332D2A" cx="399.62" cy="104.905" r="5.228"/>
	</g>
	<g>
		<rect x="193.099" y="97.988" fill="#8BA69D" width="175.972" height="68.233"/>
		<path fill="#093844" d="M369.07,167.388H193.099c-0.645,0-1.167-0.522-1.167-1.167V97.988c0-0.645,0.522-1.167,1.167-1.167H369.07
			c0.645,0,1.166,0.522,1.166,1.167v68.233C370.236,166.865,369.715,167.388,369.07,167.388z M194.266,165.054h173.637V99.155
			H194.266V165.054z"/>
	</g>
	<g>
		<g>
			<g>
				<rect x="201.989" y="133.389" fill="#F1F4DE" width="158.132" height="97.772"/>
				<path fill="#093844" d="M360.121,232.328H201.989c-0.645,0-1.167-0.521-1.167-1.167v-97.772c0-0.645,0.522-1.167,1.167-1.167
					h158.132c0.646,0,1.168,0.522,1.168,1.167v97.772C361.289,231.807,360.768,232.328,360.121,232.328z M203.156,229.994h155.799
					v-95.438H203.156V229.994z"/>
			</g>
			<g>
				<rect x="207.707" y="139.349" fill="#52616D" width="146.693" height="81.851"/>
				<path fill="#093844" d="M354.4,222.366H207.707c-0.645,0-1.167-0.522-1.167-1.167v-81.851c0-0.645,0.522-1.167,1.167-1.167
					H354.4c0.646,0,1.168,0.522,1.168,1.167v81.851C355.568,221.844,355.047,222.366,354.4,222.366z M208.874,220.032h144.36
					v-79.517h-144.36V220.032z"/>
			</g>
			<g>
				<path fill="#F1F4DE" d="M367.516,242.517c-38.369,0-125.799,0-173.404,0c-9.716,0-9.716-11.355-9.716-11.355h193.317
					C377.713,231.161,379.172,242.517,367.516,242.517z"/>
				<path fill="#093844" d="M367.516,243.684H194.112c-8.608,0-10.883-8.191-10.883-12.522c0-0.645,0.522-1.167,1.167-1.167h193.317
					c0.588,0,1.082,0.436,1.158,1.02c0.029,0.223,0.67,5.552-2.602,9.27C374.285,242.539,371.338,243.684,367.516,243.684z
					 M185.638,232.328c0.292,2.688,1.696,9.021,8.474,9.021h173.404c3.123,0,5.479-0.878,7.002-2.607
					c1.828-2.079,2.092-4.919,2.088-6.414H185.638z"/>
			</g>
			<g>
				<path fill="#F1F4DE" d="M252.34,231.161c0.523,3.173,3.272,5.596,6.594,5.596h43.807c3.322,0,6.07-2.423,6.594-5.596H252.34z"/>
				<path fill="#093844" d="M302.74,237.924h-43.807c-3.859,0-7.117-2.765-7.744-6.573c-0.057-0.337,0.039-0.684,0.262-0.944
					c0.222-0.262,0.547-0.412,0.889-0.412h56.994c0.342,0,0.668,0.15,0.891,0.412c0.221,0.261,0.316,0.607,0.262,0.944
					C309.857,235.159,306.6,237.924,302.74,237.924z M253.897,232.328c0.867,1.951,2.81,3.262,5.036,3.262h43.807
					c2.229,0,4.17-1.311,5.037-3.262H253.897z"/>
			</g>
		</g>
		<g>
			<g>
				<rect x="215.495" y="125.717" fill="#F4F4F2" width="130.685" height="83.747"/>
				<path fill="#093844" d="M346.18,210.631H215.495c-0.645,0-1.167-0.522-1.167-1.167v-83.747c0-0.645,0.522-1.167,1.167-1.167
					H346.18c0.645,0,1.168,0.522,1.168,1.167v83.747C347.348,210.108,346.824,210.631,346.18,210.631z M216.662,208.297h128.352
					v-81.413H216.662V208.297z"/>
			</g>
			<g>
				<rect x="215.495" y="114.244" fill="#F4F4F2" width="130.685" height="11.473"/>
				<path fill="#093844" d="M346.18,126.884H215.495c-0.645,0-1.167-0.522-1.167-1.167v-11.473c0-0.645,0.522-1.167,1.167-1.167
					H346.18c0.645,0,1.168,0.522,1.168,1.167v11.473C347.348,126.362,346.824,126.884,346.18,126.884z M216.662,124.55h128.352
					v-9.139H216.662V124.55z"/>
			</g>
			<circle fill="#E65848" cx="222.299" cy="119.98" r="2.715"/>
			<circle fill="#82A352" cx="241.068" cy="119.98" r="2.715"/>
			<circle fill="#FDC536" cx="231.682" cy="119.98" r="2.715"/>
			<path fill="#093844" d="M338.012,121.147h-75.854c-0.643,0-1.166-0.522-1.166-1.167s0.523-1.167,1.166-1.167h75.854
				c0.645,0,1.166,0.521,1.166,1.167S338.656,121.147,338.012,121.147z"/>
		</g>
		<g>
			<rect x="222.298" y="132.719" fill="#A1C481" width="61.278" height="37.279"/>
			<path fill="#093844" d="M283.576,171.165h-61.278c-0.644,0-1.167-0.522-1.167-1.167v-37.279c0-0.645,0.523-1.167,1.167-1.167
				h61.278c0.645,0,1.166,0.522,1.166,1.167v37.279C284.742,170.643,284.221,171.165,283.576,171.165z M223.465,168.831h58.943
				v-34.945h-58.943V168.831z"/>
		</g>
		<rect x="289.35" y="133.389" fill="#F1A20D" width="26.383" height="14.134"/>
		<rect x="289.35" y="150.796" fill="#A1C481" width="26.383" height="14.135"/>
		<rect x="289.35" y="169.738" fill="#8BA69D" width="26.383" height="14.135"/>
		<path fill="#093844" d="M339.178,138.664h-19.105c-0.645,0-1.168-0.523-1.168-1.167c0-0.644,0.523-1.167,1.168-1.167h19.105
			c0.646,0,1.168,0.523,1.168,1.167C340.346,138.141,339.824,138.664,339.178,138.664z"/>
		<path fill="#093844" d="M339.178,144.613h-19.105c-0.645,0-1.168-0.521-1.168-1.167c0-0.644,0.523-1.167,1.168-1.167h19.105
			c0.646,0,1.168,0.523,1.168,1.167C340.346,144.092,339.824,144.613,339.178,144.613z"/>
		<path fill="#093844" d="M339.178,156.056h-19.105c-0.645,0-1.168-0.523-1.168-1.167c0-0.646,0.523-1.167,1.168-1.167h19.105
			c0.646,0,1.168,0.521,1.168,1.167C340.346,155.532,339.824,156.056,339.178,156.056z"/>
		<path fill="#093844" d="M339.178,162.005h-19.105c-0.645,0-1.168-0.522-1.168-1.167c0-0.644,0.523-1.167,1.168-1.167h19.105
			c0.646,0,1.168,0.523,1.168,1.167C340.346,161.482,339.824,162.005,339.178,162.005z"/>
		<rect x="289.35" y="187.634" fill="#E65848" width="26.383" height="14.134"/>
		<path fill="#093844" d="M339.178,192.893h-19.105c-0.645,0-1.168-0.522-1.168-1.167c0-0.644,0.523-1.167,1.168-1.167h19.105
			c0.646,0,1.168,0.523,1.168,1.167C340.346,192.37,339.824,192.893,339.178,192.893z"/>
		<path fill="#093844" d="M339.178,198.843h-19.105c-0.645,0-1.168-0.522-1.168-1.167c0-0.644,0.523-1.167,1.168-1.167h19.105
			c0.646,0,1.168,0.523,1.168,1.167C340.346,198.32,339.824,198.843,339.178,198.843z"/>
		<path fill="#093844" d="M339.178,174.998h-19.105c-0.645,0-1.168-0.523-1.168-1.167c0-0.646,0.523-1.167,1.168-1.167h19.105
			c0.646,0,1.168,0.521,1.168,1.167C340.346,174.475,339.824,174.998,339.178,174.998z"/>
		<path fill="#093844" d="M339.178,180.947h-19.105c-0.645,0-1.168-0.522-1.168-1.167c0-0.644,0.523-1.167,1.168-1.167h19.105
			c0.646,0,1.168,0.523,1.168,1.167C340.346,180.425,339.824,180.947,339.178,180.947z"/>
		<path fill="#093844" d="M282.25,177.972h-47.853c-0.644,0-1.167-0.521-1.167-1.167c0-0.645,0.522-1.167,1.167-1.167h47.853
			c0.645,0,1.168,0.522,1.168,1.167C283.418,177.45,282.895,177.972,282.25,177.972z"/>
		<path fill="#093844" d="M282.25,185.648h-58.785c-0.645,0-1.167-0.522-1.167-1.167c0-0.644,0.522-1.167,1.167-1.167h58.785
			c0.645,0,1.168,0.523,1.168,1.167C283.418,185.126,282.895,185.648,282.25,185.648z"/>
		<path fill="#093844" d="M282.25,193.327h-58.785c-0.645,0-1.167-0.523-1.167-1.167c0-0.646,0.522-1.167,1.167-1.167h58.785
			c0.645,0,1.168,0.521,1.168,1.167C283.418,192.804,282.895,193.327,282.25,193.327z"/>
		<path fill="#093844" d="M272.096,201.003h-48.63c-0.645,0-1.167-0.521-1.167-1.167c0-0.645,0.522-1.167,1.167-1.167h48.63
			c0.645,0,1.168,0.522,1.168,1.167C273.264,200.481,272.74,201.003,272.096,201.003z"/>
		<g>
			<polygon fill="#F1F4DE" points="246.425,140.7 246.425,162.016 264.877,151.357 			"/>
			<path fill="#093844" d="M246.425,163.183c-0.202,0-0.403-0.052-0.583-0.155c-0.361-0.21-0.584-0.595-0.584-1.012V140.7
				c0-0.417,0.223-0.802,0.584-1.01c0.361-0.209,0.805-0.208,1.166,0l18.453,10.658c0.361,0.207,0.584,0.592,0.584,1.009
				c0,0.418-0.223,0.803-0.584,1.012l-18.453,10.657C246.828,163.13,246.627,163.183,246.425,163.183z M247.592,142.722v17.272
				l14.951-8.637L247.592,142.722z"/>
		</g>
		<polygon fill="#F1F4DE" points="300.178,137.434 300.178,143.969 305.834,140.7 		"/>
		<polygon fill="#F1F4DE" points="300.178,154.596 300.178,161.13 305.834,157.862 		"/>
		<polygon fill="#F1F4DE" points="300.178,172.634 300.178,179.169 305.834,175.9 		"/>
		<polygon fill="#F1F4DE" points="300.178,190.962 300.178,197.497 305.834,194.229 		"/>
	</g>
	<g>
		<path fill="#332D2A" d="M437.969,256.663c-12.023,0-21.803-9.782-21.803-21.805s9.779-21.805,21.803-21.805
			c12.025,0,21.805,9.782,21.805,21.805S449.994,256.663,437.969,256.663z M437.969,216.554c-10.092,0-18.303,8.212-18.303,18.305
			c0,10.092,8.211,18.304,18.303,18.304c10.094,0,18.305-8.212,18.305-18.304C456.273,224.766,448.063,216.554,437.969,216.554z"/>
		<g>
			<path fill="#A1C481" d="M454.1,235.118c0,0-7.223-10.756-16.129-10.756c-8.91,0-16.133,10.756-16.133,10.756
				s7.223,10.754,16.133,10.754C446.877,245.872,454.1,235.118,454.1,235.118z"/>
			<path fill="#093844" d="M437.971,247.039c-9.422,0-16.793-10.811-17.102-11.271c-0.264-0.393-0.264-0.907,0-1.301
				c0.309-0.46,7.68-11.271,17.102-11.271c9.42,0,16.791,10.811,17.098,11.271c0.266,0.394,0.266,0.908,0,1.301
				C454.762,236.229,447.391,247.039,437.971,247.039z M423.279,235.118c1.693,2.254,7.738,9.588,14.691,9.588
				c6.949,0,12.996-7.334,14.691-9.588c-1.695-2.257-7.742-9.589-14.691-9.589C431.018,225.529,424.973,232.861,423.279,235.118z"/>
		</g>
		<g>
			<path fill="#F1F4DE" d="M442.117,234.402c-1.426,0-2.58-1.155-2.58-2.582c0-0.592,0.207-1.131,0.541-1.564
				c-0.646-0.282-1.359-0.439-2.107-0.439c-2.926,0-5.301,2.374-5.301,5.302c0,2.927,2.375,5.301,5.301,5.301
				s5.301-2.374,5.301-5.301c0-0.325-0.033-0.643-0.09-0.951C442.857,234.313,442.5,234.402,442.117,234.402z"/>
			<path fill="#093844" d="M437.971,241.585c-3.566,0-6.469-2.901-6.469-6.467c0-3.567,2.902-6.469,6.469-6.469
				c0.891,0,1.758,0.181,2.572,0.536c0.332,0.144,0.576,0.431,0.666,0.779s0.014,0.718-0.207,1.003
				c-0.137,0.178-0.299,0.47-0.299,0.853c0,0.976,1.037,1.721,1.992,1.285c0.33-0.149,0.707-0.139,1.023,0.026
				c0.318,0.165,0.545,0.471,0.609,0.824c0.074,0.403,0.111,0.784,0.111,1.162C444.439,238.684,441.537,241.585,437.971,241.585z
				 M437.971,230.983c-2.279,0-4.135,1.855-4.135,4.135s1.855,4.134,4.135,4.134c2.127,0,3.883-1.615,4.109-3.683
				c-2.049-0.021-3.711-1.693-3.711-3.749c0-0.273,0.029-0.545,0.09-0.808C438.297,230.993,438.135,230.983,437.971,230.983z"/>
		</g>
	</g>
	<g>
		<g>
			<rect x="134.025" y="106.944" fill="#F1F4DE" width="50.498" height="70.29"/>
			<path fill="#093844" d="M184.523,178.4h-50.498c-0.645,0-1.167-0.523-1.167-1.167v-70.29c0-0.645,0.522-1.167,1.167-1.167h50.498
				c0.645,0,1.167,0.522,1.167,1.167v70.29C185.69,177.877,185.167,178.4,184.523,178.4z M135.192,176.066h48.164v-67.956h-48.164
				V176.066z"/>
		</g>
		<path fill="#093844" d="M180.19,124.928h-30.929c-0.645,0-1.167-0.523-1.167-1.167c0-0.645,0.522-1.167,1.167-1.167h30.929
			c0.645,0,1.167,0.522,1.167,1.167C181.357,124.405,180.835,124.928,180.19,124.928z"/>
		<path fill="#093844" d="M180.19,129.396h-39.723c-0.645,0-1.167-0.523-1.167-1.167c0-0.645,0.522-1.167,1.167-1.167h39.723
			c0.645,0,1.167,0.522,1.167,1.167C181.357,128.873,180.835,129.396,180.19,129.396z"/>
		<path fill="#093844" d="M180.19,133.86h-39.723c-0.645,0-1.167-0.523-1.167-1.167c0-0.645,0.522-1.167,1.167-1.167h39.723
			c0.645,0,1.167,0.522,1.167,1.167C181.357,133.337,180.835,133.86,180.19,133.86z"/>
		<path fill="#093844" d="M180.19,138.328h-39.723c-0.645,0-1.167-0.523-1.167-1.167c0-0.645,0.522-1.167,1.167-1.167h39.723
			c0.645,0,1.167,0.522,1.167,1.167C181.357,137.805,180.835,138.328,180.19,138.328z"/>
		<path fill="#093844" d="M180.19,142.792h-39.723c-0.645,0-1.167-0.522-1.167-1.167c0-0.644,0.522-1.167,1.167-1.167h39.723
			c0.645,0,1.167,0.523,1.167,1.167C181.357,142.271,180.835,142.792,180.19,142.792z"/>
		<path fill="#093844" d="M180.19,147.26h-39.723c-0.645,0-1.167-0.523-1.167-1.167c0-0.645,0.522-1.167,1.167-1.167h39.723
			c0.645,0,1.167,0.522,1.167,1.167C181.357,146.736,180.835,147.26,180.19,147.26z"/>
		<path fill="#093844" d="M150.517,151.728h-10.049c-0.645,0-1.167-0.523-1.167-1.167c0-0.646,0.522-1.167,1.167-1.167h10.049
			c0.645,0,1.167,0.521,1.167,1.167C151.684,151.204,151.161,151.728,150.517,151.728z"/>
		<g>
			<polygon fill="#E65848" points="150.517,171.328 140.468,171.328 140.468,183.137 145.492,181.454 150.517,183.137 			"/>
			<path fill="#093844" d="M150.517,184.304c-0.125,0-0.25-0.021-0.371-0.062l-4.654-1.557l-4.654,1.557
				c-0.355,0.118-0.748,0.06-1.052-0.159c-0.305-0.22-0.485-0.571-0.485-0.946v-11.809c0-0.645,0.522-1.167,1.167-1.167h10.049
				c0.645,0,1.167,0.522,1.167,1.167v11.809c0,0.375-0.181,0.727-0.486,0.946C150.997,184.229,150.758,184.304,150.517,184.304z
				 M145.492,180.288c0.125,0,0.25,0.019,0.37,0.059l3.487,1.168v-9.02h-7.715v9.02l3.487-1.168
				C145.242,180.307,145.367,180.288,145.492,180.288z"/>
		</g>
		<g>
			<circle fill="#F1A20D" cx="145.492" cy="167.025" r="7.639"/>
			<path fill="#093844" d="M145.492,175.832c-4.856,0-8.806-3.952-8.806-8.807c0-4.857,3.95-8.808,8.806-8.808
				c4.855,0,8.806,3.95,8.806,8.808C154.298,171.88,150.348,175.832,145.492,175.832z M145.492,160.552
				c-3.569,0-6.473,2.904-6.473,6.474s2.904,6.473,6.473,6.473c3.568,0,6.472-2.903,6.472-6.473S149.061,160.552,145.492,160.552z"
				/>
		</g>
		<path fill="#093844" d="M170.629,116.828h-22.907c-0.645,0-1.167-0.522-1.167-1.167s0.522-1.167,1.167-1.167h22.907
			c0.645,0,1.167,0.522,1.167,1.167S171.274,116.828,170.629,116.828z"/>
	</g>
	<g>
		<path fill="#332D2A" d="M423.209,104.063c-12.023,0-21.807-9.782-21.807-21.805s9.783-21.805,21.807-21.805
			c12.021,0,21.805,9.781,21.805,21.805S435.23,104.063,423.209,104.063z M423.209,63.954c-10.094,0-18.305,8.211-18.305,18.304
			s8.211,18.304,18.305,18.304c10.092,0,18.303-8.211,18.303-18.304S433.301,63.954,423.209,63.954z"/>
		<g>
			<g>
				
					<rect x="417.235" y="73.169" transform="matrix(0.707 0.7072 -0.7072 0.707 181.8329 -274.9276)" fill="#F1A20D" width="11.008" height="17.66"/>
				<path fill="#093844" d="M420.387,93.301L420.387,93.301c-0.311,0-0.605-0.123-0.824-0.342l-7.785-7.785
					c-0.455-0.456-0.455-1.194,0-1.65l12.488-12.486c0.455-0.456,1.195-0.456,1.65,0l7.783,7.784c0.455,0.456,0.455,1.194,0,1.65
					l-12.488,12.487C420.992,93.178,420.697,93.301,420.387,93.301z M414.254,84.35l6.133,6.134l10.838-10.837l-6.133-6.134
					L414.254,84.35z"/>
			</g>
			<g>
				
					<rect x="425.491" y="70.898" transform="matrix(0.7072 0.707 -0.707 0.7072 178.3459 -283.1371)" fill="#F1F4DE" width="11.009" height="5.69"/>
				<path fill="#093844" d="M432.875,80.814c-0.311,0-0.607-0.123-0.826-0.342l-7.783-7.784c-0.455-0.456-0.455-1.194,0-1.65
					l4.023-4.024c0.455-0.456,1.193-0.456,1.65,0l7.785,7.783c0.219,0.219,0.342,0.516,0.342,0.825s-0.123,0.606-0.342,0.825
					l-4.025,4.025C433.48,80.691,433.184,80.814,432.875,80.814z M426.74,71.863l6.135,6.134l2.375-2.375l-6.137-6.133
					L426.74,71.863z"/>
			</g>
			<g>
				<polygon fill="#F1F4DE" points="412.604,84.35 411.682,93.053 420.387,92.134 				"/>
				<path fill="#093844" d="M411.682,94.22c-0.307,0-0.604-0.122-0.824-0.342c-0.248-0.249-0.371-0.597-0.336-0.948l0.922-8.703
					c0.045-0.447,0.346-0.828,0.77-0.978c0.424-0.149,0.898-0.043,1.215,0.275l7.783,7.785c0.318,0.318,0.424,0.791,0.277,1.214
					c-0.15,0.424-0.531,0.724-0.979,0.771l-8.705,0.918C411.764,94.217,411.723,94.22,411.682,94.22z M413.506,86.904l-0.51,4.837
					l4.836-0.511L413.506,86.904z"/>
			</g>
		</g>
	</g>
	<g>
		<path fill="#093844" d="M200.18,106.042c-0.335,0-0.667-0.144-0.898-0.421l-5.72-6.887c-0.412-0.497-0.344-1.232,0.151-1.644
			c0.497-0.413,1.232-0.343,1.643,0.151l5.721,6.887c0.412,0.497,0.344,1.232-0.152,1.644
			C200.707,105.954,200.442,106.042,200.18,106.042z"/>
		<path fill="#093844" d="M208.18,106.042c-0.335,0-0.667-0.144-0.898-0.421l-5.72-6.887c-0.412-0.497-0.344-1.232,0.151-1.644
			c0.497-0.413,1.232-0.343,1.643,0.151l5.721,6.887c0.412,0.497,0.344,1.232-0.152,1.644
			C208.707,105.954,208.442,106.042,208.18,106.042z"/>
		<path fill="#093844" d="M216.18,106.042c-0.335,0-0.667-0.144-0.898-0.421l-5.721-6.887c-0.412-0.497-0.344-1.232,0.152-1.644
			c0.497-0.413,1.232-0.343,1.643,0.151l5.72,6.887c0.412,0.497,0.344,1.232-0.151,1.644
			C216.707,105.954,216.442,106.042,216.18,106.042z"/>
		<path fill="#093844" d="M224.179,106.042c-0.335,0-0.667-0.144-0.898-0.421l-5.72-6.887c-0.412-0.497-0.344-1.232,0.152-1.644
			c0.497-0.413,1.232-0.343,1.643,0.151l5.72,6.887c0.412,0.497,0.344,1.232-0.151,1.644
			C224.706,105.954,224.441,106.042,224.179,106.042z"/>
		<path fill="#093844" d="M232.179,106.042c-0.335,0-0.667-0.144-0.898-0.421l-5.72-6.887c-0.412-0.497-0.344-1.232,0.152-1.644
			c0.497-0.413,1.232-0.343,1.643,0.151l5.72,6.887c0.412,0.497,0.344,1.232-0.151,1.644
			C232.706,105.954,232.441,106.042,232.179,106.042z"/>
		<path fill="#093844" d="M240.179,106.042c-0.335,0-0.667-0.144-0.898-0.421l-5.72-6.887c-0.412-0.497-0.344-1.232,0.152-1.644
			c0.497-0.413,1.232-0.343,1.643,0.151l5.72,6.887c0.412,0.497,0.344,1.232-0.151,1.644
			C240.706,105.954,240.441,106.042,240.179,106.042z"/>
		<path fill="#093844" d="M248.179,106.042c-0.335,0-0.667-0.144-0.897-0.421l-5.721-6.887c-0.412-0.497-0.344-1.232,0.152-1.644
			c0.496-0.413,1.232-0.343,1.643,0.151l5.721,6.887c0.412,0.497,0.344,1.232-0.152,1.644
			C248.706,105.954,248.441,106.042,248.179,106.042z"/>
		<path fill="#093844" d="M256.178,106.042c-0.334,0-0.666-0.144-0.897-0.421l-5.72-6.887c-0.412-0.497-0.345-1.232,0.15-1.644
			c0.498-0.413,1.232-0.343,1.645,0.151l5.719,6.887c0.412,0.497,0.346,1.232-0.15,1.644
			C256.705,105.954,256.441,106.042,256.178,106.042z"/>
		<path fill="#093844" d="M264.178,106.042c-0.334,0-0.668-0.144-0.898-0.421l-5.719-6.887c-0.412-0.497-0.346-1.232,0.15-1.644
			c0.498-0.413,1.232-0.343,1.645,0.151l5.719,6.887c0.412,0.497,0.346,1.232-0.15,1.644
			C264.705,105.954,264.441,106.042,264.178,106.042z"/>
		<path fill="#093844" d="M272.178,106.042c-0.334,0-0.668-0.144-0.898-0.421l-5.719-6.887c-0.412-0.497-0.346-1.232,0.15-1.644
			c0.498-0.413,1.232-0.343,1.645,0.151l5.719,6.887c0.412,0.497,0.344,1.232-0.15,1.644
			C272.705,105.954,272.441,106.042,272.178,106.042z"/>
		<path fill="#093844" d="M280.178,106.042c-0.334,0-0.666-0.144-0.896-0.421l-5.721-6.887c-0.412-0.497-0.346-1.232,0.15-1.644
			c0.498-0.413,1.232-0.343,1.645,0.151l5.719,6.887c0.412,0.497,0.346,1.232-0.15,1.644
			C280.705,105.954,280.441,106.042,280.178,106.042z"/>
		<path fill="#093844" d="M288.178,106.042c-0.336,0-0.668-0.144-0.898-0.421l-5.721-6.887c-0.41-0.497-0.344-1.232,0.152-1.644
			c0.498-0.413,1.232-0.343,1.643,0.151l5.721,6.887c0.412,0.497,0.344,1.232-0.15,1.644
			C288.705,105.954,288.439,106.042,288.178,106.042z"/>
		<path fill="#093844" d="M296.178,106.042c-0.336,0-0.668-0.144-0.898-0.421l-5.721-6.887c-0.41-0.497-0.344-1.232,0.152-1.644
			c0.498-0.413,1.232-0.343,1.643,0.151l5.721,6.887c0.412,0.497,0.344,1.232-0.15,1.644
			C296.705,105.954,296.439,106.042,296.178,106.042z"/>
		<path fill="#093844" d="M304.178,106.042c-0.336,0-0.668-0.144-0.898-0.421l-5.721-6.887c-0.41-0.497-0.344-1.232,0.152-1.644
			c0.496-0.413,1.232-0.343,1.643,0.151l5.721,6.887c0.412,0.497,0.346,1.232-0.152,1.644
			C304.705,105.954,304.439,106.042,304.178,106.042z"/>
		<path fill="#093844" d="M312.178,106.042c-0.336,0-0.668-0.144-0.898-0.421l-5.721-6.887c-0.41-0.497-0.344-1.232,0.152-1.644
			c0.496-0.413,1.232-0.343,1.643,0.151l5.721,6.887c0.412,0.497,0.346,1.232-0.152,1.644
			C312.705,105.954,312.439,106.042,312.178,106.042z"/>
		<path fill="#093844" d="M320.178,106.042c-0.336,0-0.668-0.144-0.898-0.421l-5.721-6.887c-0.412-0.497-0.344-1.232,0.152-1.644
			c0.496-0.413,1.23-0.343,1.643,0.151l5.721,6.887c0.41,0.497,0.344,1.232-0.152,1.644
			C320.703,105.954,320.439,106.042,320.178,106.042z"/>
		<path fill="#093844" d="M328.178,106.042c-0.336,0-0.668-0.144-0.898-0.421l-5.721-6.887c-0.412-0.497-0.344-1.232,0.152-1.644
			c0.496-0.413,1.23-0.343,1.643,0.151l5.721,6.887c0.41,0.497,0.344,1.232-0.152,1.644
			C328.703,105.954,328.439,106.042,328.178,106.042z"/>
		<path fill="#093844" d="M336.178,106.042c-0.336,0-0.668-0.144-0.898-0.421l-5.721-6.887c-0.412-0.497-0.344-1.232,0.152-1.644
			c0.496-0.413,1.23-0.343,1.643,0.151l5.721,6.887c0.41,0.497,0.344,1.232-0.152,1.644
			C336.703,105.954,336.439,106.042,336.178,106.042z"/>
		<path fill="#093844" d="M344.178,106.042c-0.336,0-0.668-0.144-0.898-0.421l-5.721-6.887c-0.412-0.497-0.344-1.232,0.152-1.644
			c0.496-0.413,1.232-0.343,1.643,0.151l5.721,6.887c0.41,0.497,0.344,1.232-0.152,1.644
			C344.703,105.954,344.439,106.042,344.178,106.042z"/>
		<path fill="#093844" d="M352.176,106.042c-0.334,0-0.666-0.144-0.896-0.421l-5.721-6.887c-0.414-0.497-0.346-1.232,0.15-1.644
			c0.498-0.413,1.232-0.343,1.645,0.151l5.719,6.887c0.412,0.497,0.344,1.232-0.15,1.644
			C352.703,105.954,352.439,106.042,352.176,106.042z"/>
		<path fill="#093844" d="M360.176,106.042c-0.334,0-0.666-0.144-0.896-0.421l-5.721-6.887c-0.414-0.497-0.346-1.232,0.15-1.644
			c0.498-0.413,1.232-0.343,1.645,0.151l5.719,6.887c0.412,0.497,0.344,1.232-0.15,1.644
			C360.703,105.954,360.439,106.042,360.176,106.042z"/>
		<path fill="#093844" d="M368.176,106.042c-0.334,0-0.666-0.144-0.896-0.421l-5.721-6.887c-0.414-0.497-0.346-1.232,0.15-1.644
			c0.498-0.413,1.232-0.343,1.645,0.151l5.719,6.887c0.412,0.497,0.344,1.232-0.15,1.644
			C368.703,105.954,368.439,106.042,368.176,106.042z"/>
	</g>
	<g>
		<g>
			<path fill="#F1F4DE" d="M147.61,239.902c0,5.887-4.775,10.662-10.664,10.662h-23.498c-5.889,0-10.663-4.775-10.663-10.662V229.22
				c0-5.89,4.774-10.662,10.663-10.662h23.498c5.889,0,10.664,4.772,10.664,10.662V239.902z"/>
			<path fill="#093844" d="M136.946,251.731h-23.498c-6.523,0-11.83-5.307-11.83-11.829V229.22c0-6.522,5.307-11.829,11.83-11.829
				h23.498c6.523,0,11.831,5.307,11.831,11.829v10.683C148.777,246.425,143.469,251.731,136.946,251.731z M113.448,219.725
				c-5.236,0-9.496,4.26-9.496,9.495v10.683c0,5.235,4.26,9.495,9.496,9.495h23.498c5.237,0,9.497-4.26,9.497-9.495V229.22
				c0-5.235-4.26-9.495-9.497-9.495H113.448z"/>
		</g>
		<g>
			<polygon fill="#E65848" points="119.289,223.47 119.289,244.784 137.741,234.127 			"/>
			<path fill="#093844" d="M119.289,245.951c-0.202,0-0.403-0.052-0.583-0.155c-0.361-0.209-0.583-0.595-0.583-1.012V223.47
				c0-0.418,0.223-0.803,0.583-1.01c0.361-0.21,0.806-0.209,1.167,0l18.453,10.657c0.361,0.207,0.583,0.593,0.583,1.01
				s-0.222,0.802-0.583,1.011l-18.453,10.657C119.691,245.898,119.491,245.951,119.289,245.951z M120.456,225.491v17.271
				l14.952-8.636L120.456,225.491z"/>
		</g>
	</g>
	<path fill="#252224" d="M173.872,189.356h-49.042c-0.967,0-1.75-0.783-1.75-1.75V97.988c0-0.967,0.784-1.75,1.75-1.75h48.314
		c0.967,0,1.75,0.784,1.75,1.75s-0.784,1.75-1.75,1.75h-46.564v86.117h47.291c0.967,0,1.75,0.784,1.75,1.751
		S174.839,189.356,173.872,189.356z"/>
	<g>
		<path fill="#332D2A" d="M327.58,266.179h-62.285c-0.967,0-1.75-0.784-1.75-1.75c0-0.968,0.783-1.751,1.75-1.751h62.285
			c0.969,0,1.752,0.783,1.752,1.751C329.332,265.395,328.549,266.179,327.58,266.179z"/>
		<path fill="#332D2A" d="M300.402,274.696h-14.955c-0.967,0-1.75-0.784-1.75-1.75c0-0.968,0.783-1.751,1.75-1.751h14.955
			c0.967,0,1.75,0.783,1.75,1.751C302.152,273.912,301.369,274.696,300.402,274.696z"/>
		<path fill="#332D2A" d="M307.645,259.412h-14.721c-0.967,0-1.75-0.784-1.75-1.75c0-0.968,0.783-1.751,1.75-1.751h14.721
			c0.969,0,1.75,0.783,1.75,1.751C309.395,258.628,308.613,259.412,307.645,259.412z"/>
		<path fill="#332D2A" d="M274.123,259.412h-3.664c-0.967,0-1.75-0.784-1.75-1.75c0-0.968,0.783-1.751,1.75-1.751h3.664
			c0.967,0,1.752,0.783,1.752,1.751C275.875,258.628,275.09,259.412,274.123,259.412z"/>
		<path fill="#332D2A" d="M327.58,272.9c-0.309,0-0.615-0.081-0.891-0.244c-0.531-0.314-0.859-0.888-0.859-1.506v-13.488
			c0-0.62,0.328-1.193,0.861-1.508c0.533-0.313,1.193-0.325,1.734-0.026l12.268,6.767c0.559,0.309,0.906,0.898,0.906,1.536
			c-0.002,0.639-0.35,1.227-0.91,1.532l-12.268,6.724C328.16,272.83,327.871,272.9,327.58,272.9z M329.332,260.626v7.57l6.883-3.773
			L329.332,260.626z"/>
	</g>
	<g>
		<g>
			<rect x="226.875" y="173.662" fill="#F1A20D" width="15.166" height="80.379"/>
			<path fill="#093844" d="M242.041,255.208h-15.166c-0.644,0-1.167-0.523-1.167-1.167l0-80.379c0-0.646,0.522-1.167,1.167-1.167
				h15.166c0.311,0,0.607,0.123,0.826,0.342s0.342,0.516,0.342,0.825v80.379C243.209,254.685,242.686,255.208,242.041,255.208z
				 M228.042,252.874h12.832v-78.045h-12.833L228.042,252.874z"/>
		</g>
		<g>
			<rect x="226.875" y="163.487" fill="#E65848" width="15.166" height="10.175"/>
			<path fill="#093844" d="M226.875,174.829c-0.309,0-0.606-0.123-0.825-0.342s-0.342-0.516-0.342-0.825v-10.175
				c0-0.645,0.522-1.167,1.167-1.167l15.166-0.001c0.311,0,0.607,0.123,0.826,0.342s0.342,0.517,0.342,0.825v10.176
				c0,0.644-0.523,1.167-1.168,1.167H226.875z M228.042,164.654v7.841h12.833v-7.842L228.042,164.654z"/>
		</g>
		<g>
			<polygon fill="#F1F4DE" points="226.875,254.041 234.458,263.415 242.041,254.041 			"/>
			<path fill="#093844" d="M234.458,264.582L234.458,264.582c-0.352,0-0.686-0.158-0.907-0.433l-7.582-9.374
				c-0.283-0.351-0.34-0.831-0.146-1.236c0.194-0.406,0.604-0.665,1.053-0.665h15.166c0.45,0,0.859,0.259,1.053,0.665
				c0.194,0.405,0.139,0.886-0.145,1.236l-7.584,9.374C235.144,264.424,234.81,264.582,234.458,264.582z M229.321,255.208
				l5.137,6.353l5.139-6.353H229.321z"/>
		</g>
		<path fill="#093844" d="M242.041,249.024h-15.166c-0.644,0-1.167-0.522-1.167-1.167c0-0.644,0.522-1.167,1.167-1.167h15.166
			c0.645,0,1.167,0.523,1.167,1.167C243.208,248.502,242.686,249.024,242.041,249.024z"/>
		<g>
			<rect x="226.875" y="173.662" fill="#F1F4DE" width="15.166" height="6.589"/>
			<path fill="#093844" d="M242.041,181.418h-15.166c-0.644,0-1.167-0.521-1.167-1.167v-6.589c0-0.646,0.522-1.167,1.167-1.167
				h15.166c0.311,0,0.607,0.123,0.826,0.342s0.342,0.516,0.342,0.825l-0.001,6.589C243.208,180.896,242.686,181.418,242.041,181.418
				z M228.042,179.084h12.832l0-4.255h-12.833V179.084z"/>
		</g>
	</g>
	<g>
		<polygon fill="#F1A20D" points="173.872,186.8 157.527,216.736 191.988,216.736 		"/>
		<path fill="#093844" d="M191.988,217.903h-34.461c-0.412,0-0.793-0.218-1.003-0.572c-0.21-0.354-0.218-0.793-0.021-1.154
			l16.345-29.936c0.2-0.367,0.581-0.6,0.999-0.608c0.432-0.007,0.809,0.205,1.024,0.563l18.116,29.938
			c0.218,0.359,0.225,0.809,0.018,1.176C192.797,217.676,192.409,217.903,191.988,217.903z M159.494,215.569h30.424l-15.994-26.43
			L159.494,215.569z"/>
	</g>
	<g>
		<rect x="173.145" y="83.387" fill="#8BA69D" width="215.878" height="14.601"/>
		<path fill="#252224" d="M389.023,99.155H173.145c-0.645,0-1.167-0.522-1.167-1.167V83.387c0-0.645,0.522-1.167,1.167-1.167
			h215.878c0.645,0,1.166,0.522,1.166,1.167v14.601C390.189,98.633,389.668,99.155,389.023,99.155z M174.312,96.821h213.543V84.554
			H174.312V96.821z"/>
	</g>
	<path fill="#F1F4DE" d="M234.396,90.163h-51.168c-0.967,0-1.75-0.783-1.75-1.75c0-0.967,0.784-1.75,1.75-1.75h51.168
		c0.967,0,1.75,0.784,1.75,1.75C236.147,89.379,235.363,90.163,234.396,90.163z"/>
	<path fill="#F1F4DE" d="M298.457,90.163h-35.348c-0.967,0-1.75-0.783-1.75-1.75c0-0.967,0.783-1.75,1.75-1.75h35.348
		c0.967,0,1.75,0.784,1.75,1.75C300.207,89.379,299.424,90.163,298.457,90.163z"/>
	<path fill="#F1F4DE" d="M339.178,90.163h-8.619c-0.967,0-1.75-0.783-1.75-1.75c0-0.967,0.783-1.75,1.75-1.75h8.619
		c0.969,0,1.752,0.784,1.752,1.75C340.93,89.379,340.146,90.163,339.178,90.163z"/>
	<path fill="#F1F4DE" d="M180.896,210.717c-0.418,0-0.822-0.223-1.032-0.618l-5.889-11.088l-3.443,7.889
		c-0.258,0.591-0.947,0.859-1.536,0.603c-0.591-0.257-0.86-0.945-0.603-1.536l4.409-10.103c0.179-0.411,0.578-0.683,1.025-0.699
		c0.452-0.022,0.865,0.224,1.076,0.617l7.022,13.222c0.302,0.57,0.086,1.276-0.483,1.578
		C181.268,210.674,181.081,210.717,180.896,210.717z"/>
	<path fill="#332D2A" d="M248.45,266.333h-28.184c-0.967,0-1.75-0.783-1.75-1.751c0-0.967,0.784-1.75,1.75-1.75h28.184
		c0.967,0,1.751,0.783,1.751,1.75C250.201,265.55,249.417,266.333,248.45,266.333z"/>
	<path fill="#332D2A" d="M212.351,266.333H200.73c-0.967,0-1.75-0.783-1.75-1.751c0-0.967,0.784-1.75,1.75-1.75h11.621
		c0.967,0,1.75,0.783,1.75,1.75C214.101,265.55,213.317,266.333,212.351,266.333z"/>
	<path fill="#332D2A" d="M256.945,266.333h-2.906c-0.967,0-1.75-0.783-1.75-1.751c0-0.967,0.783-1.75,1.75-1.75h2.906
		c0.967,0,1.75,0.783,1.75,1.75C258.695,265.55,257.912,266.333,256.945,266.333z"/>
	<path fill="#332D2A" d="M194.321,266.333h-2.905c-0.967,0-1.75-0.783-1.75-1.751c0-0.967,0.784-1.75,1.75-1.75h2.905
		c0.967,0,1.75,0.783,1.75,1.75C196.072,265.55,195.289,266.333,194.321,266.333z"/>
	<path fill="#332D2A" d="M176.238,232.604c-1.341,0-2.478,0.853-2.92,2.042H159.01c-0.442-1.189-1.578-2.042-2.919-2.042
		c-1.725,0-3.125,1.399-3.125,3.122c0,1.726,1.399,3.125,3.125,3.125c1.341,0,2.477-0.853,2.918-2.042h14.31
		c0.441,1.189,1.577,2.042,2.918,2.042c1.724,0,3.124-1.399,3.124-3.125C179.361,234.004,177.962,232.604,176.238,232.604z"/>
	<path fill="#252224" d="M270.951,75.833c-0.303,0-0.605-0.078-0.875-0.234c-0.541-0.313-0.875-0.891-0.875-1.516V52.768
		c0-0.625,0.334-1.204,0.875-1.516s1.209-0.312,1.75,0l18.453,10.657c0.541,0.313,0.875,0.891,0.875,1.516
		c0,0.625-0.334,1.203-0.875,1.516l-18.453,10.657C271.557,75.755,271.254,75.833,270.951,75.833z M272.701,55.8v15.25l13.203-7.625
		L272.701,55.8z"/>
	<g>
		<path fill="#332D2A" d="M415.061,152.222c-0.588,0-1.162-0.296-1.494-0.833c-0.506-0.823-0.25-1.899,0.572-2.408
			c0.041-0.024,1.012-0.622,2.66-1.477c0.855-0.447,1.912-0.112,2.359,0.746s0.111,1.915-0.746,2.36
			c-1.521,0.791-2.426,1.346-2.436,1.352C415.689,152.138,415.373,152.222,415.061,152.222z"/>
		<path fill="#332D2A" d="M424.344,147.791c-0.707,0-1.373-0.431-1.639-1.131c-0.342-0.904,0.111-1.914,1.016-2.257
			c2.061-0.782,4.102-1.428,6.061-1.919c0.939-0.236,1.891,0.334,2.125,1.273c0.234,0.937-0.336,1.887-1.271,2.123
			c-1.832,0.458-3.738,1.063-5.672,1.796C424.758,147.753,424.549,147.791,424.344,147.791z M443.623,145.245
			c-0.117,0-0.236-0.013-0.355-0.038c-1.395-0.288-2.891-0.481-4.477-0.432c-0.406,0-0.809,0.012-1.213,0.03
			c-0.971,0.033-1.783-0.703-1.83-1.668c-0.043-0.965,0.703-1.786,1.668-1.83c0.469-0.021,0.934-0.021,1.41-0.033
			c1.799,0,3.531,0.171,5.15,0.504c0.945,0.195,1.555,1.123,1.357,2.069C445.164,144.675,444.438,145.245,443.623,145.245z"/>
		<path fill="#332D2A" d="M452.609,150.011c-0.445,0-0.895-0.171-1.236-0.513c-0.623-0.624-1.297-1.193-2-1.691
			c-0.791-0.559-0.977-1.651-0.416-2.439c0.559-0.79,1.65-0.977,2.438-0.417c0.865,0.611,1.691,1.31,2.453,2.072
			c0.684,0.685,0.684,1.792,0,2.476C453.506,149.84,453.059,150.011,452.609,150.011z"/>
	</g>
	<circle fill="#332D2A" cx="454.731" cy="150.472" r="4.651"/>
	<g>
		<path fill="#332D2A" d="M384.729,219.538c-0.146,0-0.297-0.019-0.447-0.058c-1.793-0.474-2.873-0.842-2.918-0.858
			c-0.914-0.313-1.4-1.309-1.086-2.223c0.313-0.914,1.309-1.402,2.223-1.088c0.01,0.003,1.016,0.347,2.674,0.782
			c0.934,0.246,1.492,1.204,1.246,2.141C386.215,219.018,385.504,219.538,384.729,219.538z"/>
		<path fill="#332D2A" d="M398.094,221.525c-0.014,0-0.027,0-0.043,0c-2.02-0.051-4.15-0.231-6.334-0.54
			c-0.957-0.137-1.623-1.023-1.486-1.979c0.135-0.959,1.021-1.62,1.979-1.487c2.049,0.29,4.043,0.46,5.926,0.506
			c0.967,0.023,1.732,0.826,1.709,1.792C399.822,220.769,399.043,221.525,398.094,221.525z M405.449,221.021
			c-0.832,0-1.57-0.598-1.721-1.445c-0.17-0.952,0.467-1.859,1.418-2.028c2.002-0.355,3.84-0.907,5.463-1.644
			c0.879-0.396,1.916-0.008,2.314,0.873c0.4,0.88,0.01,1.917-0.869,2.315c-1.891,0.856-4.008,1.495-6.299,1.901
			C405.654,221.013,405.551,221.021,405.449,221.021z"/>
		<path fill="#332D2A" d="M417.293,214.948c-0.416,0-0.836-0.147-1.168-0.449c-0.721-0.646-0.777-1.753-0.133-2.472
			c0.578-0.643,1.109-1.345,1.582-2.09c0.516-0.818,1.598-1.062,2.414-0.545c0.818,0.518,1.063,1.598,0.545,2.416
			c-0.578,0.911-1.229,1.772-1.938,2.56C418.252,214.754,417.771,214.948,417.293,214.948z"/>
	</g>
	<circle fill="#332D2A" cx="420.636" cy="208.25" r="4.652"/>
	<g>
		<path fill="#332D2A" d="M492.359,170.988c-0.012-0.002-0.021-0.002-0.035,0H462c-1.445,0-2.617-1.171-2.617-2.618
			c0-2.888,2.109-8.821,10.086-10.579c0.828-0.186,1.338-0.471,1.508-0.856c0.348-0.783-0.086-2.372-0.605-3.478
			c-2.791-2.122-4.439-5.413-4.439-8.944c0-6.194,5.037-11.229,11.232-11.229s11.232,5.035,11.232,11.229
			c0,3.529-1.648,6.822-4.443,8.944c-0.518,1.104-0.949,2.694-0.604,3.478c0.17,0.386,0.68,0.671,1.504,0.856
			c7.498,1.651,9.813,6.992,10.063,10.027c0.041,0.179,0.059,0.364,0.059,0.552C494.975,169.817,493.805,170.988,492.359,170.988z
			 M465.633,165.756h23.061c-0.818-1.11-2.297-2.269-4.963-2.855c-3.178-0.7-4.566-2.485-5.17-3.856
			c-1.643-3.723,0.813-8.167,1.096-8.661c0.201-0.35,0.482-0.647,0.818-0.871c1.684-1.119,2.688-2.988,2.688-4.999
			c0-3.306-2.691-5.996-5.998-5.996s-6,2.689-6,5.996c0,2.011,1.006,3.88,2.688,4.999c0.262,0.176,0.494,0.396,0.678,0.656
			c0.029,0.041,2.879,4.62,1.355,8.588c-0.57,1.485-1.949,3.41-5.289,4.145C467.928,163.487,466.451,164.653,465.633,165.756z"/>
	</g>
</g>
</svg>
